<svg xmlns="http://www.w3.org/2000/svg" xmlns:xlink="http://www.w3.org/1999/xlink" width="1239.5" height="577" viewBox="0 0 1239.5 577">
  <defs>
    <clipPath id="clip-path">
      <path id="Rectangle_652" data-name="Rectangle 652" d="M19.52,0H1219.98c10.78,0,19.52,9.568,19.52,21.37V555.63c0,11.8-8.739,21.37-19.52,21.37H19.52C8.739,577,0,567.432,0,555.63V21.37C0,9.568,8.739,0,19.52,0Z" fill="none"/>
    </clipPath>
  </defs>
  <g id="Grupo_914832" data-name="Grupo 914832" transform="translate(-140.665 -713.991)">
    <path id="Rectangle_652-2" data-name="Rectangle 652" d="M1219.98,0H19.52C8.739,0,0,9.568,0,21.37V555.63C0,567.432,8.739,577,19.52,577H1219.98c10.78,0,19.52-9.568,19.52-21.37V21.37C1239.5,9.568,1230.761,0,1219.98,0Z" transform="translate(140.665 713.991)" fill="#f2edff"/>
    <g id="Enmascarar_grupo_58" data-name="Enmascarar grupo 58" transform="translate(140.665 713.991)" clip-path="url(#clip-path)">
      <path id="Trazado_216364" data-name="Trazado 216364" d="M595.283,133.3c-4.006,33.836-21.245,62.88-43.977,83.4-26.95,24.332-57.352,32.233-88.976,40.73-29.158,7.836-60.369,20.784-77.539,53.191-26.652,50.3-11.479,116.6-33.906,169.513-11.1,26.178-30.361,47.4-52.859,58.225-24.872,11.969-60.208,13.714-80.908-7.863-20.1-20.951-15.206-53.429-27.493-78.743-24.032-49.507-84.962-17.491-122.5-30.126-17.937-6.037-33-20.5-45.278-37.186C8.222,365.924-2.8,343.348-4.435,318.189-7.15,276.514,19.537,248,49.112,232.667,71.088,221.273,95.2,217.8,118.7,218.847c20.782.925,41.333,5.272,62.172,4.776,51.465-1.226,89.085-47.823,120.562-93.74C341.841,70.937,384.275,12.491,448.272-3.551c48.9-12.258,106.666-.643,132.759,54.2,11.038,23.2,16.9,50.533,14.734,77.763Q595.57,130.874,595.283,133.3Z" transform="translate(1272.202 323.268) rotate(172)" fill="#efe6ff"/>
      <path id="Trazado_216365" data-name="Trazado 216365" d="M841.753,218.6a169.037,169.037,0,0,1-56.779,114.649c-36.516,32.355-78.966,41.185-123.1,50.765-40.7,8.834-83.964,24.746-106.143,69.287C521.3,522.433,547,617.45,518.711,690.611c-14,36.194-39.853,64.742-70.947,78.323-34.375,15.017-84.191,14.751-114.827-17.391-29.75-31.211-24.919-76.8-43.907-113.584-37.138-71.934-121.173-31.333-175.024-52.122C88.275,575.9,66.059,554.272,47.641,529.7,27.2,502.424,10.18,469.617,6.248,433.879c-6.513-59.2,29.363-97.495,70.165-116.907,30.32-14.426,64.165-17.475,97.434-14.176,29.424,2.918,58.741,10.661,88.154,11.571,72.64,2.247,122.8-60.8,164.328-123.353,53.309-80.307,109.512-159.749,198.907-177.5C693.547-.055,775.912,20.856,816.3,100.505c17.087,33.694,27.12,72.835,25.816,111.21Q842,215.182,841.753,218.6Z" transform="translate(427.008 275.351) rotate(7)" fill="#efe6ff"/>
      <path id="Trazado_216366" data-name="Trazado 216366" d="M869.259,242.412c-1.53,46.083-22.99,83.552-53.555,108.433-36.236,29.5-79.61,35.8-124.69,42.746-41.565,6.4-85.475,19.549-106.4,61.669-32.488,65.376-1.877,159.154-27.865,228.776-12.857,34.443-38.272,60.813-69.733,72.348C452.23,769.139,400.869,766.2,367.9,733.3c-32.019-31.949-29.016-76.023-50.184-112.81-41.4-71.947-126.26-36.983-182.669-60.094-26.954-11.042-50.792-33.273-70.842-58.158-22.253-27.621-41.219-60.438-46.822-95.4C8.1,348.92,43.42,313.609,84.636,296.925c30.627-12.4,65.381-13.543,99.817-8.547,30.456,4.419,61.01,13.525,91.368,15.992,74.972,6.09,123.944-52.516,164.035-111.115C491.325,118.03,545.812,43.8,637.188,31.344c69.824-9.519,155.629,15.243,200.718,94.866,19.074,33.683,31.113,72.283,31.432,109.53Q869.369,239.1,869.259,242.412Z" transform="translate(514.894 198.23) rotate(24)" fill="#ece0ff"/>
      <path id="Trazado_216367" data-name="Trazado 216367" d="M844.709,223.854a164.509,164.509,0,0,1-55.95,113.709c-36.343,31.871-78.844,40.222-123.032,49.3-40.742,8.374-84,23.778-105.859,67.953-33.927,68.566-7.32,163.58-35.057,236.226-13.722,35.939-39.408,64.128-70.477,77.338-34.347,14.607-84.317,13.81-115.325-18.566C308.9,718.38,313.346,672.973,293.979,636.1c-37.878-72.121-121.812-32.535-176.006-53.838-25.9-10.178-48.368-31.986-67.056-56.683-20.741-27.413-38.1-60.306-42.354-95.983-7.05-59.1,28.6-96.9,69.357-115.818,30.285-14.06,64.206-16.739,97.6-13.1,29.539,3.223,59.011,11.257,88.521,12.478,72.878,3.016,122.642-59.308,163.747-121.24C480.561,112.414,536.241,33.8,625.751,17.055c68.4-12.8,151.193,8.931,192.4,88.779,17.433,33.778,27.837,72.912,26.864,111.161Q844.931,220.452,844.709,223.854Z" transform="matrix(0.985, 0.174, -0.174, 0.985, -116.798, -316.462)" fill="#efe6ff"/>
      <path id="Trazado_216446" data-name="Trazado 216446" d="M23.663-.39c12.924-.377,23.1,11.925,22.719,27.477S35.223,55.552,22.3,55.929-.8,44-.421,28.451,10.739-.013,23.663-.39Z" transform="translate(695.048 141.394) rotate(172)" fill="#f5f1ff"/>
      <path id="Trazado_216450" data-name="Trazado 216450" d="M14.149-.032c7.8-.029,14.1,5.165,14.074,11.6S21.846,23.247,14.044,23.276-.059,18.111-.03,11.674,6.347,0,14.149-.032Z" transform="translate(697.707 46.138) rotate(-88.783)" fill="#f5f1ff"/>
      <path id="Trazado_216449" data-name="Trazado 216449" d="M14.169-.066c7.8-.059,14.075,5.112,14.016,11.551s-6.43,11.705-14.23,11.764S-.12,18.137-.061,11.7,6.369-.007,14.169-.066Z" transform="translate(732.465 435.834) rotate(-87.524)" fill="#f5f1ff"/>
      <path id="Trazado_216447" data-name="Trazado 216447" d="M23.663-.39c12.924-.377,23.1,11.925,22.719,27.477S35.223,55.552,22.3,55.929-.8,44-.421,28.451,10.739-.013,23.663-.39Z" transform="translate(739.191 513.346) rotate(172)" fill="#f5f1ff"/>
      <path id="Trazado_216368" data-name="Trazado 216368" d="M71.206.129c39.377.116,71.392,26.543,71.509,59.026s-31.71,58.721-71.087,58.6S.236,91.216.119,58.733,31.83.013,71.206.129Z" transform="translate(146.693 432.367) rotate(-90.967)" fill="#f1eaff"/>
      <path id="Trazado_216451" data-name="Trazado 216451" d="M71.21.125c39.377.112,71.389,26.536,71.5,59.018s-31.718,58.724-71.094,58.611S.228,91.218.115,58.736,31.833.012,71.21.125Z" transform="translate(961.817 65.726) rotate(-90.935)" fill="#f1eaff"/>
      <path id="Trazado_216448" data-name="Trazado 216448" d="M6.528,11.09,895.543-14.824,878.267,698.35-10.748,724.264Z" transform="translate(1094.527 576.341) rotate(172)" fill="none"/>
      <path id="Trazado_216363" data-name="Trazado 216363" d="M10.028,331.874A149.114,149.114,0,0,1,94.475,252.56c41.588-15.59,81.085-9.073,122.278-2.642,37.98,5.93,80.363,6.654,113.275-24.118,51.086-47.764,58.031-137.618,105.037-190.863C458.322,8.6,489.5-7.268,520.621-8.586c34.4-1.459,77.488,15.284,94.151,52.955,16.182,36.579-2.021,74,3.124,111.781,10.064,73.889,95.363,66.994,135.633,102.641,19.241,17.034,31.84,42.917,40.244,70.057,9.327,30.124,13.987,63.848,6.406,95.742-12.555,52.833-55.417,73.721-96.742,76.811-30.707,2.3-60.972-6.314-88.785-20.169-24.6-12.254-47.62-28.6-72.827-39.131-62.251-26.005-125.1,11.328-180.316,51.108C290.627,544.275,217.5,593.644,134.582,579.2,71.22,568.168,6.282,522.963-4.23,441.394c-4.447-34.506-1.105-71.335,11.822-103.752Q8.761,334.713,10.028,331.874Z" transform="translate(714.162 120.779) rotate(172)" fill="#f1eaff"/>
    </g>
    <g id="Layer_1" data-name="Layer 1" transform="translate(176.332 753.444)">
      <g id="Grupo_80115" data-name="Grupo 80115" opacity="0.38">
        <path id="Trazado_113548" data-name="Trazado 113548" d="M1230.049-481.712a2.021,2.021,0,0,1,2.022,2.022v13.955a2.021,2.021,0,0,1-2.022,2.022,2.022,2.022,0,0,1-2.022-2.022V-479.69A2.021,2.021,0,0,1,1230.049-481.712Z" transform="translate(-783.627 924.707)" fill="#fff" style="mix-blend-mode: overlay;isolation: isolate"/>
        <path id="Trazado_113549" data-name="Trazado 113549" d="M1211.926-463.589h13.954a2.021,2.021,0,0,1,2.022,2.022,2.021,2.021,0,0,1-2.022,2.022h-13.954a2.021,2.021,0,0,1-2.022-2.022A2.021,2.021,0,0,1,1211.926-463.589Z" transform="translate(-772.482 913.562)" fill="#fff" style="mix-blend-mode: overlay;isolation: isolate"/>
        <path id="Trazado_113550" data-name="Trazado 113550" d="M1139.733-1413.75a1.878,1.878,0,0,1,1.878,1.878v12.965a1.878,1.878,0,0,1-1.878,1.879,1.878,1.878,0,0,1-1.879-1.879v-12.965A1.878,1.878,0,0,1,1139.733-1413.75Z" transform="translate(-728.171 1427.743)" fill="#fff" style="mix-blend-mode: overlay;isolation: isolate"/>
        <path id="Trazado_113551" data-name="Trazado 113551" d="M1122.9-1396.913h12.964a1.878,1.878,0,0,1,1.879,1.878,1.878,1.878,0,0,1-1.879,1.878H1122.9a1.878,1.878,0,0,1-1.879-1.878A1.878,1.878,0,0,1,1122.9-1396.913Z" transform="translate(-717.816 1417.389)" fill="#fff" style="mix-blend-mode: overlay;isolation: isolate"/>
        <path id="Trazado_113552" data-name="Trazado 113552" d="M440.31-410.362a2.023,2.023,0,0,1,2.022,2.022v13.955a2.023,2.023,0,0,1-2.022,2.022,2.022,2.022,0,0,1-2.022-2.022V-408.34A2.022,2.022,0,0,1,440.31-410.362Z" transform="translate(-297.94 880.827)" fill="#fff" style="mix-blend-mode: overlay;isolation: isolate"/>
        <path id="Trazado_113553" data-name="Trazado 113553" d="M422.187-392.239h13.955a2.022,2.022,0,0,1,2.022,2.022,2.023,2.023,0,0,1-2.022,2.022H422.187a2.023,2.023,0,0,1-2.022-2.022A2.022,2.022,0,0,1,422.187-392.239Z" transform="translate(-286.794 869.682)" fill="#fff" style="mix-blend-mode: overlay;isolation: isolate"/>
        <path id="Trazado_113554" data-name="Trazado 113554" d="M971.053-355a6.747,6.747,0,0,1,6.739,6.739,6.747,6.747,0,0,1-6.739,6.739,6.747,6.747,0,0,1-6.739-6.739A6.747,6.747,0,0,1,971.053-355Zm0,9.435a2.7,2.7,0,0,0,2.7-2.7,2.7,2.7,0,0,0-2.7-2.7,2.7,2.7,0,0,0-2.7,2.7A2.7,2.7,0,0,0,971.053-345.566Z" transform="translate(-621.445 846.78)" fill="#fff" style="mix-blend-mode: overlay;isolation: isolate"/>
        <path id="Trazado_113555" data-name="Trazado 113555" d="M1066.636-725.464a4.2,4.2,0,0,1,4.2,4.2,4.2,4.2,0,0,1-4.2,4.2,4.2,4.2,0,0,1-4.2-4.2A4.2,4.2,0,0,1,1066.636-725.464Z" transform="translate(-681.789 1050.325)" fill="#fff" style="mix-blend-mode: overlay;isolation: isolate"/>
        <path id="Trazado_113556" data-name="Trazado 113556" d="M1265.55-1045.928a2.3,2.3,0,0,1,2.292,2.292,2.294,2.294,0,0,1-2.292,2.292,2.294,2.294,0,0,1-2.292-2.292A2.3,2.3,0,0,1,1265.55-1045.928Z" transform="translate(-805.294 1226.895)" fill="#fff" style="mix-blend-mode: overlay;isolation: isolate"/>
        <path id="Trazado_113557" data-name="Trazado 113557" d="M122.664-1450.1a4.2,4.2,0,0,1,4.2,4.2,4.2,4.2,0,0,1-4.2,4.2,4.2,4.2,0,0,1-4.2-4.2A4.2,4.2,0,0,1,122.664-1450.1Z" transform="translate(-101.249 1450.096)" fill="#fff" style="mix-blend-mode: overlay;isolation: isolate"/>
        <path id="Trazado_113558" data-name="Trazado 113558" d="M77.95-387.11a4.2,4.2,0,0,1,4.2,4.2,4.2,4.2,0,0,1-4.2,4.2,4.2,4.2,0,0,1-4.2-4.2A4.2,4.2,0,0,1,77.95-387.11Z" transform="translate(-73.75 866.527)" fill="#fff" style="mix-blend-mode: overlay;isolation: isolate"/>
        <circle id="Elipse_4717" data-name="Elipse 4717" cx="3.798" cy="3.798" r="3.798" transform="translate(201.704 14.951) rotate(-45)" fill="#fff" style="mix-blend-mode: overlay;isolation: isolate"/>
      </g>
    </g>
  </g>
</svg>
