<svg xmlns="http://www.w3.org/2000/svg" xmlns:xlink="http://www.w3.org/1999/xlink" width="1013.606" height="415.079" viewBox="0 0 1013.606 415.079">
  <defs>
    <clipPath id="clip-path">
      <rect id="Rectángulo_340486" data-name="Rectángulo 340486" width="59.038" height="71.974" fill="none"/>
    </clipPath>
    <clipPath id="clip-path-2">
      <rect id="Rectángulo_340487" data-name="Rectángulo 340487" width="57.59" height="77.674" fill="none"/>
    </clipPath>
    <clipPath id="clip-path-3">
      <rect id="Rectángulo_340488" data-name="Rectángulo 340488" width="83.477" height="83.465" fill="none"/>
    </clipPath>
  </defs>
  <g id="Grupo_914849" data-name="Grupo 914849" transform="translate(-286.035 -913.718)">
    <rect id="Rectángulo_337024" data-name="Rectángulo 337024" width="179" height="125" rx="6" transform="translate(304 1072)" fill="#ff6d4b"/>
    <path id="Trazado_255076" data-name="Trazado 255076" d="M7036-10759.6v-36.575s-.455-9.572,13.143-9.827,183.162,0,183.162,0,16.211.414,16.436,15.668,0,32.8,0,32.8h21.969" transform="translate(-6748.457 11865)" fill="none" stroke="#ff6d4b" stroke-width="3"/>
    <path id="Trazado_255077" data-name="Trazado 255077" d="M7036-10854.051v86.575s-.455,9.572,13.143,9.827,183.162,0,183.162,0,16.211-.414,16.436-15.668,0-80.8,0-80.8" transform="translate(-6748.457 11970)" fill="none" stroke="#ff6d4b" stroke-width="3" stroke-dasharray="6 9"/>
    <g id="Polígono_5" data-name="Polígono 5" transform="translate(533.252 1101.465) rotate(90)" fill="#ff6d4b">
      <path d="M 11.15772438049316 10.5 L 0.8422754406929016 10.5 L 6 1.044171690940857 L 11.15772438049316 10.5 Z" stroke="none"/>
      <path d="M 6 2.088333129882812 L 1.684545516967773 10 L 10.31545448303223 10 L 6 2.088333129882812 M 6 0 L 12 11 L 0 11 L 6 0 Z" stroke="none" fill="#ff6d4b"/>
    </g>
    <rect id="Rectángulo_337025" data-name="Rectángulo 337025" width="179" height="125" rx="6" transform="translate(554 1018)" fill="#5b4794"/>
    <path id="Trazado_255078" data-name="Trazado 255078" d="M7036-10803.739v42.089s-.455,11.016,13.143,11.309,183.162,0,183.162,0,16.211-.477,16.436-18.029,0-37.745,0-37.745h21.969" transform="translate(-6498.457 11912.677)" fill="none" stroke="#5b4794" stroke-width="3"/>
    <path id="Trazado_255079" data-name="Trazado 255079" d="M7036-10757.6v-86.575s-.455-9.572,13.143-9.827,183.162,0,183.162,0,16.211.414,16.436,15.668,0,80.8,0,80.8" transform="translate(-6498.457 11856)" fill="none" stroke="#5b4794" stroke-width="3" stroke-dasharray="6 9"/>
    <path id="Polígono_6" data-name="Polígono 6" d="M6,0l6,11H0Z" transform="translate(783.252 1100.561) rotate(90)" fill="#5b4794"/>
    <g id="Grupo_912283" data-name="Grupo 912283">
      <rect id="Rectángulo_337026" data-name="Rectángulo 337026" width="179" height="125" rx="6" transform="translate(800 1070)" fill="#00bc9d"/>
      <path id="Trazado_255080" data-name="Trazado 255080" d="M7036-10752.589v-42.089s-.455-11.016,13.143-11.309,183.162,0,183.162,0,16.211.477,16.436,18.029,0,37.745,0,37.745" transform="translate(-6252.457 11856.999)" fill="none" stroke="#00bc9d" stroke-width="3"/>
      <path id="Trazado_255081" data-name="Trazado 255081" d="M7036-10854.051v86.575s-.455,9.572,13.143,9.827,183.162,0,183.162,0,16.211-.414,16.436-15.668,0-80.8,0-80.8" transform="translate(-6252.457 11969)" fill="none" stroke="#00bc9d" stroke-width="3" stroke-dasharray="6 9"/>
    </g>
    <path id="Trazado_285589" data-name="Trazado 285589" d="M5.142,19H2.505V6.2H5.142Zm1.881-4.825a5.731,5.731,0,0,1,1-3.542A3.237,3.237,0,0,1,10.75,9.314a2.913,2.913,0,0,1,2.294,1.037V5.5h2.549V19H13.3l-.123-1.011a2.989,2.989,0,0,1-2.443,1.187,3.228,3.228,0,0,1-2.694-1.323A5.916,5.916,0,0,1,7.023,14.175Zm2.54.189a3.754,3.754,0,0,0,.466,2.051,1.517,1.517,0,0,0,1.354.713,1.7,1.7,0,0,0,1.661-.995V12.375A1.675,1.675,0,0,0,11.4,11.38Q9.563,11.38,9.563,14.364Zm12.375,4.812a4.668,4.668,0,0,1-3.406-1.283,4.561,4.561,0,0,1-1.314-3.419v-.246a5.745,5.745,0,0,1,.554-2.562,4.064,4.064,0,0,1,1.569-1.74,4.4,4.4,0,0,1,2.316-.611,3.947,3.947,0,0,1,3.072,1.23,5,5,0,0,1,1.121,3.489v1.037H19.793a2.36,2.36,0,0,0,.743,1.494,2.245,2.245,0,0,0,1.569.563A2.742,2.742,0,0,0,24.4,16.064l1.248,1.4A3.813,3.813,0,0,1,24.1,18.723,5.075,5.075,0,0,1,21.938,19.176Zm-.29-7.813a1.587,1.587,0,0,0-1.226.512,2.651,2.651,0,0,0-.6,1.466h3.533v-.2a1.891,1.891,0,0,0-.457-1.311A1.638,1.638,0,0,0,21.648,11.362Zm7.98-1.872.079,1.1a3.32,3.32,0,0,1,2.733-1.274,2.759,2.759,0,0,1,2.25.888,4.142,4.142,0,0,1,.756,2.654V19h-2.54V12.918a1.648,1.648,0,0,0-.352-1.173,1.574,1.574,0,0,0-1.169-.365,1.747,1.747,0,0,0-1.608.914V19h-2.54V9.49ZM40.413,7.152V9.49h1.626v1.863H40.413V16.1a1.133,1.133,0,0,0,.2.756,1.015,1.015,0,0,0,.773.229,4.051,4.051,0,0,0,.747-.062v1.925a5.229,5.229,0,0,1-1.538.229,2.425,2.425,0,0,1-2.725-2.7V11.354H36.484V9.49h1.389V7.152ZM46.134,19H43.585V9.49h2.549Zm-2.7-11.971a1.251,1.251,0,0,1,.382-.94,1.648,1.648,0,0,1,2.079,0,1.244,1.244,0,0,1,.387.94,1.247,1.247,0,0,1-.391.949,1.629,1.629,0,0,1-2.065,0A1.247,1.247,0,0,1,43.436,7.029ZM48.841,19V11.354H47.426V9.49h1.415V9.051a3.566,3.566,0,0,1,1.1-2.764,4.438,4.438,0,0,1,3.063-.971,10.16,10.16,0,0,1,2.883.519l-.369,2.1a11.248,11.248,0,0,0-1.336-.33,6.564,6.564,0,0,0-1.02-.075Q51.39,7.53,51.39,9.1V9.49h1.872v1.863H51.39V19Zm8.235,0H54.528V9.49h2.549Zm6.056-1.872a1.666,1.666,0,0,0,1.143-.387,1.355,1.355,0,0,0,.457-1.028h2.382a3.258,3.258,0,0,1-.527,1.771,3.48,3.48,0,0,1-1.419,1.248,4.442,4.442,0,0,1-1.991.444,4.129,4.129,0,0,1-3.217-1.3A5.13,5.13,0,0,1,58.782,14.3v-.167a5.071,5.071,0,0,1,1.169-3.507,4.08,4.08,0,0,1,3.208-1.31A4,4,0,0,1,66.02,10.33a3.594,3.594,0,0,1,1.094,2.7H64.732a1.745,1.745,0,0,0-.457-1.206,1.7,1.7,0,0,0-2.5.183,3.749,3.749,0,0,0-.453,2.1v.264a3.8,3.8,0,0,0,.448,2.113A1.549,1.549,0,0,0,63.132,17.128ZM74.075,19a2.821,2.821,0,0,1-.255-.853,3.073,3.073,0,0,1-2.4,1.028,3.376,3.376,0,0,1-2.316-.809,2.6,2.6,0,0,1-.918-2.039,2.687,2.687,0,0,1,1.121-2.32,5.529,5.529,0,0,1,3.239-.817h1.169v-.545a1.567,1.567,0,0,0-.338-1.055,1.331,1.331,0,0,0-1.068-.4A1.513,1.513,0,0,0,71.3,11.5a1.045,1.045,0,0,0-.365.844H68.4a2.551,2.551,0,0,1,.51-1.529,3.37,3.37,0,0,1,1.441-1.1,5.253,5.253,0,0,1,2.092-.4,4.15,4.15,0,0,1,2.791.883,3.09,3.09,0,0,1,1.033,2.483V16.8a4.546,4.546,0,0,0,.378,2.048V19Zm-2.1-1.767a2.188,2.188,0,0,0,1.037-.25,1.645,1.645,0,0,0,.7-.672V14.676h-.949q-1.907,0-2.03,1.318l-.009.149a1.017,1.017,0,0,0,.334.782A1.3,1.3,0,0,0,71.974,17.233Zm11.584-5.361a6.9,6.9,0,0,0-.914-.07,1.86,1.86,0,0,0-1.89.976V19h-2.54V9.49h2.4l.07,1.134A2.354,2.354,0,0,1,82.8,9.314a2.662,2.662,0,0,1,.791.114Z" transform="translate(351 1164)" fill="#fff"/>
    <path id="Trazado_255082" data-name="Trazado 255082" d="M7702.967-10817.06v-59.355s-.382-7.585,9.248-7.585,58.785.358,58.785.358" transform="translate(-6751 11865)" fill="none" stroke="#00bc9d" stroke-width="3"/>
    <path id="Polígono_7" data-name="Polígono 7" d="M6,0l6,11H0Z" transform="translate(1031 975) rotate(90)" fill="#00bc9d"/>
    <path id="Trazado_255083" data-name="Trazado 255083" d="M7702.968-10884v63.051s-.624,8.058,15.094,8.058,95.938-.381,95.938-.381" transform="translate(-6751 12095.464)" fill="none" stroke="#00bc9d" stroke-width="3"/>
    <path id="Polígono_8" data-name="Polígono 8" d="M6,0l6,11H0Z" transform="translate(1074 1276.573) rotate(90)" fill="#00bc9d"/>
    <rect id="Rectángulo_337027" data-name="Rectángulo 337027" width="179" height="125" rx="6" transform="translate(1102 1185.846)" fill="#7c7efc"/>
    <path id="Trazado_255084" data-name="Trazado 255084" d="M7036-10752.589v-42.089s-.455-11.016,13.143-11.309,183.162,0,183.162,0,16.211.477,16.436,18.029,0,37.745,0,37.745" transform="translate(-5950.709 11972.844)" fill="none" stroke="#7c7efc" stroke-width="3"/>
    <path id="Trazado_255085" data-name="Trazado 255085" d="M7036-10854.051v86.575s-.455,9.572,13.143,9.827,183.162,0,183.162,0,16.211-.414,16.436-15.668,0-80.8,0-80.8" transform="translate(-5950.709 12084.846)" fill="none" stroke="#7c7efc" stroke-width="3" stroke-dasharray="6 9"/>
    <rect id="Rectángulo_337028" data-name="Rectángulo 337028" width="179" height="125" rx="6" transform="translate(1059 931.669)" fill="#ffb300"/>
    <path id="Trazado_255086" data-name="Trazado 255086" d="M7036-10803.739v42.089s-.455,11.016,13.143,11.309,183.162,0,183.162,0,16.211-.477,16.436-18.029,0-37.745,0-37.745" transform="translate(-5993.709 11825.999)" fill="none" stroke="#ffb300" stroke-width="3"/>
    <path id="Trazado_255087" data-name="Trazado 255087" d="M7036-10757.6v-86.575s-.455-9.572,13.143-9.827,183.162,0,183.162,0,16.211.414,16.436,15.668,0,80.8,0,80.8" transform="translate(-5993.709 11769.321)" fill="none" stroke="#ffb300" stroke-width="3" stroke-dasharray="6 9"/>
    <path id="Trazado_285588" data-name="Trazado 285588" d="M15.694,14.737a4.528,4.528,0,0,1-1.525,3.252,5.355,5.355,0,0,1-3.625,1.187,4.816,4.816,0,0,1-3.872-1.657,6.793,6.793,0,0,1-1.411-4.548v-.782a7.671,7.671,0,0,1,.65-3.252A4.874,4.874,0,0,1,7.771,6.779a5.207,5.207,0,0,1,2.808-.751,5.217,5.217,0,0,1,3.568,1.187,4.866,4.866,0,0,1,1.564,3.331H13.075a2.673,2.673,0,0,0-.69-1.8,2.555,2.555,0,0,0-1.806-.558,2.24,2.24,0,0,0-1.973.945,5.3,5.3,0,0,0-.672,2.931v.967a5.667,5.667,0,0,0,.628,3.032,2.2,2.2,0,0,0,1.982.958,2.6,2.6,0,0,0,1.824-.558,2.521,2.521,0,0,0,.69-1.727Zm7.26,3.3a3.185,3.185,0,0,1-2.6,1.143,3,3,0,0,1-2.333-.879,3.752,3.752,0,0,1-.822-2.575V9.49h2.54v6.151q0,1.487,1.354,1.487a1.834,1.834,0,0,0,1.775-.9V9.49h2.549V19H23.024ZM32.841,19a2.821,2.821,0,0,1-.255-.853,3.073,3.073,0,0,1-2.4,1.028,3.376,3.376,0,0,1-2.316-.809,2.6,2.6,0,0,1-.918-2.039,2.687,2.687,0,0,1,1.121-2.32,5.529,5.529,0,0,1,3.239-.817h1.169v-.545a1.567,1.567,0,0,0-.338-1.055,1.331,1.331,0,0,0-1.068-.4,1.513,1.513,0,0,0-1.006.308,1.045,1.045,0,0,0-.365.844h-2.54a2.551,2.551,0,0,1,.51-1.529,3.37,3.37,0,0,1,1.441-1.1,5.253,5.253,0,0,1,2.092-.4A4.15,4.15,0,0,1,34,10.2a3.09,3.09,0,0,1,1.033,2.483V16.8a4.546,4.546,0,0,0,.378,2.048V19Zm-2.1-1.767a2.188,2.188,0,0,0,1.037-.25,1.645,1.645,0,0,0,.7-.672V14.676h-.949q-1.907,0-2.03,1.318l-.009.149a1.017,1.017,0,0,0,.334.782A1.3,1.3,0,0,0,30.741,17.233ZM39.319,9.49l.079,1.1a3.32,3.32,0,0,1,2.733-1.274,2.759,2.759,0,0,1,2.25.888,4.142,4.142,0,0,1,.756,2.654V19H42.6V12.918a1.648,1.648,0,0,0-.352-1.173,1.574,1.574,0,0,0-1.169-.365,1.747,1.747,0,0,0-1.608.914V19h-2.54V9.49ZM50.1,7.152V9.49h1.626v1.863H50.1V16.1a1.133,1.133,0,0,0,.2.756,1.015,1.015,0,0,0,.773.229,4.051,4.051,0,0,0,.747-.062v1.925a5.229,5.229,0,0,1-1.538.229,2.425,2.425,0,0,1-2.725-2.7V11.354H46.174V9.49h1.389V7.152ZM55.825,19H53.276V9.49h2.549Zm-2.7-11.971a1.251,1.251,0,0,1,.382-.94,1.648,1.648,0,0,1,2.079,0,1.244,1.244,0,0,1,.387.94,1.247,1.247,0,0,1-.391.949,1.629,1.629,0,0,1-2.065,0A1.247,1.247,0,0,1,53.126,7.029ZM58.532,19V11.354H57.117V9.49h1.415V9.051a3.566,3.566,0,0,1,1.1-2.764A4.438,4.438,0,0,1,62.7,5.315a10.16,10.16,0,0,1,2.883.519l-.369,2.1a11.248,11.248,0,0,0-1.336-.33,6.564,6.564,0,0,0-1.02-.075q-1.775,0-1.775,1.573V9.49h1.872v1.863H61.081V19Zm8.235,0H64.218V9.49h2.549Zm6.056-1.872a1.666,1.666,0,0,0,1.143-.387,1.355,1.355,0,0,0,.457-1.028H76.8a3.258,3.258,0,0,1-.527,1.771,3.48,3.48,0,0,1-1.419,1.248,4.442,4.442,0,0,1-1.991.444,4.129,4.129,0,0,1-3.217-1.3A5.13,5.13,0,0,1,68.472,14.3v-.167a5.071,5.071,0,0,1,1.169-3.507,4.08,4.08,0,0,1,3.208-1.31A4,4,0,0,1,75.71,10.33a3.594,3.594,0,0,1,1.094,2.7H74.422a1.745,1.745,0,0,0-.457-1.206,1.7,1.7,0,0,0-2.5.183,3.749,3.749,0,0,0-.453,2.1v.264a3.8,3.8,0,0,0,.448,2.113A1.549,1.549,0,0,0,72.823,17.128ZM83.765,19a2.821,2.821,0,0,1-.255-.853,3.073,3.073,0,0,1-2.4,1.028,3.376,3.376,0,0,1-2.316-.809,2.6,2.6,0,0,1-.918-2.039A2.687,2.687,0,0,1,79,14.008a5.529,5.529,0,0,1,3.239-.817H83.4v-.545a1.567,1.567,0,0,0-.338-1.055A1.331,1.331,0,0,0,82,11.2a1.513,1.513,0,0,0-1.006.308,1.045,1.045,0,0,0-.365.844h-2.54a2.551,2.551,0,0,1,.51-1.529,3.37,3.37,0,0,1,1.441-1.1,5.253,5.253,0,0,1,2.092-.4,4.15,4.15,0,0,1,2.791.883,3.09,3.09,0,0,1,1.033,2.483V16.8a4.546,4.546,0,0,0,.378,2.048V19Zm-2.1-1.767a2.188,2.188,0,0,0,1.037-.25,1.645,1.645,0,0,0,.7-.672V14.676h-.949q-1.907,0-2.03,1.318l-.009.149a1.017,1.017,0,0,0,.334.782A1.3,1.3,0,0,0,81.665,17.233Zm11.584-5.361a6.9,6.9,0,0,0-.914-.07,1.86,1.86,0,0,0-1.89.976V19H87.9V9.49h2.4l.07,1.134a2.354,2.354,0,0,1,2.118-1.31,2.662,2.662,0,0,1,.791.114Z" transform="translate(595 1111)" fill="#fff"/>
    <path id="Trazado_285587" data-name="Trazado 285587" d="M16.431,14.737a4.528,4.528,0,0,1-1.525,3.252,5.355,5.355,0,0,1-3.625,1.187,4.816,4.816,0,0,1-3.872-1.657A6.793,6.793,0,0,1,6,12.971v-.782a7.671,7.671,0,0,1,.65-3.252A4.874,4.874,0,0,1,8.507,6.779a5.207,5.207,0,0,1,2.808-.751,5.217,5.217,0,0,1,3.568,1.187,4.866,4.866,0,0,1,1.564,3.331H13.812a2.673,2.673,0,0,0-.69-1.8,2.555,2.555,0,0,0-1.806-.558,2.24,2.24,0,0,0-1.973.945,5.3,5.3,0,0,0-.672,2.931v.967A5.667,5.667,0,0,0,9.3,16.064a2.2,2.2,0,0,0,1.982.958,2.6,2.6,0,0,0,1.824-.558,2.521,2.521,0,0,0,.69-1.727ZM23.506,19a2.821,2.821,0,0,1-.255-.853,3.073,3.073,0,0,1-2.4,1.028,3.376,3.376,0,0,1-2.316-.809,2.6,2.6,0,0,1-.918-2.039,2.687,2.687,0,0,1,1.121-2.32,5.529,5.529,0,0,1,3.239-.817h1.169v-.545a1.567,1.567,0,0,0-.338-1.055,1.331,1.331,0,0,0-1.068-.4,1.513,1.513,0,0,0-1.006.308,1.045,1.045,0,0,0-.365.844h-2.54a2.551,2.551,0,0,1,.51-1.529,3.37,3.37,0,0,1,1.441-1.1,5.253,5.253,0,0,1,2.092-.4,4.15,4.15,0,0,1,2.791.883,3.09,3.09,0,0,1,1.033,2.483V16.8a4.546,4.546,0,0,0,.378,2.048V19Zm-2.1-1.767a2.188,2.188,0,0,0,1.037-.25,1.645,1.645,0,0,0,.7-.672V14.676H22.2q-1.907,0-2.03,1.318l-.009.149a1.017,1.017,0,0,0,.334.782A1.3,1.3,0,0,0,21.405,17.233ZM30.326,19H27.777V5.5h2.549ZM35.1,19H32.55V9.49H35.1ZM32.4,7.029a1.251,1.251,0,0,1,.382-.94,1.648,1.648,0,0,1,2.079,0,1.244,1.244,0,0,1,.387.94,1.247,1.247,0,0,1-.391.949,1.629,1.629,0,0,1-2.065,0A1.247,1.247,0,0,1,32.4,7.029ZM37.806,19V11.354H36.391V9.49h1.415V9.051a3.566,3.566,0,0,1,1.1-2.764,4.438,4.438,0,0,1,3.063-.971,10.16,10.16,0,0,1,2.883.519l-.369,2.1a11.248,11.248,0,0,0-1.336-.33,6.564,6.564,0,0,0-1.02-.075q-1.775,0-1.775,1.573V9.49h1.872v1.863H40.354V19Zm8.235,0H43.492V9.49h2.549ZM52.1,17.128a1.666,1.666,0,0,0,1.143-.387,1.355,1.355,0,0,0,.457-1.028h2.382a3.258,3.258,0,0,1-.527,1.771,3.48,3.48,0,0,1-1.419,1.248,4.442,4.442,0,0,1-1.991.444,4.129,4.129,0,0,1-3.217-1.3A5.13,5.13,0,0,1,47.746,14.3v-.167a5.071,5.071,0,0,1,1.169-3.507,4.08,4.08,0,0,1,3.208-1.31,4,4,0,0,1,2.861,1.015,3.594,3.594,0,0,1,1.094,2.7H53.7a1.745,1.745,0,0,0-.457-1.206,1.7,1.7,0,0,0-2.5.183,3.749,3.749,0,0,0-.453,2.1v.264a3.8,3.8,0,0,0,.448,2.113A1.549,1.549,0,0,0,52.1,17.128ZM63.039,19a2.821,2.821,0,0,1-.255-.853,3.073,3.073,0,0,1-2.4,1.028,3.376,3.376,0,0,1-2.316-.809,2.6,2.6,0,0,1-.918-2.039,2.687,2.687,0,0,1,1.121-2.32,5.529,5.529,0,0,1,3.239-.817h1.169v-.545a1.567,1.567,0,0,0-.338-1.055,1.331,1.331,0,0,0-1.068-.4,1.513,1.513,0,0,0-1.006.308,1.045,1.045,0,0,0-.365.844h-2.54a2.551,2.551,0,0,1,.51-1.529,3.37,3.37,0,0,1,1.441-1.1,5.253,5.253,0,0,1,2.092-.4,4.15,4.15,0,0,1,2.791.883,3.09,3.09,0,0,1,1.033,2.483V16.8a4.546,4.546,0,0,0,.378,2.048V19Zm-2.1-1.767a2.188,2.188,0,0,0,1.037-.25,1.645,1.645,0,0,0,.7-.672V14.676h-.949q-1.907,0-2.03,1.318l-.009.149a1.017,1.017,0,0,0,.334.782A1.3,1.3,0,0,0,60.938,17.233Zm11.584-5.361a6.9,6.9,0,0,0-.914-.07,1.86,1.86,0,0,0-1.89.976V19h-2.54V9.49h2.4l.07,1.134a2.354,2.354,0,0,1,2.118-1.31,2.662,2.662,0,0,1,.791.114Zm10.081,7.3A4.668,4.668,0,0,1,79.2,17.893a4.561,4.561,0,0,1-1.314-3.419v-.246a5.745,5.745,0,0,1,.554-2.562,4.064,4.064,0,0,1,1.569-1.74,4.4,4.4,0,0,1,2.316-.611,3.947,3.947,0,0,1,3.072,1.23,5,5,0,0,1,1.121,3.489v1.037H80.459a2.36,2.36,0,0,0,.743,1.494,2.245,2.245,0,0,0,1.569.563,2.742,2.742,0,0,0,2.294-1.063l1.248,1.4a3.813,3.813,0,0,1-1.547,1.261A5.075,5.075,0,0,1,82.6,19.176Zm-.29-7.813a1.587,1.587,0,0,0-1.226.512,2.651,2.651,0,0,0-.6,1.466h3.533v-.2a1.891,1.891,0,0,0-.457-1.311A1.638,1.638,0,0,0,82.313,11.362ZM90.637,19H88.088V5.5h2.549Zm9.255,0H97.343V9.49h2.549Zm-2.7-11.971a1.251,1.251,0,0,1,.382-.94,1.648,1.648,0,0,1,2.079,0,1.244,1.244,0,0,1,.387.94,1.247,1.247,0,0,1-.391.949,1.629,1.629,0,0,1-2.065,0A1.247,1.247,0,0,1,97.193,7.029Zm7.172,2.461.079,1.063a3.342,3.342,0,0,1,2.733-1.239,2.536,2.536,0,0,1,2.522,1.45,3.265,3.265,0,0,1,2.856-1.45,2.836,2.836,0,0,1,2.3.9,4.141,4.141,0,0,1,.756,2.711V19h-2.549V12.936a1.811,1.811,0,0,0-.316-1.182,1.4,1.4,0,0,0-1.116-.374,1.585,1.585,0,0,0-1.582,1.09l.009,6.53h-2.54V12.944a1.789,1.789,0,0,0-.325-1.2,1.416,1.416,0,0,0-1.107-.369,1.646,1.646,0,0,0-1.564.9V19h-2.54V9.49Zm21.762,4.843a5.7,5.7,0,0,1-1,3.52,3.2,3.2,0,0,1-2.694,1.323,2.963,2.963,0,0,1-2.329-1v4.482h-2.54V9.49h2.355l.088.932a2.985,2.985,0,0,1,2.408-1.107,3.22,3.22,0,0,1,2.733,1.3,5.858,5.858,0,0,1,.976,3.586Zm-2.54-.185a3.743,3.743,0,0,0-.47-2.048,1.532,1.532,0,0,0-1.367-.721,1.663,1.663,0,0,0-1.644.914v3.894a1.692,1.692,0,0,0,1.661.94Q123.587,17.128,123.587,14.148ZM133.211,19a2.821,2.821,0,0,1-.255-.853,3.073,3.073,0,0,1-2.4,1.028,3.376,3.376,0,0,1-2.316-.809,2.6,2.6,0,0,1-.918-2.039,2.687,2.687,0,0,1,1.121-2.32,5.529,5.529,0,0,1,3.239-.817h1.169v-.545a1.567,1.567,0,0,0-.338-1.055,1.331,1.331,0,0,0-1.068-.4,1.513,1.513,0,0,0-1.006.308,1.045,1.045,0,0,0-.365.844h-2.54a2.551,2.551,0,0,1,.51-1.529,3.37,3.37,0,0,1,1.441-1.1,5.253,5.253,0,0,1,2.092-.4,4.15,4.15,0,0,1,2.791.883,3.09,3.09,0,0,1,1.033,2.483V16.8a4.546,4.546,0,0,0,.378,2.048V19Zm-2.1-1.767a2.188,2.188,0,0,0,1.037-.25,1.645,1.645,0,0,0,.7-.672V14.676H131.9q-1.907,0-2.03,1.318l-.009.149a1.017,1.017,0,0,0,.334.782A1.3,1.3,0,0,0,131.11,17.233Zm10.2-.105a1.666,1.666,0,0,0,1.143-.387,1.355,1.355,0,0,0,.457-1.028h2.382a3.258,3.258,0,0,1-.527,1.771,3.48,3.48,0,0,1-1.419,1.248,4.442,4.442,0,0,1-1.991.444,4.129,4.129,0,0,1-3.217-1.3,5.13,5.13,0,0,1-1.178-3.582v-.167a5.071,5.071,0,0,1,1.169-3.507,4.08,4.08,0,0,1,3.208-1.31,4,4,0,0,1,2.861,1.015,3.594,3.594,0,0,1,1.094,2.7h-2.382a1.745,1.745,0,0,0-.457-1.206,1.7,1.7,0,0,0-2.5.183,3.749,3.749,0,0,0-.453,2.1v.264a3.8,3.8,0,0,0,.448,2.113A1.549,1.549,0,0,0,141.306,17.128Zm8.473-9.976V9.49H151.4v1.863h-1.626V16.1a1.133,1.133,0,0,0,.2.756,1.015,1.015,0,0,0,.773.229,4.051,4.051,0,0,0,.747-.062v1.925a5.229,5.229,0,0,1-1.538.229,2.425,2.425,0,0,1-2.725-2.7V11.354H145.85V9.49h1.389V7.152Zm2.382,7a5.64,5.64,0,0,1,.545-2.522,3.989,3.989,0,0,1,1.569-1.714,4.577,4.577,0,0,1,2.377-.606,4.33,4.33,0,0,1,3.142,1.178,4.727,4.727,0,0,1,1.358,3.2l.018.65a4.97,4.97,0,0,1-1.222,3.511,4.735,4.735,0,0,1-6.561,0,5.058,5.058,0,0,1-1.226-3.586Zm2.54.18a3.555,3.555,0,0,0,.51,2.073,1.831,1.831,0,0,0,2.9.009,3.89,3.89,0,0,0,.519-2.267,3.519,3.519,0,0,0-.519-2.06,1.686,1.686,0,0,0-1.459-.731,1.658,1.658,0,0,0-1.441.726A3.955,3.955,0,0,0,154.7,14.338Z" transform="translate(805 1158)" fill="#fff"/>
    <path id="Trazado_285586" data-name="Trazado 285586" d="M11.875,16.363H7.252L6.373,19h-2.8L8.333,6.2h2.443L15.566,19h-2.8ZM7.964,14.228h3.2L9.555,9.438Zm12.586,2.9a1.666,1.666,0,0,0,1.143-.387,1.355,1.355,0,0,0,.457-1.028h2.382A3.258,3.258,0,0,1,24,17.484a3.48,3.48,0,0,1-1.419,1.248,4.442,4.442,0,0,1-1.991.444,4.129,4.129,0,0,1-3.217-1.3A5.13,5.13,0,0,1,16.2,14.3v-.167a5.071,5.071,0,0,1,1.169-3.507,4.08,4.08,0,0,1,3.208-1.31,4,4,0,0,1,2.861,1.015,3.594,3.594,0,0,1,1.094,2.7H22.149a1.745,1.745,0,0,0-.457-1.206,1.7,1.7,0,0,0-2.5.183,3.749,3.749,0,0,0-.453,2.1v.264a3.8,3.8,0,0,0,.448,2.113A1.549,1.549,0,0,0,20.55,17.128Zm9.809,2.048a4.668,4.668,0,0,1-3.406-1.283,4.561,4.561,0,0,1-1.314-3.419v-.246a5.745,5.745,0,0,1,.554-2.562,4.064,4.064,0,0,1,1.569-1.74,4.4,4.4,0,0,1,2.316-.611,3.947,3.947,0,0,1,3.072,1.23,5,5,0,0,1,1.121,3.489v1.037H28.214a2.36,2.36,0,0,0,.743,1.494,2.245,2.245,0,0,0,1.569.563,2.742,2.742,0,0,0,2.294-1.063l1.248,1.4a3.813,3.813,0,0,1-1.547,1.261A5.075,5.075,0,0,1,30.358,19.176Zm-.29-7.813a1.587,1.587,0,0,0-1.226.512,2.651,2.651,0,0,0-.6,1.466h3.533v-.2a1.891,1.891,0,0,0-.457-1.311A1.638,1.638,0,0,0,30.068,11.362Zm14.2,2.971a5.7,5.7,0,0,1-1,3.52,3.2,3.2,0,0,1-2.694,1.323,2.963,2.963,0,0,1-2.329-1v4.482h-2.54V9.49h2.355l.088.932a2.985,2.985,0,0,1,2.408-1.107,3.22,3.22,0,0,1,2.733,1.3,5.858,5.858,0,0,1,.976,3.586Zm-2.54-.185a3.743,3.743,0,0,0-.47-2.048,1.532,1.532,0,0,0-1.367-.721,1.663,1.663,0,0,0-1.644.914v3.894a1.692,1.692,0,0,0,1.661.94Q41.731,17.128,41.731,14.148Zm7.154-7V9.49h1.626v1.863H48.886V16.1a1.133,1.133,0,0,0,.2.756,1.015,1.015,0,0,0,.773.229,4.051,4.051,0,0,0,.747-.062v1.925a5.229,5.229,0,0,1-1.538.229,2.425,2.425,0,0,1-2.725-2.7V11.354H44.957V9.49h1.389V7.152ZM57.438,19a2.821,2.821,0,0,1-.255-.853,3.073,3.073,0,0,1-2.4,1.028,3.376,3.376,0,0,1-2.316-.809,2.6,2.6,0,0,1-.918-2.039,2.687,2.687,0,0,1,1.121-2.32,5.529,5.529,0,0,1,3.239-.817h1.169v-.545a1.567,1.567,0,0,0-.338-1.055,1.331,1.331,0,0,0-1.068-.4,1.513,1.513,0,0,0-1.006.308,1.045,1.045,0,0,0-.365.844H51.76a2.551,2.551,0,0,1,.51-1.529,3.37,3.37,0,0,1,1.441-1.1,5.253,5.253,0,0,1,2.092-.4,4.15,4.15,0,0,1,2.791.883,3.09,3.09,0,0,1,1.033,2.483V16.8A4.546,4.546,0,0,0,60,18.851V19Zm-2.1-1.767a2.188,2.188,0,0,0,1.037-.25,1.645,1.645,0,0,0,.7-.672V14.676h-.949q-1.907,0-2.03,1.318l-.009.149a1.017,1.017,0,0,0,.334.782A1.3,1.3,0,0,0,55.337,17.233Zm14.81-2.9a5.758,5.758,0,0,1-.976,3.564,3.231,3.231,0,0,1-2.725,1.279,2.969,2.969,0,0,1-2.47-1.187L63.862,19H61.577V5.5h2.54v4.843a2.893,2.893,0,0,1,2.312-1.028,3.258,3.258,0,0,1,2.729,1.279,5.767,5.767,0,0,1,.989,3.6Zm-2.54-.185a3.783,3.783,0,0,0-.457-2.1,1.545,1.545,0,0,0-1.362-.664,1.676,1.676,0,0,0-1.67.993v3.753a1.7,1.7,0,0,0,1.688,1,1.568,1.568,0,0,0,1.617-1.213A6.257,6.257,0,0,0,67.606,14.148ZM74.392,19H71.843V5.5h2.549Zm6.469.176a4.668,4.668,0,0,1-3.406-1.283,4.561,4.561,0,0,1-1.314-3.419v-.246a5.745,5.745,0,0,1,.554-2.562,4.064,4.064,0,0,1,1.569-1.74,4.4,4.4,0,0,1,2.316-.611,3.947,3.947,0,0,1,3.072,1.23,5,5,0,0,1,1.121,3.489v1.037H78.716a2.36,2.36,0,0,0,.743,1.494,2.245,2.245,0,0,0,1.569.563,2.742,2.742,0,0,0,2.294-1.063l1.248,1.4a3.813,3.813,0,0,1-1.547,1.261A5.075,5.075,0,0,1,80.86,19.176Zm-.29-7.813a1.587,1.587,0,0,0-1.226.512,2.651,2.651,0,0,0-.6,1.466h3.533v-.2a1.891,1.891,0,0,0-.457-1.311A1.638,1.638,0,0,0,80.57,11.362Zm10.793,5.01a.818.818,0,0,0-.461-.734,5.241,5.241,0,0,0-1.481-.479q-3.393-.712-3.393-2.883a2.613,2.613,0,0,1,1.05-2.114,4.237,4.237,0,0,1,2.747-.848,4.56,4.56,0,0,1,2.9.853,2.687,2.687,0,0,1,1.085,2.215h-2.54a1.229,1.229,0,0,0-.352-.9,1.488,1.488,0,0,0-1.1-.356,1.52,1.52,0,0,0-.993.29.916.916,0,0,0-.352.738.783.783,0,0,0,.4.681,4.114,4.114,0,0,0,1.349.448,11.019,11.019,0,0,1,1.6.426,2.628,2.628,0,0,1,2.013,2.558,2.481,2.481,0,0,1-1.116,2.1,4.815,4.815,0,0,1-2.883.8,5.029,5.029,0,0,1-2.123-.426,3.561,3.561,0,0,1-1.455-1.169,2.716,2.716,0,0,1-.527-1.6h2.408a1.326,1.326,0,0,0,.5,1.037,1.987,1.987,0,0,0,1.248.36,1.839,1.839,0,0,0,1.1-.277A.861.861,0,0,0,91.363,16.372Z" transform="translate(1102 1024)" fill="#fff"/>
    <path id="Trazado_285585" data-name="Trazado 285585" d="M6.521,19H3.884V6.2H6.521Zm4.614-9.51.079,1.1a3.32,3.32,0,0,1,2.733-1.274,2.759,2.759,0,0,1,2.25.888,4.142,4.142,0,0,1,.756,2.654V19h-2.54V12.918a1.648,1.648,0,0,0-.352-1.173,1.574,1.574,0,0,0-1.169-.365,1.747,1.747,0,0,0-1.608.914V19H8.744V9.49ZM24.389,19a2.821,2.821,0,0,1-.255-.853,3.073,3.073,0,0,1-2.4,1.028,3.376,3.376,0,0,1-2.316-.809,2.6,2.6,0,0,1-.918-2.039,2.687,2.687,0,0,1,1.121-2.32,5.529,5.529,0,0,1,3.239-.817h1.169v-.545a1.567,1.567,0,0,0-.338-1.055,1.331,1.331,0,0,0-1.068-.4,1.513,1.513,0,0,0-1.006.308,1.045,1.045,0,0,0-.365.844h-2.54a2.551,2.551,0,0,1,.51-1.529,3.37,3.37,0,0,1,1.441-1.1,5.253,5.253,0,0,1,2.092-.4,4.15,4.15,0,0,1,2.791.883,3.09,3.09,0,0,1,1.033,2.483V16.8a4.546,4.546,0,0,0,.378,2.048V19Zm-2.1-1.767a2.188,2.188,0,0,0,1.037-.25,1.645,1.645,0,0,0,.7-.672V14.676h-.949q-1.907,0-2.03,1.318l-.009.149a1.017,1.017,0,0,0,.334.782A1.3,1.3,0,0,0,22.288,17.233Zm10.2-.105a1.666,1.666,0,0,0,1.143-.387,1.355,1.355,0,0,0,.457-1.028h2.382a3.258,3.258,0,0,1-.527,1.771,3.48,3.48,0,0,1-1.419,1.248,4.442,4.442,0,0,1-1.991.444,4.129,4.129,0,0,1-3.217-1.3A5.13,5.13,0,0,1,28.133,14.3v-.167A5.071,5.071,0,0,1,29.3,10.624a4.08,4.08,0,0,1,3.208-1.31,4,4,0,0,1,2.861,1.015,3.594,3.594,0,0,1,1.094,2.7H34.083a1.745,1.745,0,0,0-.457-1.206,1.7,1.7,0,0,0-2.5.183,3.749,3.749,0,0,0-.453,2.1v.264a3.8,3.8,0,0,0,.448,2.113A1.549,1.549,0,0,0,32.483,17.128Zm9.809,2.048a4.668,4.668,0,0,1-3.406-1.283,4.561,4.561,0,0,1-1.314-3.419v-.246a5.745,5.745,0,0,1,.554-2.562,4.064,4.064,0,0,1,1.569-1.74,4.4,4.4,0,0,1,2.316-.611,3.947,3.947,0,0,1,3.072,1.23A5,5,0,0,1,46.2,14.034v1.037H40.147a2.36,2.36,0,0,0,.743,1.494,2.245,2.245,0,0,0,1.569.563,2.742,2.742,0,0,0,2.294-1.063L46,17.462a3.813,3.813,0,0,1-1.547,1.261A5.075,5.075,0,0,1,42.292,19.176ZM42,11.362a1.587,1.587,0,0,0-1.226.512,2.651,2.651,0,0,0-.6,1.466h3.533v-.2a1.891,1.891,0,0,0-.457-1.311A1.638,1.638,0,0,0,42,11.362Zm14.2,2.971a5.7,5.7,0,0,1-1,3.52,3.2,3.2,0,0,1-2.694,1.323,2.963,2.963,0,0,1-2.329-1v4.482h-2.54V9.49H50l.088.932A2.985,2.985,0,0,1,52.5,9.314a3.22,3.22,0,0,1,2.733,1.3,5.858,5.858,0,0,1,.976,3.586Zm-2.54-.185a3.743,3.743,0,0,0-.47-2.048,1.532,1.532,0,0,0-1.367-.721,1.663,1.663,0,0,0-1.644.914v3.894a1.692,1.692,0,0,0,1.661.94Q53.665,17.128,53.665,14.148Zm7.154-7V9.49h1.626v1.863H60.819V16.1a1.133,1.133,0,0,0,.2.756,1.015,1.015,0,0,0,.773.229,4.051,4.051,0,0,0,.747-.062v1.925A5.229,5.229,0,0,1,61,19.176a2.425,2.425,0,0,1-2.725-2.7V11.354H56.891V9.49h1.389V7.152ZM69.371,19a2.821,2.821,0,0,1-.255-.853,3.073,3.073,0,0,1-2.4,1.028,3.376,3.376,0,0,1-2.316-.809,2.6,2.6,0,0,1-.918-2.039,2.687,2.687,0,0,1,1.121-2.32,5.529,5.529,0,0,1,3.239-.817h1.169v-.545a1.567,1.567,0,0,0-.338-1.055,1.331,1.331,0,0,0-1.068-.4A1.513,1.513,0,0,0,66.6,11.5a1.045,1.045,0,0,0-.365.844h-2.54a2.551,2.551,0,0,1,.51-1.529,3.37,3.37,0,0,1,1.441-1.1,5.253,5.253,0,0,1,2.092-.4,4.15,4.15,0,0,1,2.791.883,3.09,3.09,0,0,1,1.033,2.483V16.8a4.546,4.546,0,0,0,.378,2.048V19Zm-2.1-1.767a2.188,2.188,0,0,0,1.037-.25,1.645,1.645,0,0,0,.7-.672V14.676h-.949q-1.907,0-2.03,1.318l-.009.149a1.017,1.017,0,0,0,.334.782A1.3,1.3,0,0,0,67.271,17.233Zm14.81-2.9A5.758,5.758,0,0,1,81.1,17.9a3.231,3.231,0,0,1-2.725,1.279,2.969,2.969,0,0,1-2.47-1.187L75.8,19H73.511V5.5h2.54v4.843a2.893,2.893,0,0,1,2.312-1.028,3.258,3.258,0,0,1,2.729,1.279,5.767,5.767,0,0,1,.989,3.6Zm-2.54-.185a3.783,3.783,0,0,0-.457-2.1,1.545,1.545,0,0,0-1.362-.664,1.676,1.676,0,0,0-1.67.993v3.753a1.7,1.7,0,0,0,1.688,1,1.568,1.568,0,0,0,1.617-1.213A6.257,6.257,0,0,0,79.54,14.148ZM86.325,19H83.776V5.5h2.549Zm6.469.176a4.668,4.668,0,0,1-3.406-1.283,4.561,4.561,0,0,1-1.314-3.419v-.246a5.745,5.745,0,0,1,.554-2.562A4.064,4.064,0,0,1,90.2,9.925a4.4,4.4,0,0,1,2.316-.611,3.947,3.947,0,0,1,3.072,1.23,5,5,0,0,1,1.121,3.489v1.037H90.649a2.36,2.36,0,0,0,.743,1.494,2.245,2.245,0,0,0,1.569.563,2.742,2.742,0,0,0,2.294-1.063l1.248,1.4a3.813,3.813,0,0,1-1.547,1.261A5.075,5.075,0,0,1,92.794,19.176Zm-.29-7.813a1.587,1.587,0,0,0-1.226.512,2.651,2.651,0,0,0-.6,1.466h3.533v-.2a1.891,1.891,0,0,0-.457-1.311A1.638,1.638,0,0,0,92.5,11.362Zm10.793,5.01a.818.818,0,0,0-.461-.734,5.241,5.241,0,0,0-1.481-.479q-3.393-.712-3.393-2.883a2.613,2.613,0,0,1,1.05-2.114,4.237,4.237,0,0,1,2.747-.848,4.56,4.56,0,0,1,2.9.853,2.687,2.687,0,0,1,1.085,2.215H103.2a1.229,1.229,0,0,0-.352-.9,1.488,1.488,0,0,0-1.1-.356,1.52,1.52,0,0,0-.993.29.916.916,0,0,0-.352.738.783.783,0,0,0,.4.681,4.114,4.114,0,0,0,1.349.448,11.019,11.019,0,0,1,1.6.426,2.628,2.628,0,0,1,2.013,2.558,2.481,2.481,0,0,1-1.116,2.1,4.815,4.815,0,0,1-2.883.8,5.029,5.029,0,0,1-2.123-.426,3.561,3.561,0,0,1-1.455-1.169,2.716,2.716,0,0,1-.527-1.6h2.408a1.326,1.326,0,0,0,.5,1.037,1.987,1.987,0,0,0,1.248.36,1.839,1.839,0,0,0,1.1-.277A.861.861,0,0,0,103.3,16.372Z" transform="translate(1138 1280)" fill="#fff"/>
    <g id="Grupo_912249" data-name="Grupo 912249" transform="translate(861.328 1079.537)">
      <g id="Grupo_912248" data-name="Grupo 912248" transform="translate(0 0)" clip-path="url(#clip-path)">
        <path id="Trazado_280808" data-name="Trazado 280808" d="M.031,35.943C.031,25.257.064,14.569,0,3.883A3.861,3.861,0,0,1,3.894,0Q28.8.074,53.708,0a3.81,3.81,0,0,1,3.881,3.889c-.1,2.743-.018,5.492-.032,8.239a1.3,1.3,0,0,0,.416,1.037,3.647,3.647,0,0,1,.9,3.729c-.389,1.489-.743,2.987-1.116,4.481a6.641,6.641,0,0,0-.2,1.622c.008,15.006-.02,30.013.037,45.019a3.893,3.893,0,0,1-3.972,3.958q-24.832-.083-49.663,0A3.9,3.9,0,0,1,0,68C.07,57.317.031,46.63.031,35.943" transform="translate(0 0)" fill="#fff"/>
        <path id="Trazado_280809" data-name="Trazado 280809" d="M46.749,64.686c1.574-1.446,3.077-2.831,4.586-4.211a1.162,1.162,0,0,0,.309-.656c.4-1.657.813-3.308,1.331-4.952V58.4c0,2.771-.015,5.542.013,8.313.005.522-.118.655-.648.654q-20.934-.024-41.868,0c-.507,0-.662-.1-.661-.638q.023-28.123,0-56.247c0-.591.179-.671.707-.671q20.9.022,41.792,0c.575,0,.684.154.681.7-.024,4.269.017,8.538-.029,12.807A20.024,20.024,0,0,1,52,27.739Q48.335,42.9,44.625,58.053a1.47,1.47,0,0,0,.007.882c.7,1.884,1.388,3.769,2.117,5.751" transform="translate(-2.603 -2.602)" fill="#00bc9d"/>
        <path id="Trazado_280810" data-name="Trazado 280810" d="M53.647,14.093c0-2.7-.012-5.244.011-7.79,0-.479-.108-.617-.606-.617q-23.371.022-46.743,0c-.475,0-.619.1-.619.6q.021,30.562,0,61.125c0,.47.094.622.6.622q23.371-.023,46.743,0c.565,0,.622-.195.622-.678-.015-7.291.006-14.582-.023-21.873a18.618,18.618,0,0,1,.582-5.089c.638-2.313,1.148-4.662,1.828-6.99V68.623c0,1.441-.363,1.8-1.818,1.8H5.087c-1.408,0-1.782-.369-1.782-1.759V5.067c0-1.4.37-1.767,1.773-1.767H54.292c1.36,0,1.751.383,1.751,1.714,0,2.446-.007,4.894.008,7.341,0,.428-.043.66-.569.72a3.435,3.435,0,0,0-1.836,1.018" transform="translate(-0.877 -0.876)" fill="#00bc9d"/>
        <path id="Trazado_280811" data-name="Trazado 280811" d="M61.38,65.046c-1.11-1.409-.619-2.832-.273-4.256q3.965-16.278,7.9-32.562c.184-.766.456-.839,1.125-.644,1.4.406,1.4.372,1.048,1.8Q67.1,46.17,63.049,62.959c-.246,1.021-1.1,1.411-1.668,2.087" transform="translate(-16.104 -7.294)" fill="#00bc9d"/>
        <path id="Trazado_280812" data-name="Trazado 280812" d="M76.023,21.056c-.162.688-.351,1.481-.532,2.277-.052.228-.177.161-.328.124-.553-.132-1.109-.251-1.665-.375-.292-.065-.32-.26-.258-.508.167-.671.284-1.361.509-2.012a1.1,1.1,0,0,1,1.369-.746c.582.123.861.541.905,1.239" transform="translate(-19.425 -5.249)" fill="#00bc9d"/>
        <path id="Trazado_280813" data-name="Trazado 280813" d="M19.415,48.78a8.464,8.464,0,0,1-2.193-.151,3.6,3.6,0,0,1-2.495-3.366q-.012-1.273,0-2.546a3.549,3.549,0,0,1,3.515-3.523q1.272-.013,2.546,0a3.547,3.547,0,0,1,3.523,3.514c.01.824.007,1.647,0,2.471a3.554,3.554,0,0,1-3.591,3.6c-.4,0-.8,0-1.307,0" transform="translate(-3.906 -10.397)" fill="#fff"/>
        <path id="Trazado_280814" data-name="Trazado 280814" d="M24.314,60.467a9,9,0,0,1-.134,2.043,3.569,3.569,0,0,1-3.443,2.584c-.824.007-1.648.008-2.472,0a3.554,3.554,0,0,1-3.54-3.576c-.005-.824-.007-1.648,0-2.471a3.552,3.552,0,0,1,3.5-3.538c.848-.01,1.7-.008,2.546,0a3.551,3.551,0,0,1,3.54,3.575c0,.425,0,.849,0,1.384" transform="translate(-3.906 -14.726)" fill="#fff"/>
        <path id="Trazado_280815" data-name="Trazado 280815" d="M19.476,81.411c-3.277.331-5.091-1.5-4.769-4.75a10.772,10.772,0,0,1,.148-2.3,3.583,3.583,0,0,1,3.407-2.535q1.235-.01,2.471,0A3.551,3.551,0,0,1,24.3,75.372c.007.8.005,1.6,0,2.4a3.556,3.556,0,0,1-3.625,3.642c-.4,0-.8,0-1.2,0" transform="translate(-3.892 -19.055)" fill="#fff"/>
        <path id="Trazado_280816" data-name="Trazado 280816" d="M42.945,30.164c-3.745,0-7.49-.013-11.235.015-.56,0-.7-.13-.69-.691.034-1.721.007-1.721,1.74-1.721,7.166,0,14.331.009,21.5-.016.622,0,.785.143.766.767-.047,1.646-.014,1.646-1.668,1.646Z" transform="translate(-8.23 -7.363)" fill="#fff"/>
        <path id="Trazado_280817" data-name="Trazado 280817" d="M41.9,44.083c3.346,0,6.691.015,10.036-.015.561-.005.7.13.691.691-.035,1.721-.007,1.721-1.741,1.721-6.367,0-12.733-.01-19.1.016-.623,0-.785-.143-.767-.767.048-1.646.015-1.646,1.668-1.646Z" transform="translate(-8.229 -11.692)" fill="#fff"/>
        <path id="Trazado_280818" data-name="Trazado 280818" d="M35.654,17.113c-2.971,0-5.942-.012-8.913.012-.489,0-.616-.123-.613-.612.012-1.8-.008-1.8,1.813-1.8,5.567,0,11.135.01,16.7-.014.559,0,.7.128.691.689-.035,1.721-.007,1.722-1.74,1.722h-7.94" transform="translate(-6.932 -3.901)" fill="#fff"/>
        <path id="Trazado_280819" data-name="Trazado 280819" d="M40.7,60.4c2.971,0,5.942.012,8.913-.012.489,0,.616.124.613.612-.011,1.8.008,1.8-1.813,1.8-5.567,0-11.135-.01-16.7.015-.56,0-.7-.13-.69-.691.034-1.721.007-1.721,1.74-1.721Z" transform="translate(-8.23 -16.022)" fill="#fff"/>
        <path id="Trazado_280820" data-name="Trazado 280820" d="M19.473,32.469a12.13,12.13,0,0,1-1.933-.11,3.53,3.53,0,0,1-2.815-3.551c0-.748,0-1.5,0-2.243a3.743,3.743,0,0,1,4.518-3.723c.234.043.286.129.278.331-.009.224,0,.449,0,.673,0,.424.14.932-.045,1.249-.215.369-.769.1-1.172.154a1.24,1.24,0,0,0-1.17,1.231c-.033.771-.034,1.546,0,2.317a1.224,1.224,0,0,0,1.309,1.239c.7.023,1.4.019,2.094,0,.9-.023,1.419-.5,1.361-1.4-.051-.789.123-1.062.978-1.015,1.526.085,1.53.024,1.436,1.575a3.6,3.6,0,0,1-3.339,3.238c-.5.016-1,0-1.5,0v.032" transform="translate(-3.906 -6.042)" fill="#fff"/>
        <path id="Trazado_280821" data-name="Trazado 280821" d="M39.5,76.714c2.571,0,5.143.013,7.714-.012.489-.005.616.123.613.612-.011,1.8.009,1.8-1.812,1.8-4.769,0-9.538-.011-14.306.015-.559,0-.7-.129-.691-.69.035-1.721.007-1.722,1.74-1.722Z" transform="translate(-8.23 -20.351)" fill="#fff"/>
        <path id="Trazado_280822" data-name="Trazado 280822" d="M21.875,28.244l-.275-.236c-1.565-1.338-1.566-1.338-.109-2.793,1.04-1.04,2.095-2.066,3.114-3.126.3-.312.475-.313.75.007.4.469,1.129.871,1.183,1.361.043.383-.717.865-1.136,1.288-1.034,1.045-2.078,2.082-3.119,3.122-.123.122-.253.234-.408.377" transform="translate(-5.416 -5.799)" fill="#fff"/>
        <path id="Trazado_280823" data-name="Trazado 280823" d="M22.783,44.832c0,2.278-.139,2.419-2.4,2.419s-2.4-.138-2.4-2.415c0-2.229.149-2.38,2.357-2.38h.075c2.212,0,2.363.152,2.363,2.376" transform="translate(-4.773 -11.265)" fill="#00bc9d"/>
        <path id="Trazado_280824" data-name="Trazado 280824" d="M20.321,63.565c-2.166,0-2.332-.166-2.332-2.332,0-2.355.11-2.463,2.5-2.463,2.117,0,2.3.179,2.3,2.293v.075c0,2.3-.129,2.427-2.463,2.427" transform="translate(-4.773 -15.593)" fill="#00bc9d"/>
        <path id="Trazado_280825" data-name="Trazado 280825" d="M22.783,77.5c0,2.227-.153,2.381-2.358,2.381-2.311,0-2.436-.126-2.436-2.452,0-2.179.162-2.343,2.319-2.343h.075c2.26,0,2.4.142,2.4,2.413" transform="translate(-4.773 -19.922)" fill="#00bc9d"/>
      </g>
    </g>
    <g id="Grupo_912251" data-name="Grupo 912251" transform="translate(617.445 1030.81)">
      <g id="Grupo_912250" data-name="Grupo 912250" clip-path="url(#clip-path-2)">
        <path id="Trazado_280826" data-name="Trazado 280826" d="M66.3,0a7.806,7.806,0,0,1,3.688,2.028A6.609,6.609,0,1,1,63.631.167c.141-.036.311.005.393-.167Z" transform="translate(-14.234)" fill="#fff"/>
        <path id="Trazado_280827" data-name="Trazado 280827" d="M18.427,0a7.672,7.672,0,0,1,3.619,1.864,6.635,6.635,0,0,1-5.629,11.307A6.756,6.756,0,0,1,10.873,7.69a6.674,6.674,0,0,1,4.543-7.4c.247-.082.554-.039.734-.293Z" transform="translate(-2.62)" fill="#fff"/>
        <path id="Trazado_280828" data-name="Trazado 280828" d="M42.434,0a8.442,8.442,0,0,1,3.405,1.775,6.66,6.66,0,0,1,1.407,7.778A6.633,6.633,0,0,1,34.72,7.437,6.683,6.683,0,0,1,39.762.164c.142-.036.31,0,.4-.164Z" transform="translate(-8.422)" fill="#fff"/>
        <path id="Trazado_280829" data-name="Trazado 280829" d="M9.694,40.984a1.326,1.326,0,0,0,.064-.729c.005-4.929,0-9.859.008-14.789A4.788,4.788,0,0,1,13.7,20.621a4.718,4.718,0,0,1,5.554,4.869c.022,1.943,0,3.885,0,5.879A4.871,4.871,0,0,1,24.488,32.9c.474.535.546,1.517,1.059,1.725.486.2,1.271-.258,1.962-.223a4.58,4.58,0,0,1,4.367,4.464c.006.226,0,.452,0,.749a6.1,6.1,0,0,1,2.764-.191,4.593,4.593,0,0,1,3.625,4.212c.081,2.07.055,4.145.031,6.217a1.479,1.479,0,0,1-1.575,1.563,1.551,1.551,0,0,1-1.487-1.668c-.011-1.77,0-3.539,0-5.309,0-1.254-.512-1.952-1.462-2A1.9,1.9,0,0,0,31.894,44.4c-.046.883-.011,1.769-.016,2.654-.007,1.146-.59,1.838-1.549,1.842s-1.549-.684-1.554-1.843c-.014-2.654,0-5.308-.009-7.963a1.519,1.519,0,0,0-1.283-1.621,1.617,1.617,0,0,0-1.649,1.072,3.849,3.849,0,0,0-.22,1.561q0,2.5,0,5.006c0,.2.01.406-.007.606a1.566,1.566,0,0,1-1.573,1.6A1.588,1.588,0,0,1,22.5,45.6c-.01-3.16,0-6.32-.006-9.48a1.7,1.7,0,0,0-1.584-1.856,1.432,1.432,0,0,0-1.648,1.52c-.012,2.831,0,5.663-.007,8.494a4.589,4.589,0,0,1-.049.83,1.493,1.493,0,0,1-1.592,1.3,1.547,1.547,0,0,1-1.474-1.451,6.4,6.4,0,0,1-.01-.682q0-9.442,0-18.885A1.629,1.629,0,0,0,14.86,23.66a1.671,1.671,0,0,0-1.853.983,2.681,2.681,0,0,0-.111,1.12q-.007,11.755,0,23.511c0,.177,0,.354,0,.531-.02,1.075-.537,1.737-1.425,1.825-.907.09-1.55-.5-1.722-1.611A19.387,19.387,0,0,0,7.3,43.095a5.153,5.153,0,0,0-2.747-2.363,1.02,1.02,0,0,0-1.192.152,1.007,1.007,0,0,0-.109,1.193c.732,1.764,1.448,3.534,2.194,5.292a21.411,21.411,0,0,1,1.846,9.413,6.657,6.657,0,0,0,2.351,5.637c.814.717,1.555,1.52,2.3,2.314a6.449,6.449,0,0,1,1.734,4.4q.032,1.4,0,2.806c-.009.366.1.466.468.466q9.026-.016,18.05,0c.439,0,.485-.175.479-.531-.017-1.011.021-2.024-.012-3.034a6.106,6.106,0,0,1,1.323-4.081,4.907,4.907,0,0,0,1.289-3.067,1.438,1.438,0,0,1,1.565-1.322,1.459,1.459,0,0,1,1.46,1.433,5.016,5.016,0,0,1-1.055,3.622,6.513,6.513,0,0,0-1.468,5.2,4.644,4.644,0,0,1,0,.834c-.049.625-.033,1.089.843,1.092a1.2,1.2,0,0,1,1.044,1.06,3.575,3.575,0,0,1,.08.751c.012,2.149.025,4.3.018,6.446,0,1.283-.587,1.858-1.843,1.858q-12.969,0-25.939,0c-1.215,0-1.754-.529-1.761-1.746q-.02-3.337-.013-6.674c0-1.23.5-1.75,1.741-1.765.483-.007.674-.111.646-.631-.044-.832-.021-1.668-.01-2.5a3.825,3.825,0,0,0-1.236-2.9c-.993-.973-1.991-1.944-2.928-2.969a7.161,7.161,0,0,1-2.115-5.117A27.524,27.524,0,0,0,1.32,45.47C.937,44.652.615,43.8.3,42.957a3.782,3.782,0,0,1,.828-4.2,3.81,3.81,0,0,1,4.227-1.01c1.7.574,2.53,1.183,4.339,3.237" transform="translate(0 -4.995)" fill="#fff"/>
        <path id="Trazado_280830" data-name="Trazado 280830" d="M71.8,27.627a6.626,6.626,0,1,1-6.369-6.869A6.639,6.639,0,0,1,71.8,27.627" transform="translate(-14.227 -5.04)" fill="#fff"/>
        <path id="Trazado_280831" data-name="Trazado 280831" d="M71.8,47.867a6.615,6.615,0,0,1-6.436,6.889A6.633,6.633,0,1,1,71.8,47.867" transform="translate(-14.227 -10.08)" fill="#fff"/>
        <path id="Trazado_280832" data-name="Trazado 280832" d="M47.926,27.395a6.61,6.61,0,1,1-6.6-6.658,6.62,6.62,0,0,1,6.6,6.658" transform="translate(-8.432 -5.038)" fill="#fff"/>
        <path id="Trazado_280833" data-name="Trazado 280833" d="M2.246,27.13a1.371,1.371,0,0,1,1.089-1.27,27.927,27.927,0,0,1,2.877-.591,1.529,1.529,0,0,1,1.76,1.282,1.562,1.562,0,0,1-1.241,1.725c-.9.212-1.815.41-2.731.568A1.583,1.583,0,0,1,2.246,27.13" transform="translate(-0.546 -6.135)" fill="#fff"/>
        <path id="Trazado_280834" data-name="Trazado 280834" d="M8.756,18.538a1.49,1.49,0,0,1-2.148,1.41A23.113,23.113,0,0,1,4,18.442a1.523,1.523,0,0,1,1.516-2.626c.893.456,1.755.977,2.61,1.5a1.325,1.325,0,0,1,.628,1.219" transform="translate(-0.814 -3.803)" fill="#fff"/>
        <path id="Trazado_280835" data-name="Trazado 280835" d="M48.082,68.264a1.6,1.6,0,0,1-1.545-1.633,1.543,1.543,0,0,1,3.084.08,1.576,1.576,0,0,1-1.539,1.553" transform="translate(-11.306 -15.824)" fill="#fff"/>
        <path id="Trazado_280836" data-name="Trazado 280836" d="M69.724,7.617A3.531,3.531,0,1,1,66.2,4.035a3.566,3.566,0,0,1,3.523,3.582" transform="translate(-15.224 -0.98)" fill="#5b4794"/>
        <path id="Trazado_280837" data-name="Trazado 280837" d="M18.348,11.143A3.612,3.612,0,0,1,14.867,7.5a3.552,3.552,0,0,1,7.1.138,3.617,3.617,0,0,1-3.621,3.505" transform="translate(-3.612 -0.98)" fill="#5b4794"/>
        <path id="Trazado_280838" data-name="Trazado 280838" d="M45.853,7.576a3.554,3.554,0,1,1-7.107-.014,3.554,3.554,0,0,1,7.107.014" transform="translate(-9.413 -0.98)" fill="#5b4794"/>
        <path id="Trazado_280839" data-name="Trazado 280839" d="M26.528,97.253c-3.638,0-7.275-.019-10.913.017-.652.006-.8-.179-.768-.795.055-.931.033-1.869,0-2.8-.011-.394.1-.506.5-.5q11.179.017,22.356,0c.437,0,.55.127.537.548-.03.959-.054,1.923.008,2.878.042.627-.224.675-.737.672-3.663-.02-7.326-.011-10.989-.011" transform="translate(-3.606 -22.634)" fill="#5b4794"/>
        <path id="Trazado_280840" data-name="Trazado 280840" d="M69.724,28.407a3.53,3.53,0,1,1-3.445-3.57,3.519,3.519,0,0,1,3.445,3.57" transform="translate(-15.224 -6.034)" fill="#5b4794"/>
        <path id="Trazado_280841" data-name="Trazado 280841" d="M66.214,52.66a3.523,3.523,0,1,1,3.51-3.5,3.513,3.513,0,0,1-3.51,3.5" transform="translate(-15.224 -11.082)" fill="#5b4794"/>
        <path id="Trazado_280842" data-name="Trazado 280842" d="M42.344,24.836a3.53,3.53,0,1,1-3.6,3.5,3.551,3.551,0,0,1,3.6-3.5" transform="translate(-9.413 -6.034)" fill="#5b4794"/>
      </g>
    </g>
    <g id="Grupo_912256" data-name="Grupo 912256" transform="translate(347.433 1078)">
      <g id="Grupo_912255" data-name="Grupo 912255" clip-path="url(#clip-path-3)">
        <path id="Trazado_280848" data-name="Trazado 280848" d="M.163,57.771c.81-4.625,3.634-7.386,8.144-8.74A8.021,8.021,0,0,1,7.2,43.585a6.542,6.542,0,0,1,4.064-5.894,6.547,6.547,0,0,1,6.9.8c.218.16.427.332.605.471,4.505-10.617,12.314-16.5,24.02-16.274a23.875,23.875,0,0,1,21.825,16.32c.59-.371,1.1-.837,1.709-1.163a6.869,6.869,0,0,1,9.964,5.638c.079,1.823.108,3.634-.928,5.269-.318.5.243.439.44.494a10.533,10.533,0,0,1,7.658,9.714c.038,1.113.012,2.227.008,3.341a1.753,1.753,0,0,1-2,1.992c-1.684.015-3.368,0-5.052,0q-5.459,0-10.92.005a3.064,3.064,0,0,1-1.2-.168,1.533,1.533,0,0,1-1.032-1.589,1.488,1.488,0,0,1,1.18-1.47,4.939,4.939,0,0,1,1.208-.116c4.618-.008,9.236-.016,13.854.008.565,0,.711-.134.716-.706a7.427,7.427,0,0,0-7.695-8.145c-2.172-.024-4.346.018-6.518-.023a.781.781,0,0,0-.933.7A23.632,23.632,0,0,1,55.7,66.42a23.127,23.127,0,0,1-10.91,4.26A23.834,23.834,0,0,1,27.4,66.145a21.156,21.156,0,0,1-3.545-3.23c-.317-.364-.509-.485-.929-.062Q14.137,71.694,5.306,80.494a2.874,2.874,0,0,0-.836,3.044,2.684,2.684,0,0,0,2.307,1.921,2.942,2.942,0,0,0,2.6-1.04q4.772-4.793,9.566-9.563a4.844,4.844,0,0,1,.805-.677,1.56,1.56,0,0,1,1.946.229,1.576,1.576,0,0,1,.24,2,4.511,4.511,0,0,1-.623.745c-2.819,2.828-5.665,5.629-8.459,8.481a9.888,9.888,0,0,1-4.69,3.134H5.886A5.92,5.92,0,0,1,.894,83.494a5.771,5.771,0,0,1,1.728-5.2Q8.677,72.2,14.767,66.136c1.881-1.881,3.748-3.777,5.653-5.634a1.119,1.119,0,0,0,.244-1.617,21.75,21.75,0,0,1-2.352-5.528c-.275-1.041-.3-1.043-1.4-1.043-1.955,0-3.909-.02-5.863,0-3.581.044-6.226,1.894-7.194,5.03a9.625,9.625,0,0,0-.364,2.57c-.017.559.224.775.777.77,1.628-.015,3.257,0,4.886-.007a4.4,4.4,0,0,1,1.6.256,1.758,1.758,0,0,1,1.2,1.676A1.869,1.869,0,0,1,10.7,64.346a3.554,3.554,0,0,1-1.2.19c-2.416,0-4.832.018-7.248-.007-.987-.01-1.916-.19-2.23-1.348V58.617c.2-.257-.015-.584.145-.847" transform="translate(-0.004 -5.321)" fill="#fff"/>
        <path id="Trazado_280850" data-name="Trazado 280850" d="M.163,68.523a.912.912,0,0,1-.145.847v-.815a.413.413,0,0,0,.145-.031" transform="translate(-0.004 -16.073)" fill="#323135"/>
        <path id="Trazado_280851" data-name="Trazado 280851" d="M55.683,4.4c0,.92.028,1.842-.008,2.761A1.566,1.566,0,0,1,54.119,8.8a1.6,1.6,0,0,1-1.693-1.6q-.072-2.8,0-5.6a1.607,1.607,0,0,1,1.7-1.6,1.578,1.578,0,0,1,1.55,1.642c.036.919.008,1.84.008,2.761" transform="translate(-12.289 0)" fill="#fff"/>
        <path id="Trazado_280852" data-name="Trazado 280852" d="M40.237,13.865a1.731,1.731,0,0,1-1.226-.622c-.87-.855-1.741-1.71-2.587-2.588A1.654,1.654,0,1,1,38.73,8.307q1.385,1.316,2.7,2.705a1.576,1.576,0,0,1,.363,1.933,1.6,1.6,0,0,1-1.555.919" transform="translate(-8.397 -1.807)" fill="#fff"/>
        <path id="Trazado_280853" data-name="Trazado 280853" d="M65.217,12.215a2.249,2.249,0,0,1,.679-1.362c.827-.822,1.64-1.659,2.479-2.467A1.663,1.663,0,1,1,70.7,10.713c-.871.892-1.747,1.78-2.651,2.64a1.566,1.566,0,0,1-1.87.341,1.735,1.735,0,0,1-.964-1.48" transform="translate(-15.298 -1.809)" fill="#fff"/>
        <path id="Trazado_280854" data-name="Trazado 280854" d="M32.1,87.2a1.591,1.591,0,0,1-1.654-1.6,1.678,1.678,0,0,1,1.618-1.669,1.752,1.752,0,0,1,1.645,1.6A1.658,1.658,0,0,1,32.1,87.2" transform="translate(-7.141 -19.687)" fill="#fff"/>
        <path id="Trazado_280855" data-name="Trazado 280855" d="M55.679,15.9a1.59,1.59,0,0,1-1.572,1.624,1.629,1.629,0,1,1,0-3.255A1.6,1.6,0,0,1,55.679,15.9" transform="translate(-12.296 -3.346)" fill="#fff"/>
        <path id="Trazado_280856" data-name="Trazado 280856" d="M48.124,26.923a20.828,20.828,0,1,1-20.8,20.855,20.855,20.855,0,0,1,20.8-20.855" transform="translate(-6.409 -6.315)" fill="#ff6d4b"/>
        <path id="Trazado_280857" data-name="Trazado 280857" d="M20.8,50.019c.008,2.13-.841,3.525-2.46,4.049A3.566,3.566,0,0,1,13.7,51.239a6.925,6.925,0,0,1,0-2.433,3.6,3.6,0,0,1,3.68-3.019,3.647,3.647,0,0,1,3.418,3.418c.021.269,0,.542,0,.814" transform="translate(-3.187 -10.739)" fill="#ff6d4b"/>
        <path id="Trazado_280858" data-name="Trazado 280858" d="M93.2,50.059c0,2.134-.906,3.557-2.576,4.036a3.554,3.554,0,0,1-4.541-2.976,6.745,6.745,0,0,1,.044-2.431,3.592,3.592,0,0,1,3.694-2.9A3.639,3.639,0,0,1,93.2,49.244c.016.271,0,.543,0,.814" transform="translate(-20.173 -10.739)" fill="#ff6d4b"/>
        <path id="Trazado_280859" data-name="Trazado 280859" d="M49.14,66.349a17.622,17.622,0,1,1,17.6-17.633,17.618,17.618,0,0,1-17.6,17.633" transform="translate(-7.397 -7.296)" fill="#fff"/>
        <path id="Trazado_280860" data-name="Trazado 280860" d="M61.414,58.571A14.25,14.25,0,0,0,57.5,54.613a10.63,10.63,0,0,0-1.779-.961c-.444-.193-.448-.335-.194-.722a8.068,8.068,0,0,0,.313-8.685,6.609,6.609,0,0,0-7.114-3.085,6.76,6.76,0,0,0-5.254,6.074c-.118,2.214.021,4.35,1.643,6.151A13.809,13.809,0,0,0,41.606,55.5a13.011,13.011,0,0,0-2.688,3.036A14.2,14.2,0,0,1,39.977,39.7a14.3,14.3,0,0,1,21.437,18.87" transform="translate(-8.408 -8.319)" fill="#ff6d4b"/>
        <path id="Trazado_280861" data-name="Trazado 280861" d="M51.908,70.293a14.354,14.354,0,0,1-8.491-2.762c-.351-.253-.359-.4-.154-.759a10.061,10.061,0,0,1,17.172-.022c.233.4.175.556-.184.814a14.365,14.365,0,0,1-8.343,2.73" transform="translate(-10.116 -14.53)" fill="#ff6d4b"/>
        <path id="Trazado_280862" data-name="Trazado 280862" d="M56.879,51.131c.01,2.587-1.485,4.113-3.83,3.921A3.12,3.12,0,0,1,51,54.027a4.915,4.915,0,0,1-.167-5.738,3.321,3.321,0,0,1,3.638-1.095,3.394,3.394,0,0,1,2.407,3.043c.024.3,0,.6,0,.894" transform="translate(-11.725 -11.032)" fill="#ff6d4b"/>
      </g>
    </g>
    <g id="Grupo_80147" data-name="Grupo 80147" transform="translate(1146.917 1195.68)">
      <g id="Grupo_80136" data-name="Grupo 80136" transform="translate(13.64)">
        <path id="Trazado_113556" data-name="Trazado 113556" d="M17.231,80.6a2.883,2.883,0,0,0-.436-.265,4.667,4.667,0,0,1-3.145-4.5c-.017-.861-.007-1.722,0-2.583.006-1.035.2-1.3,1.2-1.631A1.36,1.36,0,0,1,16.018,73.2c-.042.888-.038,1.78,0,2.668a2.278,2.278,0,0,0,2.249,2.349q3.492.048,6.986,0a2.216,2.216,0,0,0,2.206-2.209c.025-2.04-.008-4.08-.017-6.12a.973.973,0,0,0,.025-.155q0-10.739,0-21.477A2.207,2.207,0,0,0,25.2,45.953c-2.307-.031-4.616-.038-6.922.017a2.772,2.772,0,0,0-1.427.534,2.427,2.427,0,0,0-.841,2.18c.005,6.32.014,12.64-.019,18.96a5.189,5.189,0,0,1-.487,1.492l-.658.188c-.917-.234-1.192-.547-1.193-1.468-.006-6.505-.021-13.011.005-19.516a4.613,4.613,0,0,1,4.778-4.761c2.2-.026,4.407.009,6.61-.01a4.991,4.991,0,0,1,3.148,1.078l11.824-7.124a21.8,21.8,0,0,1-4.853-4.828C26.225,20.415,33.5,2.741,48.5.291A8.314,8.314,0,0,0,49.5,0h4.408c1.005.208,2.024.367,3.014.631a20.45,20.45,0,0,1,13.54,10.933c.483.952.405,1.274-.38,1.969-.9.2-1.387-.22-1.782-1A17.952,17.952,0,0,0,58.343,3.55a16.93,16.93,0,0,0-9.634-.86L48.3,2.8l-.043-.012a7.75,7.75,0,0,0-.848.148C40.486,4.928,35.9,9.358,34.2,16.355c-1.7,6.972.311,13.016,5.558,17.909a16.242,16.242,0,0,0,8.3,4.207v-.016l.508.122a2.212,2.212,0,0,0,.37.123,18.645,18.645,0,0,0,9.283-.871,18.3,18.3,0,0,0,11.72-20.381,1.381,1.381,0,0,1,.828-1.72c1.042.059,1.337.33,1.53,1.406A20.72,20.72,0,0,1,59.222,39.975c-.388.146-.779.282-1.192.431v2.272c.79,0,1.567,0,2.344,0a5.467,5.467,0,0,1,5.282,3.168,5.409,5.409,0,0,1-.708,6.041c-.063.08-.112.171-.168.258a5.705,5.705,0,0,1-.027,10.112,5.657,5.657,0,0,1-1.591,8.856,5.919,5.919,0,0,1,1.477,3.963,5.512,5.512,0,0,1-4.6,5.378c-.056.01-.1.092-.148.141H31.241c-.93-.365-1.858-.736-2.793-1.088a.541.541,0,0,0-.359.061c-.736.336-1.468.683-2.2,1.027ZM50.452,41.271,48.143,41v1.649h7.433V41.271ZM63.824,65.956a3.167,3.167,0,0,0-2.973-3.131c-1.105-.112-1.4-.433-1.4-1.527a1.455,1.455,0,0,1,1.525-.852,13.129,13.129,0,0,0,1.411,0,3.15,3.15,0,0,0,3.034-3.307,3.113,3.113,0,0,0-2.911-3.169c-.519-.038-1.043-.019-1.565-.028-.97-.017-1.254-.241-1.538-1.207a1.384,1.384,0,0,1,1.41-1.184,3.119,3.119,0,0,0,3.009-3.382,3.169,3.169,0,0,0-3.407-3.125q-8.613-.009-17.225,0c-.942,0-1.456-.413-1.473-1.147-.017-.757.535-1.207,1.5-1.213.827-.005,1.654,0,2.489,0v-2.3a12.969,12.969,0,0,1-1.967-.788,2.536,2.536,0,0,0-2.6.06c-.306.146-.6.314-.893.489-3.162,1.9-6.312,3.823-9.489,5.7-.763.45-1.43.822-.962,1.882a2.48,2.48,0,0,1,.035.936q0,4.326,0,8.652.008,9.438.02,18.875a1.679,1.679,0,0,1-.068.464c-.315.693,0,1.03.65,1.151a15.228,15.228,0,0,0,2.617.415c5.112.039,10.224.019,15.336.019,3.513,0,7.026.011,10.539,0a3.168,3.168,0,0,0,3.308-3.3,3.125,3.125,0,0,0-2.926-3.187c-1.207-.141-1.534-.53-1.4-1.669a1.479,1.479,0,0,1,1.454-.725,10.9,10.9,0,0,0,1.723-.056,3.106,3.106,0,0,0,2.741-3.333" transform="translate(-13.64)" fill="#fff"/>
        <path id="Trazado_113559" data-name="Trazado 113559" d="M307.289,151.435a5.282,5.282,0,0,1-2.526,4,3.823,3.823,0,0,1-4.34-.455c-.982-.695-2-1.335-2.99-2.022a4.013,4.013,0,0,1,4.019-6.915c1.251.592,2.5,1.195,3.725,1.831a3.89,3.89,0,0,1,2.112,3.562m-2.1-.221a6.73,6.73,0,0,0-1.241-1.3c-1.133-.642-2.327-1.177-3.507-1.734a1.647,1.647,0,0,0-1.619,2.861c.966.67,1.957,1.3,2.922,1.975.608.423,1.305.84,1.924.291a12.158,12.158,0,0,0,1.522-2.091" transform="translate(-236.457 -115.037)" fill="#fff"/>
        <path id="Trazado_113560" data-name="Trazado 113560" d="M321.261,86.493c-1.645-.133-2.957-.176-4.251-.357a4,4,0,0,1,.386-7.911c1.149-.082,2.3-.125,3.444-.269,3.065-.387,5.207,1.583,4.785,5.116a3.808,3.808,0,0,1-4.364,3.422m-.312-2.414v0l.471.027c1.316.071,1.862-.455,1.872-1.8.012-1.492-.506-2.069-1.846-2-1.23.067-2.458.172-3.687.27-1.095.087-1.6.6-1.606,1.623a1.517,1.517,0,0,0,1.578,1.675c1.071.089,2.145.14,3.218.208" transform="translate(-250.79 -61.556)" fill="#fff"/>
        <path id="Trazado_113561" data-name="Trazado 113561" d="M299.68,12.476a4.2,4.2,0,0,1-3.846-3.023,3.76,3.76,0,0,1,1.455-4.3q1.765-1.24,3.584-2.4A3.774,3.774,0,0,1,306.263,4a4.765,4.765,0,0,1,.986,3.074,3.613,3.613,0,0,1-1.922,2.97c-1.385.73-2.8,1.411-4.22,2.066a8.021,8.021,0,0,1-1.428.369m.114-2.441a2.087,2.087,0,0,0,.473-.13c1.292-.621,2.591-1.231,3.861-1.9a1.361,1.361,0,0,0,.622-1.874c-.565-1.315-1.283-1.853-2.163-1.614a1.23,1.23,0,0,0-.357.158c-1.215.813-2.443,1.61-3.633,2.458a1.305,1.305,0,0,0-.471,1.67,1.643,1.643,0,0,0,1.669,1.228" transform="translate(-236.454 -1.662)" fill="#fff"/>
        <path id="Trazado_113563" data-name="Trazado 113563" d="M41.036,151.683c.06-1.968.689-3.123,2-3.823q2-1.07,4.074-2.007A4.013,4.013,0,0,1,51.1,152.71c-1.224.893-2.484,1.746-3.778,2.535a3.7,3.7,0,0,1-5.247-1.3,19.648,19.648,0,0,1-1.041-2.261m4.457,1.781a3.511,3.511,0,0,0,.722-.3c1.137-.741,2.269-1.491,3.379-2.272a1.648,1.648,0,0,0-1.693-2.8c-1.18.555-2.35,1.13-3.515,1.713a1.484,1.484,0,0,0-.916,1.784,2.356,2.356,0,0,0,2.024,1.878" transform="translate(-35.286 -114.962)" fill="#fff"/>
        <path id="Trazado_113564" data-name="Trazado 113564" d="M25.767,86.638c-2.769.407-4.933-2.308-3.886-6.019a3.6,3.6,0,0,1,3.566-2.562c1.621.046,3.245.146,4.855.328a4.023,4.023,0,0,1,.135,7.841c-1.368.206-2.76.251-4.67.412m.726-2.455V84.2c1.124-.082,2.253-.12,3.37-.26.893-.112,1.291-.709,1.267-1.686a1.39,1.39,0,0,0-1.261-1.53c-1.436-.132-2.874-.241-4.314-.306a1.413,1.413,0,0,0-1.535,1.435,7.622,7.622,0,0,0,0,.865,1.439,1.439,0,0,0,1.611,1.52c.288-.005.576-.034.864-.051" transform="translate(-19.939 -61.672)" fill="#fff"/>
        <path id="Trazado_113565" data-name="Trazado 113565" d="M48.067,12.535A16.512,16.512,0,0,1,41.757,9.2a3.147,3.147,0,0,1-.638-3.455c.8-2.176,2.053-3.6,4.272-3.465a4.412,4.412,0,0,1,1.9.615c1.236.732,2.416,1.56,3.592,2.388a3.758,3.758,0,0,1,1.457,4.3,4.16,4.16,0,0,1-4.276,2.958m-2.64-7.911c-1.155-.039-1.649.795-2.075,1.879-.277.7.109,1.35.922,1.76,1.141.574,2.285,1.142,3.437,1.693A1.5,1.5,0,0,0,49.9,9.28a1.471,1.471,0,0,0-.514-2.162q-1.612-1.111-3.251-2.183a3.567,3.567,0,0,0-.706-.311" transform="translate(-35.157 -1.794)" fill="#fff"/>
        <path id="Trazado_113575" data-name="Trazado 113575" d="M177.593,183.22l.508.122-.508-.122" transform="translate(-143.182 -144.765)" fill="#ea394e"/>
        <path id="Trazado_113576" data-name="Trazado 113576" d="M179.191,12.818l-.409.11.409-.11" transform="translate(-144.121 -10.128)" fill="#ea394e"/>
        <path id="Trazado_113577" data-name="Trazado 113577" d="M142.965,39.532a3.456,3.456,0,0,1,2.5.973c.976.913,1.933,1.848,2.9,2.767a1.4,1.4,0,0,0,2.26.012c.918-.86,1.808-1.751,2.728-2.609a3.694,3.694,0,0,1,5.465.072q.9.877,1.78,1.779a3.714,3.714,0,0,1,.071,5.524c-.862.917-1.75,1.809-2.608,2.729a1.372,1.372,0,0,0,.011,2.194c.9.954,1.823,1.884,2.712,2.847a3.661,3.661,0,0,1-.038,5.231c-.651.682-1.321,1.348-2,2a3.7,3.7,0,0,1-5.409-.009c-.911-.868-1.814-1.745-2.73-2.607a1.357,1.357,0,0,0-2.188-.018c-.938.878-1.848,1.785-2.788,2.66a3.677,3.677,0,0,1-5.4-.066c-.673-.662-1.349-1.321-2-2a3.616,3.616,0,0,1-.126-5.049c.883-1,1.844-1.935,2.761-2.908a1.448,1.448,0,0,0-.013-2.376C140,49.782,139.145,48.9,138.3,48a3.69,3.69,0,0,1,.041-5.407c.64-.657,1.291-1.3,1.947-1.946a3.6,3.6,0,0,1,2.679-1.118m13.08,22.445a6.344,6.344,0,0,0,1.046-.624c.622-.562,1.2-1.172,1.787-1.771a1.407,1.407,0,0,0,.035-2.305c-.846-.9-1.7-1.783-2.551-2.676a3.688,3.688,0,0,1-.018-5.458c.864-.915,1.752-1.807,2.611-2.727a1.366,1.366,0,0,0-.013-2.191q-.876-.9-1.778-1.781a1.386,1.386,0,0,0-2.25.012c-.914.865-1.813,1.746-2.73,2.609a3.681,3.681,0,0,1-5.348.01c-.954-.9-1.888-1.819-2.848-2.711a1.328,1.328,0,0,0-2.075.016c-.607.578-1.194,1.179-1.782,1.778a1.4,1.4,0,0,0-.04,2.3c.81.858,1.638,1.7,2.45,2.555,1.766,1.861,1.766,3.85.008,5.7-.85.892-1.712,1.773-2.552,2.675a1.327,1.327,0,0,0,.015,2.073c.579.607,1.179,1.194,1.778,1.782a1.419,1.419,0,0,0,2.31.039c.915-.864,1.807-1.753,2.726-2.612a3.661,3.661,0,0,1,5.343-.007c.941.874,1.844,1.791,2.794,2.655a6.82,6.82,0,0,0,1.083.664" transform="translate(-111.216 -31.211)" fill="#fff"/>
      </g>
    </g>
    <g id="Grupo_80146" data-name="Grupo 80146" transform="translate(1103.187 939.287)">
      <g id="Grupo_80133" data-name="Grupo 80133" transform="translate(13.633)">
        <path id="Trazado_113527" data-name="Trazado 113527" d="M17.226,80.6a2.96,2.96,0,0,0-.439-.266,4.594,4.594,0,0,1-3.137-4.451q-.029-13.81,0-27.62a4.579,4.579,0,0,1,4.7-4.674c2.255-.032,4.512,0,6.767-.012a4.961,4.961,0,0,1,3.069,1.073l11.823-7.124A21.479,21.479,0,0,1,35.2,32.758,20.672,20.672,0,0,1,48.5.291,8.276,8.276,0,0,0,49.5,0H53.9c1.158.248,2.333.433,3.47.754A20.64,20.64,0,0,1,58.321,40.3c-.095.032-.188.067-.3.107V42.7c1.036,0,2.058-.083,3.062.017a5.362,5.362,0,0,1,4.669,3.352,5.449,5.449,0,0,1-.713,5.706c-.077.1-.155.209-.229.316a.2.2,0,0,0-.015.077,5.7,5.7,0,0,1-.049,10.095,5.655,5.655,0,0,1-1.59,8.854,5.924,5.924,0,0,1,1.476,3.965,5.511,5.511,0,0,1-4.6,5.376c-.056.01-.1.092-.148.141H31.236c-.93-.365-1.858-.736-2.793-1.088a.54.54,0,0,0-.359.061c-.736.336-1.468.683-2.2,1.027ZM50.447,41.272,48.138,41v1.649h7.433V41.076c-.89.063-1.716.144-2.544.175-.859.032-1.72.016-2.58.021M27.431,70.044c.087-1.226.194-1.371,1.265-1.715a1.465,1.465,0,0,1,1.148,1.68c-.04,2.058,0,4.118.006,6.177a1.672,1.672,0,0,1-.067.464c-.315.693,0,1.029.65,1.15a15.247,15.247,0,0,0,2.617.414c5.164.039,10.328.019,15.493.019,3.46,0,6.921.011,10.381,0a3.167,3.167,0,0,0,3.308-3.3,3.123,3.123,0,0,0-2.926-3.187c-1.207-.141-1.534-.53-1.4-1.669a1.479,1.479,0,0,1,1.454-.725,10.926,10.926,0,0,0,1.723-.056,3.106,3.106,0,0,0,2.741-3.334,3.167,3.167,0,0,0-2.973-3.131c-1.105-.111-1.4-.432-1.4-1.526a1.455,1.455,0,0,1,1.525-.852,13.075,13.075,0,0,0,1.411,0,3.15,3.15,0,0,0,3.035-3.307A3.113,3.113,0,0,0,62.5,53.97c-.519-.038-1.043-.019-1.565-.028-.97-.017-1.254-.241-1.539-1.207a1.384,1.384,0,0,1,1.41-1.184,3.119,3.119,0,0,0,3.009-3.383,3.169,3.169,0,0,0-3.409-3.125q-8.379-.009-16.759,0c-.21,0-.42.006-.629,0-.811-.029-1.3-.462-1.309-1.156-.011-.71.513-1.189,1.353-1.2.879-.014,1.759,0,2.635,0v-2.3a13.011,13.011,0,0,1-1.975-.793,2.531,2.531,0,0,0-2.6.07c-.306.146-.6.315-.893.49-3.095,1.863-6.169,3.761-9.291,5.575-.9.526-1.624.985-1.126,2.167a.638.638,0,0,1,.01.234q0,8.261.007,16.523a1.2,1.2,0,0,1-1.1,1.366c-.981-.166-1.267-.5-1.268-1.532q0-8.018,0-16.035a2.271,2.271,0,0,0-2.483-2.494c-2.017-.01-4.038.064-6.052-.021-2.181-.092-2.954,1.187-2.947,2.965.026,6.707.01,13.415.012,20.122,0,.287.026.574.04.862-.013,1.962-.089,3.926-.02,5.885a2.324,2.324,0,0,0,2.323,2.458q3.455.045,6.911,0a2.216,2.216,0,0,0,2.206-2.213c.025-1.988-.009-3.978-.018-5.967M47.925,2.857a1.62,1.62,0,0,0-.31.014A18.246,18.246,0,0,0,33.65,20.218C33.6,27.58,36.913,33.133,43.313,36.75A28.731,28.731,0,0,0,47.766,38.4a16.237,16.237,0,0,0,8.166.1A18.273,18.273,0,0,0,60.626,4.584a17.363,17.363,0,0,0-12.7-1.727" transform="translate(-13.633)" fill="#fff"/>
        <path id="Trazado_113529" data-name="Trazado 113529" d="M307.293,151.451a5.346,5.346,0,0,1-2.569,3.988,3.824,3.824,0,0,1-4.274-.459c-.985-.691-2-1.339-2.99-2.023a4.011,4.011,0,0,1,3.963-6.943c1.275.6,2.546,1.214,3.8,1.867a3.884,3.884,0,0,1,2.075,3.57m-7.53-3.518a1.736,1.736,0,0,0-1.663,1.33,1.345,1.345,0,0,0,.57,1.643c1.156.808,2.322,1.6,3.511,2.362a1.391,1.391,0,0,0,2.041-.469,7.081,7.081,0,0,0,.505-.883,1.369,1.369,0,0,0-.6-1.941c-1.295-.675-2.62-1.291-3.937-1.922a2.029,2.029,0,0,0-.423-.12" transform="translate(-236.457 -115.021)" fill="#fff"/>
        <path id="Trazado_113530" data-name="Trazado 113530" d="M321.263,86.494c-1.644-.132-2.957-.176-4.25-.357a4,4,0,0,1,.377-7.911c1.149-.082,2.3-.125,3.444-.269,3.075-.389,5.21,1.587,4.791,5.111a3.809,3.809,0,0,1-4.362,3.426m-.312-2.414v0c.157.009.314.02.471.028,1.314.07,1.858-.456,1.868-1.808.011-1.489-.509-2.065-1.85-1.992-1.2.065-2.406.168-3.608.264-1.175.094-1.675.587-1.681,1.633s.553,1.6,1.738,1.685c1.02.07,2.041.13,3.061.195" transform="translate(-250.787 -61.557)" fill="#fff"/>
        <path id="Trazado_113531" data-name="Trazado 113531" d="M299.708,12.474a4.187,4.187,0,0,1-3.864-3,3.754,3.754,0,0,1,1.488-4.351c1.158-.808,2.328-1.6,3.517-2.362a3.783,3.783,0,0,1,5.441,1.277,4.665,4.665,0,0,1,.947,3.16,3.649,3.649,0,0,1-1.952,2.872c-1.366.711-2.755,1.38-4.154,2.023a8.453,8.453,0,0,1-1.424.381m5.382-5.645c-.367-.682-.61-1.228-.937-1.718a1.363,1.363,0,0,0-1.931-.425q-1.816,1.158-3.575,2.4a1.418,1.418,0,0,0-.348,2.076,1.436,1.436,0,0,0,1.977.729c1.28-.586,2.561-1.18,3.786-1.869.419-.236.672-.768,1.029-1.2" transform="translate(-236.452 -1.66)" fill="#fff"/>
        <path id="Trazado_113532" data-name="Trazado 113532" d="M41.021,151.675c.07-1.971.7-3.123,2.012-3.82,1.337-.71,2.7-1.385,4.075-2.006a4.012,4.012,0,0,1,4.032,6.819c-1.26.931-2.566,1.811-3.91,2.617A3.675,3.675,0,0,1,42.1,154a19.844,19.844,0,0,1-1.081-2.325m7.567-3.81a3.7,3.7,0,0,0-.642.2c-1.222.586-2.443,1.177-3.65,1.793a1.443,1.443,0,0,0-.836,1.747c.316,1.107,1.167,1.92,1.959,1.854a1.154,1.154,0,0,0,.527-.138c1.3-.866,2.621-1.717,3.883-2.641a1.284,1.284,0,0,0,.313-1.646,1.693,1.693,0,0,0-1.553-1.165" transform="translate(-35.273 -114.962)" fill="#fff"/>
        <path id="Trazado_113533" data-name="Trazado 113533" d="M26.4,86.569a4.422,4.422,0,0,1-3.213-.725c-1.629-1.192-1.873-3.435-1.29-5.288a3.709,3.709,0,0,1,3.988-2.518c1.437.07,2.875.17,4.307.311a4.021,4.021,0,0,1,.271,7.854c-1.341.209-2.708.25-4.063.366m-.035-2.394v.008c1.15-.08,2.306-.12,3.45-.253.931-.109,1.345-.718,1.311-1.73a1.4,1.4,0,0,0-1.371-1.511c-1.358-.116-2.718-.221-4.079-.294a1.457,1.457,0,0,0-1.634,1.156,2.156,2.156,0,0,0,.776,2.519,1.576,1.576,0,0,0,.6.141c.313.013.628-.021.942-.035" transform="translate(-19.939 -61.653)" fill="#fff"/>
        <path id="Trazado_113534" data-name="Trazado 113534" d="M48.022,12.523c-1.945-.75-4.385-1.5-6.239-3.308a3.165,3.165,0,0,1-.659-3.452c.816-2.251,2.116-3.648,4.33-3.49a4.5,4.5,0,0,1,1.9.639c1.212.721,2.369,1.537,3.525,2.347a3.773,3.773,0,0,1,1.49,4.286,4.169,4.169,0,0,1-4.343,2.977m.443-2.362a1.609,1.609,0,0,0,1.609-1.244,1.369,1.369,0,0,0-.549-1.723q-1.709-1.177-3.448-2.31a1.346,1.346,0,0,0-1.9.2C43.338,6.176,43,6.908,43.6,7.753a.85.85,0,0,0,.277.272q2.1,1.049,4.206,2.076a1.094,1.094,0,0,0,.379.06" transform="translate(-35.167 -1.787)" fill="#fff"/>
        <path id="Trazado_113553" data-name="Trazado 113553" d="M155.1,47.573a1.267,1.267,0,0,1-.324-1.748c.411-.817.825-1.633,1.223-2.456.388-.8.259-1.193-.523-1.588q-1.33-.672-2.673-1.315c-.851-.41-1.2-.29-1.629.565q-2.928,5.9-5.847,11.8c-.093.187-.181.377-.283.56a1.185,1.185,0,0,1-2.217.062c-.92-1.492-1.8-3.006-2.7-4.512-.662-1.111-.917-1.172-2.051-.492-.785.471-1.578.93-2.356,1.413-.692.43-.8.806-.385,1.5,1.954,3.283,3.9,6.567,5.9,9.822a1.491,1.491,0,0,0,1.069.586c1.2.034,2.409-.086,3.615-.094a1.515,1.515,0,0,0,1.509-.989c1.63-3.364,3.307-6.706,4.971-10.053.492-.989.809-1.136,1.867-.9a1.488,1.488,0,0,1,.241,1.98q-2.563,5.081-5.057,10.2A3.393,3.393,0,0,1,146.382,64c-1.414.065-2.828.149-4.243.16a3.1,3.1,0,0,1-2.825-1.558c-2.053-3.409-4.111-6.816-6.123-10.25a3.149,3.149,0,0,1,1.1-4.39q1.525-.967,3.1-1.853a3.2,3.2,0,0,1,4.453,1.119c.657,1.038,1.27,2.1,1.968,3.268.169-.317.3-.55.418-.788q2.411-4.851,4.82-9.7a3.268,3.268,0,0,1,4.821-1.654c.94.461,1.885.911,2.814,1.392a3.239,3.239,0,0,1,1.529,4.458c-.42.9-.87,1.789-1.323,2.674-.435.849-.855,1-1.793.694" transform="translate(-107.723 -29.922)" fill="#fff"/>
      </g>
    </g>
  </g>
</svg>
