<svg xmlns="http://www.w3.org/2000/svg" width="537.977" height="421.495" viewBox="0 0 537.977 421.495">
  <g id="Grupo_914872" data-name="Grupo 914872" transform="translate(-430.023 -2389.229)">
    <g id="Grupo_151265" data-name="Grupo 151265" transform="translate(430.023 2389.229)">
      <path id="Trazado_157091" data-name="Trazado 157091" d="M153.164,998c15.276,8.817,40.12,8.775,55.493-.1s15.451-23.22.175-32.04-40.123-8.775-55.5.1S137.889,989.184,153.164,998Z" transform="translate(-133.851 -682.248)" fill="#bfdbe7"/>
      <g id="Grupo_151264" data-name="Grupo 151264" transform="translate(0 4.957)">
        <g id="Grupo_151251" data-name="Grupo 151251" transform="translate(10.49 283.753)">
          <path id="Trazado_157092" data-name="Trazado 157092" d="M144.9,964.137s-1.631.262-2.162,2.844a7.218,7.218,0,0,0,.143,4.412c.189.332,2.229,4.238,3.284,4.856s1.334.545,1.334.545,3.79,7.716,6.2,10.127,8.136,5.425,14.2,5.415,7.444-3.888,7.469-4.457-.3-2.983-5.732-6.693S144.9,964.137,144.9,964.137Z" transform="translate(-142.497 -958.842)" fill="#2e3442"/>
          <path id="Trazado_157093" data-name="Trazado 157093" d="M161.465,962.991c.1.335-.524,6.609,1.38,8.708s10.326,12.125,10.752,13.631a20.478,20.478,0,0,1,.2,5.383c-.066.8-4.265,4.95-10.934,3.3s-11-7.867-13.341-12.1-5.886-7.877-6.466-10-.437-9.177-.437-9.278S161.465,962.991,161.465,962.991Z" transform="translate(-142.232 -962.621)" fill="#40485c"/>
        </g>
        <g id="Grupo_151252" data-name="Grupo 151252" transform="translate(47.147 266.468)">
          <path id="Trazado_157094" data-name="Trazado 157094" d="M157.784,959.093c-1.45,1.1-4.744,3.877-4.786,5.973a10.475,10.475,0,0,0,.346,3.755c.265.639,6.375,3.008,7.933,3.556s2.306-.587,4,.629,5.98,4.531,8.15,6.106,7.8,3.1,12.558,2.362,5.229-2.4,5.575-4.374a8.238,8.238,0,0,0-1.348-5.153c-.538-.789-3.654-2.91-9.306-3.717S157.784,959.093,157.784,959.093Z" transform="translate(-152.991 -954.133)" fill="#2e3442"/>
          <path id="Trazado_157095" data-name="Trazado 157095" d="M168.205,957.673a20.061,20.061,0,0,0,2.141,5.107s15.475,7.594,17.707,10.316a10.6,10.6,0,0,1,2.19,6.193s-.908,3.161-6.934,3.193c-6.145.031-10.392-2.037-11.943-3.682a21.738,21.738,0,0,0-8.185-4.716c-5.481-1.289-10.032-3.189-9.959-5.917.077-2.816.52-8.862.52-8.862Z" transform="translate(-152.415 -957.673)" fill="#40485c"/>
        </g>
        <path id="Trazado_157096" data-name="Trazado 157096" d="M158.968,894.957c10.8-1.558,17.008,7.989,20.488,21.281,1.638,6.27,8.461,30.894,9.24,35.889s-3.811,10.015-6.344,10.274-5.191,2.466-9.795-2.983S142.868,893.807,158.968,894.957Z" transform="translate(-104.226 -847.984)" fill="#dbe6ff"/>
        <path id="Trazado_157097" data-name="Trazado 157097" d="M173.277,909.282c3.566,1.925,12.478,13.861,21.993,19.744,5.278,7.528-.433,13.843-4.066,13.843s-31.732-15.569-32.648-22.014C160.233,915.186,162.353,908.395,173.277,909.282Z" transform="translate(-91.968 -812.05)" fill="#e0e9ff"/>
        <path id="Trazado_157098" data-name="Trazado 157098" d="M173.256,914.334s3.633.43,5.062.646a2.585,2.585,0,0,1,1.9,1.083l-.175,1.642s1.429.866,1.037,1.949-2.162.646-2.162.646l-2.6-1.6s-2.334.608-2.55,1.083a2.979,2.979,0,0,1-2.812,2.466c-2.554.433-3.937-2.77-2.941-4.37S173.256,914.334,173.256,914.334Z" transform="translate(-69.175 -799.258)" fill="#ffadb7"/>
        <path id="Trazado_157099" data-name="Trazado 157099" d="M179.394,920.346c2.512,12.2,6.49,18.426,5.711,33.566s-.419,54.026-2.805,61.292-14.193,3.375-18.088,1.429a12.472,12.472,0,0,1-6.487-7.786c-.65-2.466-9.086-72.019-7.137-78.9S179.394,920.346,179.394,920.346Z" transform="translate(-112.559 -784.269)" fill="#4b7d00"/>
        <path id="Trazado_157100" data-name="Trazado 157100" d="M187.447,934.666s1.719,16.352,0,24.784-9.638,9.215-10.417,11.81-1.443,36.654-3.909,44.7-26.2,10.469-26.716,2.871,1.3-11.238-1.167-26.419-3.965-25.692-1.789-43.6a241.792,241.792,0,0,1,4.772-28.159C148.483,919.485,187.447,934.666,187.447,934.666Z" transform="translate(-132.254 -783.667)" fill="#528700"/>
        <path id="Trazado_157101" data-name="Trazado 157101" d="M151.919,967.71c.234,4.814.852,21.857,1.474,31.4.307,4.7.629,9.041.94,12.125,2.774,4.154,18.21,3.584,19.16-1.177.29-1.45.926-6.1,1.663-11.87,1.691-13.208,3.944-32.27,3.944-32.27s-22.406-28.365-22.584-27.506S151.576,960.532,151.919,967.71Z" transform="translate(-108.561 -739.28)" fill="#4b7d00"/>
        <path id="Trazado_157102" data-name="Trazado 157102" d="M141.859,1010.563a14.047,14.047,0,0,0,1.348,6.344c2.386,4.709,17.466,10,20.841.664a74.167,74.167,0,0,1,1.219-8.562c2.641-14.326,8.621-38.3,9.233-46.439l-22.992-20.264s-3.521-3.6-5.938,14.067C143.714,969.891,141.66,999.639,141.859,1010.563Z" transform="translate(-133.632 -730.272)" fill="#528700"/>
        <g id="Grupo_151253" data-name="Grupo 151253" transform="translate(9.13 145.282)">
          <path id="Trazado_157103" data-name="Trazado 157103" d="M142.221,1083.337c-.95-15.852,4.311-59.27,7.846-82.915a18.433,18.433,0,0,0,.126-4.468c-4.51-47.221-3.312-51.57,2.445-72.473l.14-.5,4.964,1.366-.14.5c-5.68,20.62-6.7,24.337-2.285,70.615a23.428,23.428,0,0,1-.157,5.718c-3.5,23.439-8.726,66.385-7.8,81.846Z" transform="translate(-142.108 -922.981)" fill="#bfc8de"/>
        </g>
        <path id="Trazado_157104" data-name="Trazado 157104" d="M169.559,897.029a97.656,97.656,0,0,0-27.816,14.86c-2.6,2.788,9.952,70.332,7.961,82.7,12.544,12.46,34.345,8.565,40.315,8.307s12.715-4.845,14.015-10.036-.779-33.912.95-49.226.989-27.156-1.9-35.729c-7.783-23.1-23.1-7.87-23.1-7.87Z" transform="translate(-134.774 -847.182)" fill="#d4dff7"/>
        <path id="Trazado_157105" data-name="Trazado 157105" d="M166.459,907.084s1.23,16.547,1.167,18.556-9.407,4.154-9.407,4.154-9.086-.975-9.54-2.92-.713-18.1-.713-18.1Z" transform="translate(-118.372 -817.334)" fill="#e0e9ff"/>
        <path id="Trazado_157106" data-name="Trazado 157106" d="M147.95,992.977c-.073,3.539,14.734,10.169,31.834,7.769,1.355-.192,2.651-.405,3.877-.646v-.007c1.876-.353,3.605-.772,5.208-1.229,10.651-2.993,15.381-7.517,15.66-8.328.353-1.006-1.177-33.468,0-43.127s.073-24.956-1.991-34.454-6.55-13.533-13.638-16.02-13.037-2.941-12.911-2.662,14,5.184,15.933,19.873a63.546,63.546,0,0,1-3.574,29.689,37.31,37.31,0,0,1-2.574,5.509c-.936-1.516-1.789-2.934-2.575-4.265-10.822-18.388-8.328-20.456-23.747-36.832-2.749-2.927-3.3-2.889-3.375-2.861.272-.255,4.744-4.258,7.751-4.464,3.105-.22-3.626-.22-3.626-.22-7.636,3.5-15.747,8.6-18.266,12.254,9.617,2.921,14.287,6.414,18.891,18.832s-.08,28.651-6.054,31.659-6.871,1.45-6.707,1.809S148.016,989.442,147.95,992.977Z" transform="translate(-133.401 -849.456)" fill="#84d600"/>
        <g id="Grupo_151254" data-name="Grupo 151254" transform="translate(49.799 94.379)">
          <path id="Trazado_157107" data-name="Trazado 157107" d="M153.75,914.022c.014.374,1.317,33.9.461,50.645,1.876-.353,3.605-.772,5.208-1.23.72-17.155-.44-47.525-.52-49.572v-5.456a37.3,37.3,0,0,1-2.575,5.509c-.936-1.516-1.789-2.935-2.574-4.265Z" transform="translate(-153.75 -908.409)" fill="#bfc8de"/>
        </g>
        <path id="Trazado_157108" data-name="Trazado 157108" d="M160.914,964.2c.6-4.412,2.319-27.338.761-40.975S158.619,905.94,152.649,902c-5.977-2.389-6.186-2.079-6.186-2.079-2.533,1.219-6.071,4.161-6.847,33.594-.528,19.849.768,26.5,1.67,28.183S160.914,964.2,160.914,964.2Z" transform="translate(-139.494 -835.217)" fill="#e0e9ff"/>
        <path id="Trazado_157109" data-name="Trazado 157109" d="M172.517,917.186s-5.729,10.7-5.537,14.357-12.188.573-14.825-3.738-4.388-6.1-3.853-9.033,2.281-7.35,2.92-14.182,5.124-19.946,9.984-18.363S172.517,917.186,172.517,917.186Z" transform="translate(-117.774 -869.665)" fill="#ffadb7"/>
        <path id="Trazado_157110" data-name="Trazado 157110" d="M152.761,893.934,152,896.791s.688,4.436,7.227,8.855,10.916,5.537,10.916,5.537l-3.109,9.215a32.35,32.35,0,0,1-5.062-2.658c-2.606-1.687-12.74-8.593-14.123-11.72s-.754-4.614-.754-4.614l3.818-7.35Z" transform="translate(-120.899 -850.119)" fill="#e0e9ff"/>
        <path id="Trazado_157111" data-name="Trazado 157111" d="M156.351,897.478c.031,1.152-1.6,3.3-2.76,4.869,1.649,3.738,6.008,6.532,6.008,6.532s.416-8.041.171-9.7S156.351,897.478,156.351,897.478Z" transform="translate(-104.347 -841.284)" fill="#e0e9ff"/>
        <path id="Trazado_157112" data-name="Trazado 157112" d="M168.5,915.954a11.957,11.957,0,0,0-1.167,4.974,17.879,17.879,0,0,0,1.167,6.012,15.962,15.962,0,0,0,4.237,2.941c1.687.779,5.236,0,5.236,0s7.654-9.6,7.654-10.036a13.289,13.289,0,0,0-.259-1.642l-5.883-3.374-7.786.433Z" transform="translate(-70.086 -798.024)" fill="#ffadb7"/>
        <path id="Trazado_157113" data-name="Trazado 157113" d="M160.632,925.111s2.742.087,3.685.262,3.193.863,3.193.863a3.007,3.007,0,0,0,2.725,1.3c2.026,0,2.033-1.146,2.033-1.708s-2.725-1.991-3.633-2.77c-.95-.259-4.67-1.362-5.883-1.275s-5.949.59-7.339,1.341-2.225,1.293-2.225,1.293S155.7,925.587,160.632,925.111Z" transform="translate(-105.352 -780.7)" fill="#ffadb7"/>
        <g id="Grupo_151262" data-name="Grupo 151262" transform="translate(47.589 104.448)">
          <g id="Grupo_151261" data-name="Grupo 151261" style="isolation: isolate">
            <g id="Grupo_151255" data-name="Grupo 151255" transform="translate(0 61.119)">
              <path id="Trazado_157114" data-name="Trazado 157114" d="M153.19,930.206l1.82,2.267c-.178-.224-.042-.7.461-1.418l-1.817-2.267C153.151,929.508,153.015,929.986,153.19,930.206Z" transform="translate(-153.117 -928.788)" fill="#2e3442"/>
            </g>
            <g id="Grupo_151256" data-name="Grupo 151256" transform="translate(70.918)">
              <path id="Trazado_157115" data-name="Trazado 157115" d="M178.058,913.7l-1.816-2.264c-.269-.335-1.272-.08-2.823.818l1.816,2.264C176.786,913.62,177.786,913.361,178.058,913.7Z" transform="translate(-173.419 -911.291)" fill="#2e3442"/>
            </g>
            <g id="Grupo_151257" data-name="Grupo 151257" transform="translate(0.538 31.665)">
              <path id="Trazado_157116" data-name="Trazado 157116" d="M175.682,922.621l-1.816-2.264-20.594,29.455,1.817,2.264Z" transform="translate(-153.271 -920.356)" fill="#2e3442"/>
            </g>
            <g id="Grupo_151258" data-name="Grupo 151258" transform="translate(28.093 0.959)">
              <path id="Trazado_157117" data-name="Trazado 157117" d="M205.8,913.83l-1.817-2.264L161.16,936.291l1.816,2.264Z" transform="translate(-161.16 -911.566)" fill="#2e3442"/>
            </g>
            <g id="Grupo_151259" data-name="Grupo 151259" transform="translate(21.133 25.684)">
              <path id="Trazado_157118" data-name="Trazado 157118" d="M167.942,920.907l-1.813-2.264a25.564,25.564,0,0,0-6.962,5.981l1.816,2.267A25.549,25.549,0,0,1,167.942,920.907Z" transform="translate(-159.167 -918.644)" fill="#2e3442"/>
            </g>
            <g id="Grupo_151260" data-name="Grupo 151260" transform="translate(1.817 2.264)">
              <path id="Trazado_157119" data-name="Trazado 157119" d="M181.729,937.623a25.544,25.544,0,0,0-6.958,5.984l-20.6,29.455c-1.268,1.816-.213,2.085,2.358.6l42.827-24.725a25.6,25.6,0,0,0,6.958-5.984l20.6-29.455c1.268-1.817.213-2.085-2.358-.6Z" transform="translate(-153.637 -911.939)" fill="#2e3442"/>
            </g>
          </g>
        </g>
        <path id="Trazado_157120" data-name="Trazado 157120" d="M178.6,918.646s-3.364.188-3.818.545-.192,1.491-.192,1.491l-1.914-1.589s-1.523.978-1.54,1.966c-.538.7-1.446,1.471-1.509,2.575l-.066,1.1a2.693,2.693,0,0,0-.486,2.239c.423,1.006,3.535,2.627,3.535,2.627s4.056-1.006,4.576-1.785a5.222,5.222,0,0,0,.29-2.627l.391-.842a2.526,2.526,0,0,0,2.106-.458c1.072-.775.618-2.725.618-2.725a7.21,7.21,0,0,0,2.271-1.88c.583-.975-1.006-3.343-1.006-3.343l-.541-.15-.821,2Z" transform="translate(-66.029 -795.616)" fill="#ffadb7"/>
        <path id="Trazado_157121" data-name="Trazado 157121" d="M186.686,953c-1.82,2.634-3.092,2.365-6.833,1.446s-42.5-19.513-39.746-31.858,16.551-7.385,18.814-5.219a125.356,125.356,0,0,0,16.97,14.752c9.355,6.676,14.958,9.051,15.583,10.406S186.686,953,186.686,953Z" transform="translate(-138.315 -798.742)" fill="#e0e9ff"/>
        <path id="Trazado_157122" data-name="Trazado 157122" d="M155.244,923.481a20.391,20.391,0,0,1,4.248-1.383c1.513-.175,8.649,1.471,8.649,1.471s5.233,2.379,5.32,3.2.217,3.287.217,3.287l-.346.733a5.774,5.774,0,0,1,.346,2.424,3.45,3.45,0,0,1-1.125,1.513,3.684,3.684,0,0,1-.6,1.991c-.562.563-1,.475-1,.475a8.134,8.134,0,0,1-.95,2.121,10.014,10.014,0,0,1-2.9.821s-3.937.521-5.579,0-6.906-4.8-7.944-5.1a3.628,3.628,0,0,1-1.687-1.167S152.8,925.235,155.244,923.481Z" transform="translate(-108.578 -779.933)" fill="#ffadb7"/>
        <path id="Trazado_157123" data-name="Trazado 157123" d="M181.24,887.176c1.1,2.236,2.739,3.42,1.757,9.191a128.984,128.984,0,0,1-5.746,20.145c-1.362,3.011-4.932,9.7-6.159,10.731s-4.74,1.261-6.714,1.188-12.244-7.486-13.592-11.475-1.1-19.967,1.4-25.228S176.657,885.643,181.24,887.176Z" transform="translate(-113.363 -868.684)" fill="#ffadb7"/>
        <path id="Trazado_157124" data-name="Trazado 157124" d="M181,907.163a28.768,28.768,0,0,1-4.621-.052c-1.8-.164-3.49-.839-5.285-.989a2.946,2.946,0,0,0-1.247.112c-1.149.43-.975,2.459-1.2,3.486a6.736,6.736,0,0,1-1.209,3.158c-1.527,1.6-5.261,2.655-6.207,6.861l-.524,3.43-2.641-1.967a55.634,55.634,0,0,0,.217-7.046c-.213-2.225-2.648-6.075-5.184-1.834.468,3.434.265,4.517-1.792,8.873-1.607-7.427-3.137-8.956-3.392-18.043s1.942-18.063,11.779-19.317c8.677-4.44,15.712-2.795,23.674,4.632,7.874,7.346,6.49,14.434,6.459,14.588a5.447,5.447,0,0,1-1.575,2.442c-1.757,1.219-4.5,1.415-6.567,1.607C181.457,907.128,181.23,907.146,181,907.163Z" transform="translate(-118.547 -881.391)" fill="#202459"/>
        <g id="Grupo_151263" data-name="Grupo 151263" transform="translate(28.875 16.85)">
          <path id="Trazado_157125" data-name="Trazado 157125" d="M170.368,902.2c-3.147,0-7.734-2.072-12.9-4.405l-.887-.4c-7.958-3.588-8.817-9.016-8.817-11.182h2.072c0,1.764.744,6.2,7.6,9.288l.887.4c5.338,2.41,10.857,4.9,13.1,4.069l.73,1.942A5.138,5.138,0,0,1,170.368,902.2Z" transform="translate(-147.76 -886.215)" fill="#d4dff7"/>
        </g>
        <path id="Trazado_157126" data-name="Trazado 157126" d="M154.38,892.81c-.388-2.568-1.53-3.294-3.5-3.235s-2.641,1.17-2.047,5.386,2.2,6.33,4.028,6.554,1.624-1.852,1.544-3.092S154.38,892.81,154.38,892.81Z" transform="translate(-116.72 -860.995)" fill="#ffadb7"/>
      </g>
      <path id="Trazado_157127" data-name="Trazado 157127" d="M147.651,900.993c.493,6.861,15.447,13.854,26.255,15.569s17.141-.856,19.719-4.908a33.161,33.161,0,0,0-.692-15.492c-.775-2.564-2.508-6.693-4.29-8.74-8.667-8.4-22.493-7.577-25.427-6.881-9.275,3.465-14.57,10.417-15.44,17.955A18.576,18.576,0,0,0,147.651,900.993Z" transform="translate(-119.164 -879.574)" fill="#ffae00"/>
      <path id="Trazado_157128" data-name="Trazado 157128" d="M150.449,886.482c-1.051,5.135,5.474,10.812,14.581,12.68s17.34-.779,18.4-5.914-5.474-10.808-14.581-12.677S151.5,881.348,150.449,886.482Z" transform="translate(-112.457 -879.972)" fill="#ffae00"/>
      <path id="Trazado_157129" data-name="Trazado 157129" d="M181.677,888.68s3.06,3.644,1.16,7.7-11.922,6.047-18.661,4.408-11.636-7.933-11.636-7.933,13.589,4.828,23.412,1.24C180.388,891.677,180.776,891.255,181.677,888.68Z" transform="translate(-106.968 -858.262)" fill="#ffbb29"/>
      <path id="Trazado_157130" data-name="Trazado 157130" d="M151.765,885.3c-.761,3.713,3.961,7.825,10.553,9.177s12.548-.562,13.313-4.279-3.961-7.825-10.553-9.177S152.531,881.584,151.765,885.3Z" transform="translate(-109.099 -878.438)" fill="#ffbb29"/>
      <path id="Trazado_157131" data-name="Trazado 157131" d="M147.651,889.552c.493,6.861,15.447,13.854,26.255,15.569s17.141-.856,19.719-4.908a33.161,33.161,0,0,0-.692-15.492c-.748,6.973-4.321,12.121-13.795,13.826-8.551,1.544-25.71-3.039-31.362-11.493A18.577,18.577,0,0,0,147.651,889.552Z" transform="translate(-119.164 -868.133)" fill="#f59200"/>
    </g>
    <g id="Grupo_912281" data-name="Grupo 912281" transform="translate(672.745 2491.179)">
      <path id="Trazado_157133" data-name="Trazado 157133" d="M167.208,1002.76l58.733-33.909,58.421,33.729-58.733,33.91Z" transform="translate(-80.601 -809.303)" fill="#bfdbe7"/>
      <path id="Trazado_157134" data-name="Trazado 157134" d="M180.625,999.37l81.885-47.276,81.45,47.026L262.075,1046.4Z" transform="translate(-180.625 -843.039)" fill="#bfdbe7"/>
      <g id="Grupo_151272" data-name="Grupo 151272" transform="translate(12.281 0)">
        <g id="Grupo_151266" data-name="Grupo 151266" transform="translate(0 40.623)">
          <path id="Trazado_157135" data-name="Trazado 157135" d="M207.8,1018.243l69.169,39.935V982.654L207.8,942.719Z" transform="translate(-207.8 -902.534)" fill="#ae835b"/>
          <path id="Trazado_157136" data-name="Trazado 157136" d="M254.3,1018.159l-69.6,40.186V982.822l69.6-40.186Z" transform="translate(-115.531 -902.702)" fill="#c99a6b"/>
          <path id="Trazado_157137" data-name="Trazado 157137" d="M170.356,989.873v56.383l49.246-28.432V961.441Z" transform="translate(-37.606 -864.844)" fill="#c99a6b"/>
          <path id="Trazado_157138" data-name="Trazado 157138" d="M186.7,1017.883l48.939,28.255V989.754L186.7,961.5Z" transform="translate(-102.888 -864.726)" fill="#ae835b"/>
          <path id="Trazado_157139" data-name="Trazado 157139" d="M170.356,980.5l48.939,28.255,49.246-28.432L219.6,952.064Z" transform="translate(-86.545 -883.722)" fill="#e8b687"/>
          <path id="Trazado_157140" data-name="Trazado 157140" d="M184.7,969.569,253.87,1009.5l69.6-40.186L254.3,929.383Z" transform="translate(-184.701 -929.383)" fill="#e8b687"/>
        </g>
        <g id="Grupo_151267" data-name="Grupo 151267" transform="translate(104.334 120.813)">
          <path id="Trazado_157141" data-name="Trazado 157141" d="M185.368,991.618l-8.2,4.735V970.108l8.2-4.735Z" transform="translate(-128.228 -937.118)" fill="#f59200"/>
          <path id="Trazado_157142" data-name="Trazado 157142" d="M234.307,984.25l-8.2,4.735-48.939-28.255,8.2-4.735Z" transform="translate(-177.167 -955.996)" fill="#ffae00"/>
        </g>
        <g id="Grupo_151268" data-name="Grupo 151268" transform="translate(30.484 58.222)">
          <path id="Trazado_157143" data-name="Trazado 157143" d="M217.916,981.713l8.2,4.735V953.3l-8.2-4.735Z" transform="translate(-217.916 -908.375)" fill="#d66b00"/>
          <path id="Trazado_157144" data-name="Trazado 157144" d="M194.817,975.41l8.2,4.735,69.6-40.186-8.2-4.735Z" transform="translate(-194.817 -935.224)" fill="#ffae00"/>
        </g>
        <path id="Trazado_157145" data-name="Trazado 157145" d="M192.119,959.235,241.362,930.8l48.983,28.28L241.1,987.516Z" transform="translate(-173.926 -885.899)" fill="#ae835b"/>
        <g id="Grupo_151271" data-name="Grupo 151271" transform="translate(25.583)">
          <g id="Grupo_151269" data-name="Grupo 151269">
            <path id="Trazado_157146" data-name="Trazado 157146" d="M250.228,948.035v48.836l-41.854-24.164V923.871Z" transform="translate(-208.375 -899.858)" fill="#ae835b"/>
            <path id="Trazado_157147" data-name="Trazado 157147" d="M236.164,972.758l-41.592,24.013V947.934l41.592-24.014Z" transform="translate(-152.718 -899.757)" fill="#c99a6b"/>
            <path id="Trazado_157148" data-name="Trazado 157148" d="M278.018,940.066l-41.592,24.014-41.854-24.164L236.164,915.9Z" transform="translate(-194.572 -915.902)" fill="#e8b687"/>
          </g>
          <g id="Grupo_151270" data-name="Grupo 151270" transform="translate(16.696 9.639)">
            <path id="Trazado_157149" data-name="Trazado 157149" d="M208.314,951.209l-8.2,4.735V931.855l8.2-4.735Z" transform="translate(-158.259 -902.956)" fill="#f59200"/>
            <path id="Trazado_157150" data-name="Trazado 157150" d="M250.167,943.265l-8.2,4.735-41.853-24.164,8.2-4.735Z" transform="translate(-200.112 -919.101)" fill="#ffae00"/>
          </g>
        </g>
      </g>
    </g>
    <g id="Grupo_151250" data-name="Grupo 151250" transform="translate(515.339 2510.603)">
      <path id="Trazado_157067" data-name="Trazado 157067" d="M93.639,1067.523-8.2,1008.727l101.837-58.8,66.51,117.591Z" transform="translate(19.006 -808.342)" fill="#bfdbe7"/>
      <g id="Grupo_151240" data-name="Grupo 151240" transform="translate(72.296 0)">
        <g id="Grupo_151238" data-name="Grupo 151238">
          <g id="Grupo_151237" data-name="Grupo 151237" style="isolation: isolate">
            <g id="Grupo_151230" data-name="Grupo 151230" transform="translate(106.859 63.729)">
              <path id="Trazado_157068" data-name="Trazado 157068" d="M183.6,911.34,181.5,1046.656,75.245,1106.481l2.106-135.317Z" transform="translate(-75.245 -911.34)" fill="#b98347"/>
            </g>
            <g id="Grupo_151231" data-name="Grupo 151231" transform="translate(0 59.825)">
              <path id="Trazado_157069" data-name="Trazado 157069" d="M131.244,973.133l-2.106,135.317L22.279,1044.72,24.385,909.4Z" transform="translate(-22.279 -909.404)" fill="#e0b171"/>
            </g>
            <g id="Grupo_151233" data-name="Grupo 151233" transform="translate(4.828 168.003)">
              <g id="Grupo_151232" data-name="Grupo 151232" transform="translate(5.824 7.397)">
                <path id="Trazado_157070" data-name="Trazado 157070" d="M27.558,974.7v2.286l17.423,10.059v-2.285Z" transform="translate(-27.558 -958.54)" fill="#553819"/>
                <path id="Trazado_157071" data-name="Trazado 157071" d="M30.21,983.473l1.962,1.133V972.341l1.954,1.127L31.19,966.69l-2.935,3.389,1.954,1.127Z" transform="translate(-26.849 -966.69)" fill="#553819"/>
                <path id="Trazado_157072" data-name="Trazado 157072" d="M34.543,985.977l1.961,1.133V974.842l1.954,1.127-2.934-6.778-2.936,3.389,1.956,1.128Z" transform="translate(-22.441 -964.144)" fill="#553819"/>
              </g>
              <path id="Trazado_157073" data-name="Trazado 157073" d="M47.76,1002.893l-17.1-9.878c-3.3-1.9-5.984-6.135-5.984-9.434V966.474c0-3.3,2.685-4.43,5.984-2.528l17.1,9.878c3.3,1.9,5.982,6.135,5.982,9.434v17.107C53.742,1003.661,51.057,1004.8,47.76,1002.893Zm-17.1-37.744c-2.635-1.519-4.782-.613-4.782,2.021v17.1c0,2.635,2.147,6.016,4.782,7.537l17.1,9.876c2.635,1.523,4.779.615,4.779-2.019v-17.1c0-2.635-2.145-6.018-4.779-7.54Z" transform="translate(-24.672 -963.024)" fill="#553819"/>
            </g>
            <g id="Grupo_151234" data-name="Grupo 151234" transform="translate(38.504 187.444)">
              <path id="Trazado_157074" data-name="Trazado 157074" d="M65.17,994.151a.2.2,0,0,1-.1-.145c0-.373-1.463-1.632-3.571-2.851s-3.573-1.648-3.573-1.273c0,.047-.038.066-.093.034a.194.194,0,0,1-.095-.143c0-.341-1.2-1.4-2.982-2.5v9.444l-.04,1.116c-.208,1.15-1.239,1.318-2.5.593A5.182,5.182,0,0,1,49.7,994.53c0-.343.252-.466.565-.283a1.2,1.2,0,0,1,.565.936,2.8,2.8,0,0,0,1.4,2.024c1.507.869,1.36-.971,1.36-.971v-9.646c-1.79-.964-2.988-1.287-2.988-.944,0,.048-.042.062-.093.034a.2.2,0,0,1-.1-.144c0-.375-1.461-1.634-3.571-2.85s-3.569-1.648-3.569-1.273c0,.049-.044.063-.1.033a.211.211,0,0,1-.095-.145c.169-4.241,4.733-5.917,10.283-3.113h0c0-.3.365-.319.813-.06s.821.706.821,1h0c5.55,3.6,10.118,10.554,10.283,14.986C65.267,994.167,65.228,994.185,65.17,994.151Z" transform="translate(-39.632 -968.441)" fill="#553819"/>
              <path id="Trazado_157075" data-name="Trazado 157075" d="M64.45,1012.528l-17.1-9.874c-3.3-1.9-5.982-6.137-5.982-9.436V976.112c0-3.3,2.683-4.432,5.982-2.528l17.1,9.876c3.3,1.9,5.982,6.137,5.982,9.436V1010C70.432,1013.3,67.749,1014.435,64.45,1012.528Zm-17.1-37.742c-2.635-1.521-4.779-.613-4.779,2.022v17.1c0,2.635,2.145,6.018,4.779,7.542l17.1,9.874c2.637,1.521,4.779.615,4.779-2.02V992.2c0-2.635-2.143-6.016-4.779-7.539Z" transform="translate(-41.364 -972.66)" fill="#553819"/>
            </g>
            <g id="Grupo_151235" data-name="Grupo 151235" transform="translate(72.181 206.886)">
              <path id="Trazado_157076" data-name="Trazado 157076" d="M72.063,997.4c-.071,2.663-1.874,3.815-4.16,2.7v8.443l2.942,1.7v1.1l-6.611-3.815v-1.1l2.94,1.7V999.68a10.175,10.175,0,0,1-4.154-7.505v-6.238l9.045,5.221Z" transform="translate(-53.007 -978.592)" fill="#553819"/>
              <path id="Trazado_157077" data-name="Trazado 157077" d="M81.14,1022.166l-17.1-9.874c-3.3-1.9-5.982-6.139-5.982-9.436V985.75c0-3.3,2.683-4.434,5.982-2.528l17.1,9.874c3.3,1.906,5.986,6.139,5.986,9.438v17.1C87.126,1022.937,84.441,1024.07,81.14,1022.166Zm-17.1-37.742c-2.637-1.521-4.779-.615-4.779,2.019v17.107c0,2.633,2.143,6.016,4.779,7.539l17.1,9.874c2.637,1.521,4.782.613,4.782-2.02v-17.106c0-2.635-2.145-6.018-4.782-7.538Z" transform="translate(-58.056 -982.296)" fill="#553819"/>
            </g>
            <g id="Grupo_151236" data-name="Grupo 151236" transform="translate(2.106)">
              <path id="Trazado_157078" data-name="Trazado 157078" d="M236.435,943.481l-106.253,59.824L23.323,939.576l106.253-59.825Z" transform="translate(-23.323 -879.752)" fill="#f0cc8c"/>
            </g>
          </g>
        </g>
        <g id="Grupo_151239" data-name="Grupo 151239" transform="translate(45.031 23.276)">
          <path id="Trazado_157079" data-name="Trazado 157079" d="M66.586,891.289,44.6,903.669,151.455,967.4l21.988-12.38Z" transform="translate(-44.599 -891.289)" fill="#f8ecea"/>
        </g>
        <path id="Trazado_157080" data-name="Trazado 157080" d="M97.736,935.253l21.942-12.376-.3,22.015-21.94,12.271Z" transform="translate(54.196 -835.871)" fill="#c0a899"/>
      </g>
      <ellipse id="Elipse_4929" data-name="Elipse 4929" cx="30.066" cy="12.329" rx="30.066" ry="12.329" transform="translate(0 193.203)" fill="#bfdbe7"/>
      <g id="Grupo_151249" data-name="Grupo 151249" transform="translate(18.221 10.997)" style="isolation: isolate">
        <g id="Grupo_151241" data-name="Grupo 151241" transform="translate(41.91 103.166)">
          <path id="Trazado_157081" data-name="Trazado 157081" d="M24.832,958.732l-8.583-4.988L26.3,936.338l8.584,4.988Z" transform="translate(-16.249 -936.338)" fill="#b7c2cc"/>
        </g>
        <g id="Grupo_151242" data-name="Grupo 151242" transform="translate(50.492 108.154)">
          <path id="Trazado_157082" data-name="Trazado 157082" d="M30.554,938.81a20.9,20.9,0,0,0,10.713,6.1L31.216,962.32l-10.713-6.1Z" transform="translate(-20.503 -938.81)" fill="#f8f9fc"/>
        </g>
        <g id="Grupo_151243" data-name="Grupo 151243" transform="translate(8.583 122.641)">
          <path id="Trazado_157083" data-name="Trazado 157083" d="M36.518,945.991l5.122,2.919,10.713,6.1,5.123,2.919-36.813,63.733L-.269,1009.709Z" transform="translate(0.269 -945.991)" fill="#f2402d"/>
        </g>
        <g id="Grupo_151244" data-name="Grupo 151244" transform="translate(0 117.654)">
          <path id="Trazado_157084" data-name="Trazado 157084" d="M4.059,1012.224l-8.583-4.988,36.787-63.718,8.583,4.988Z" transform="translate(4.524 -943.518)" fill="#9e2212"/>
        </g>
        <g id="Grupo_151246" data-name="Grupo 151246" transform="translate(44.234)">
          <g id="Grupo_151245" data-name="Grupo 151245" style="isolation: isolate">
            <path id="Trazado_157085" data-name="Trazado 157085" d="M38.426,984.984,29.843,980a20.8,20.8,0,0,1-4.717-3.759c-11.673-12.414-10.124-39.862,4.695-65.5A101.918,101.918,0,0,1,39.2,897.123l8.585,4.989a101.9,101.9,0,0,0-9.377,13.61c-14.819,25.643-16.366,53.089-4.693,65.505a20.829,20.829,0,0,0,4.715,3.756Z" transform="translate(-17.401 -873.073)" fill="#9e2212"/>
            <path id="Trazado_157086" data-name="Trazado 157086" d="M36.789,913.906,28.2,908.917a77.871,77.871,0,0,1,20.766-18.2A44.69,44.69,0,0,1,62,885.532l8.583,4.987a44.718,44.718,0,0,0-13.027,5.187,77.879,77.879,0,0,0-20.764,18.2Z" transform="translate(-6.409 -884.867)" fill="#9e2212"/>
            <path id="Trazado_157087" data-name="Trazado 157087" d="M53.537,890.855l-8.583-4.987c6.283-1.32,12.2-.71,17.2,2.147L70.732,893c-5-2.855-10.911-3.464-17.2-2.147Z" transform="translate(10.635 -885.203)" fill="#9e2212"/>
          </g>
        </g>
        <g id="Grupo_151247" data-name="Grupo 151247" transform="translate(52.817 4.988)">
          <path id="Trazado_157088" data-name="Trazado 157088" d="M94.438,890.486c16.719,9.529,16.808,40.591.2,69.363-8.306,14.4-19.217,25.5-30.142,31.81-8.538,4.929-17.082,6.928-24.4,5.288a20.9,20.9,0,0,1-10.713-6.105c-11.673-12.416-10.126-39.862,4.693-65.505,8.306-14.4,19.217-25.5,30.142-31.81S86.08,885.706,94.438,890.486Zm-7,65.259c12.658-21.926,12.591-45.6-.151-52.863-6.369-3.631-14.706-2.471-23.032,2.334s-16.643,13.263-22.971,24.226c-12.658,21.925-12.591,45.6.149,52.863,6.371,3.63,14.708,2.472,23.034-2.336s16.64-13.263,22.971-24.224Z" transform="translate(-21.656 -887.675)" fill="#f2402d"/>
        </g>
        <g id="Grupo_151248" data-name="Grupo 151248" transform="translate(62.991 18.063)" opacity="0.65">
          <path id="Trazado_157089" data-name="Trazado 157089" d="M59.119,898.621c8.326-4.806,16.663-5.966,23.032-2.334,12.743,7.259,12.809,30.937.151,52.863-6.331,10.961-14.645,19.417-22.971,24.224S42.669,979.34,36.3,975.711c-12.741-7.261-12.807-30.939-.149-52.863C42.477,911.885,50.793,903.429,59.119,898.621Z" transform="translate(-26.698 -894.156)" fill="#fff"/>
        </g>
      </g>
    </g>
    <g id="Grupo_151273" data-name="Grupo 151273" transform="translate(705.41 2517.945)">
      <path id="Trazado_157133-2" data-name="Trazado 157133" d="M318.186,1012.55l-75.69-43.7-75.288,43.468,75.69,43.7Z" transform="translate(-167.208 -763.239)" fill="#bfdbe7"/>
      <path id="Trazado_157134-2" data-name="Trazado 157134" d="M391.117,1013.019,285.591,952.094l-104.966,60.6,105.526,60.926Z" transform="translate(-128.526 -811.553)" fill="#bfdbe7"/>
      <g id="Grupo_151272-2" data-name="Grupo 151272" transform="translate(12.223 0)">
        <g id="Grupo_151266-2" data-name="Grupo 151266" transform="translate(0 52.351)">
          <path id="Trazado_157135-2" data-name="Trazado 157135" d="M296.939,1040.047,207.8,1091.512V994.184l89.139-51.464Z" transform="translate(-62.398 -890.932)" fill="#ae835b"/>
          <path id="Trazado_157136-2" data-name="Trazado 157136" d="M184.7,1039.964l89.7,51.788V994.424l-89.7-51.788Z" transform="translate(-128.998 -891.172)" fill="#c99a6b"/>
          <path id="Trazado_157137-2" data-name="Trazado 157137" d="M233.82,998.081v72.662L170.356,1034.1V961.44Z" transform="translate(-170.356 -836.955)" fill="#c99a6b"/>
          <path id="Trazado_157138-2" data-name="Trazado 157138" d="M249.767,1034.161,186.7,1070.574V997.912L249.767,961.5Z" transform="translate(-123.235 -836.785)" fill="#ae835b"/>
          <path id="Trazado_157139-2" data-name="Trazado 157139" d="M296.888,988.7l-63.068,36.412-63.464-36.641,63.068-36.412Z" transform="translate(-170.356 -863.991)" fill="#e8b687"/>
          <path id="Trazado_157140-2" data-name="Trazado 157140" d="M363.539,981.171,274.4,1032.636l-89.7-51.788,89.139-51.465Z" transform="translate(-128.998 -929.383)" fill="#e8b687"/>
        </g>
        <g id="Grupo_151267-2" data-name="Grupo 151267" transform="translate(26.447 155.694)">
          <path id="Trazado_157141-2" data-name="Trazado 157141" d="M177.167,999.2l10.569,6.1V971.475l-10.569-6.1Z" transform="translate(-177.167 -928.96)" fill="#f59200"/>
          <path id="Trazado_157142-2" data-name="Trazado 157142" d="M177.167,992.408l10.569,6.1L250.8,962.1,240.235,956Z" transform="translate(-177.167 -955.996)" fill="#ffae00"/>
        </g>
        <g id="Grupo_151268-2" data-name="Grupo 151268" transform="translate(94.987 75.032)">
          <path id="Trazado_157143-2" data-name="Trazado 157143" d="M228.486,991.285l-10.569,6.1V954.662l10.569-6.1Z" transform="translate(-128.217 -896.772)" fill="#d66b00"/>
          <path id="Trazado_157144-2" data-name="Trazado 157144" d="M295.086,987.012l-10.569,6.1-89.7-51.788,10.569-6.1Z" transform="translate(-194.817 -935.224)" fill="#ffae00"/>
        </g>
        <path id="Trazado_157145-2" data-name="Trazado 157145" d="M318.7,967.443,255.243,930.8,192.119,967.25l63.461,36.639Z" transform="translate(-107.609 -872.934)" fill="#ae835b"/>
        <g id="Grupo_151271-2" data-name="Grupo 151271" transform="translate(94.034)">
          <g id="Grupo_151269-2" data-name="Grupo 151269">
            <path id="Trazado_157146-2" data-name="Trazado 157146" d="M208.375,955.012v62.937l53.937-31.141V923.871Z" transform="translate(-154.774 -892.924)" fill="#ae835b"/>
            <path id="Trazado_157147-2" data-name="Trazado 157147" d="M194.572,986.858l53.6,30.946V954.867l-53.6-30.947Z" transform="translate(-194.572 -892.78)" fill="#c99a6b"/>
            <path id="Trazado_157148-2" data-name="Trazado 157148" d="M194.572,947.042l53.6,30.947,53.937-31.141-53.6-30.946Z" transform="translate(-194.572 -915.902)" fill="#e8b687"/>
          </g>
          <g id="Grupo_151270-2" data-name="Grupo 151270" transform="translate(21.516 12.422)">
            <path id="Trazado_157149-2" data-name="Trazado 157149" d="M200.112,958.164l10.569,6.1V933.222l-10.569-6.1Z" transform="translate(-200.112 -895.979)" fill="#f59200"/>
            <path id="Trazado_157150-2" data-name="Trazado 157150" d="M200.112,950.241l10.569,6.1L264.619,925.2l-10.569-6.1Z" transform="translate(-200.112 -919.101)" fill="#ffae00"/>
          </g>
        </g>
      </g>
    </g>
  </g>
</svg>
