<svg xmlns="http://www.w3.org/2000/svg" width="125" height="125" viewBox="0 0 125 125">
  <g id="Grupo_154399" data-name="Grupo 154399" transform="translate(-428 -1466)">
    <circle id="Elipse_4764" data-name="Elipse 4764" cx="62.5" cy="62.5" r="62.5" transform="translate(428 1466)" fill="#fff"/>
    <g id="hoja-de-balance" transform="translate(441 1490.648)">
      <g id="Grupo_154395" data-name="Grupo 154395" transform="translate(2.602 2.602)">
        <g id="Grupo_154389" data-name="Grupo 154389" transform="translate(64.411 9.2)">
          <ellipse id="Elipse_4779" data-name="Elipse 4779" cx="15.603" cy="16.203" rx="15.603" ry="16.203" transform="translate(0 0)" fill="#fcd770"/>
        </g>
      </g>
      <g id="Grupo_154396" data-name="Grupo 154396" transform="translate(1 1)">
        <path id="Trazado_216529" data-name="Trazado 216529" d="M52.2,11v3.437a4.557,4.557,0,0,0-.676,8.432l3.125,1.562a1.369,1.369,0,0,1-.612,2.593h-.468A1.371,1.371,0,0,1,52.2,25.656V23.82H49v1.836A4.562,4.562,0,0,0,52.2,30v3.437h3.2V30a4.557,4.557,0,0,0,.676-8.432L52.961,20a1.369,1.369,0,0,1,.612-2.593h.468a1.371,1.371,0,0,1,1.368,1.368v.234h3.2v-.234a4.562,4.562,0,0,0-3.2-4.341V11Z" transform="translate(27.918 5.025)"/>
        <path id="Trazado_216530" data-name="Trazado 216530" d="M92.019,88.5A20.939,20.939,0,0,0,84.328,84.9V45.787a17.617,17.617,0,0,0,0-35.091V1H7.41V84.489a8.012,8.012,0,0,0,1.6,15.863H79.52a20.965,20.965,0,0,0,12.5-4.166,4.79,4.79,0,0,0,1.612-2.243h6.721v-3.2H93.631A4.77,4.77,0,0,0,92.019,88.5Zm5.128-60.254A14.422,14.422,0,1,1,82.725,13.82,14.439,14.439,0,0,1,97.147,28.242ZM81.123,4.2V10.7a17.617,17.617,0,0,0,0,35.091V84.393c-.532-.042-1.067-.066-1.6-.066H61a6.344,6.344,0,0,0,.891-3.2,6.416,6.416,0,0,0-6.41-6.41H29.844a6.416,6.416,0,0,0-6.41,6.41v3.2H10.615V4.2ZM55.483,84.328a3.208,3.208,0,0,1-3.2-3.2h-3.2a6.344,6.344,0,0,0,.891,3.2H26.639v-3.2a3.208,3.208,0,0,1,3.2-3.2H55.483a3.2,3.2,0,1,1,0,6.41Zm19.229,3.2v9.615H29.844V87.532ZM4.2,92.34a4.813,4.813,0,0,1,4.807-4.807H26.639v9.615H9.012A4.813,4.813,0,0,1,4.2,92.34ZM90.1,93.622A17.73,17.73,0,0,1,79.52,97.147h-1.6V87.532h1.6A17.729,17.729,0,0,1,90.1,91.059a1.6,1.6,0,0,1,0,2.562Z" transform="translate(-1 -1)"/>
        <path id="Trazado_216531" data-name="Trazado 216531" d="M50.664,5H9V27.434H50.664Zm-3.2,19.229H12.2V8.2H47.459Z" transform="translate(3.82 1.41)"/>
        <path id="Trazado_216532" data-name="Trazado 216532" d="M47.459,29H9V54.639H47.459Zm-3.2,6.41H34.639V32.2h9.615Zm-22.434,3.2v12.82h-3.2V38.615Zm3.2,0h6.41v12.82h-6.41Zm0-3.2V32.2h6.41v3.2Zm9.615,3.2h3.2v12.82h-3.2ZM21.82,32.2v3.2H12.2V32.2ZM12.2,38.615h3.2v12.82H12.2Zm28.844,12.82V38.615h3.2v12.82Z" transform="translate(3.82 15.869)"/>
        <path id="Trazado_216533" data-name="Trazado 216533" d="M9,21h3.2v3.2H9Z" transform="translate(3.82 11.049)"/>
        <path id="Trazado_216534" data-name="Trazado 216534" d="M13,21H48.254v3.2H13Z" transform="translate(6.229 11.049)"/>
        <path id="Trazado_216535" data-name="Trazado 216535" d="M9,25H50.664v3.2H9Z" transform="translate(3.82 13.459)"/>
        <path id="Trazado_216536" data-name="Trazado 216536" d="M35,31H57.434v3.2H35Z" transform="translate(19.483 17.074)"/>
        <path id="Trazado_216537" data-name="Trazado 216537" d="M35,35H57.434v3.2H35Z" transform="translate(19.483 19.483)"/>
        <path id="Trazado_216538" data-name="Trazado 216538" d="M35,39h3.2v3.2H35Z" transform="translate(19.483 21.893)"/>
        <path id="Trazado_216539" data-name="Trazado 216539" d="M39,39H55.025v3.2H39Z" transform="translate(21.893 21.893)"/>
        <path id="Trazado_216540" data-name="Trazado 216540" d="M35,43H57.434v3.2H35Z" transform="translate(19.483 24.303)"/>
      </g>
    </g>
  </g>
</svg>
