<svg xmlns="http://www.w3.org/2000/svg" xmlns:xlink="http://www.w3.org/1999/xlink" width="715" height="554" viewBox="0 0 715 554">
  <defs>
    <clipPath id="clip-path">
      <rect id="Rectángulo_337021" data-name="Rectángulo 337021" width="715" height="554" transform="translate(180 912)" fill="#fff" stroke="#707070" stroke-width="1"/>
    </clipPath>
    <filter id="Elipse_4719" x="51" y="193" width="374" height="373" filterUnits="userSpaceOnUse">
      <feOffset dy="3" input="SourceAlpha"/>
      <feGaussianBlur stdDeviation="3" result="blur"/>
      <feFlood flood-opacity="0.161"/>
      <feComposite operator="in" in2="blur"/>
      <feComposite in="SourceGraphic"/>
    </filter>
    <filter id="Elipse_4720" x="316" y="193" width="373" height="373" filterUnits="userSpaceOnUse">
      <feOffset dy="3" input="SourceAlpha"/>
      <feGaussianBlur stdDeviation="3" result="blur-2"/>
      <feFlood flood-opacity="0.161"/>
      <feComposite operator="in" in2="blur-2"/>
      <feComposite in="SourceGraphic"/>
    </filter>
    <filter id="Elipse_4718" x="188" y="-6" width="373" height="374" filterUnits="userSpaceOnUse">
      <feOffset dy="3" input="SourceAlpha"/>
      <feGaussianBlur stdDeviation="3" result="blur-3"/>
      <feFlood flood-opacity="0.161"/>
      <feComposite operator="in" in2="blur-3"/>
      <feComposite in="SourceGraphic"/>
    </filter>
  </defs>
  <g id="Enmascarar_grupo_868530" data-name="Enmascarar grupo 868530" transform="translate(-180 -912)" clip-path="url(#clip-path)">
    <g id="Grupo_902745" data-name="Grupo 902745" transform="translate(-150 3)">
      <g transform="matrix(1, 0, 0, 1, 330, 909)" filter="url(#Elipse_4719)">
        <g id="Elipse_4719-2" data-name="Elipse 4719" transform="translate(60 199)" fill="#5b4794" stroke="#5b4794" stroke-width="4" opacity="0.3">
          <ellipse cx="178" cy="177.5" rx="178" ry="177.5" stroke="none"/>
          <ellipse cx="178" cy="177.5" rx="176" ry="175.5" fill="none"/>
        </g>
      </g>
      <g transform="matrix(1, 0, 0, 1, 330, 909)" filter="url(#Elipse_4720)">
        <circle id="Elipse_4720-2" data-name="Elipse 4720" cx="177.5" cy="177.5" r="177.5" transform="translate(325 199)" fill="#5b4794" opacity="0.1"/>
      </g>
      <g transform="matrix(1, 0, 0, 1, 330, 909)" filter="url(#Elipse_4718)">
        <ellipse id="Elipse_4718-2" data-name="Elipse 4718" cx="177.5" cy="178" rx="177.5" ry="178" transform="translate(197)" fill="#5b4794" opacity="0.5"/>
      </g>
      <path id="Trazado_285582" data-name="Trazado 285582" d="M-16.285-2.644l2.417-8.02h2.446L-15.135,0h-2.292l-3.7-10.664h2.439ZM-8.324,0h-2.124V-7.925h2.124Zm-2.249-9.976a1.042,1.042,0,0,1,.319-.784,1.2,1.2,0,0,1,.868-.308,1.2,1.2,0,0,1,.864.308,1.036,1.036,0,0,1,.322.784,1.039,1.039,0,0,1-.326.791,1.2,1.2,0,0,1-.861.308,1.2,1.2,0,0,1-.861-.308A1.039,1.039,0,0,1-10.573-9.976ZM-2.289-2.19A.682.682,0,0,0-2.673-2.8a4.368,4.368,0,0,0-1.234-.4q-2.827-.593-2.827-2.4a2.178,2.178,0,0,1,.875-1.761,3.531,3.531,0,0,1,2.289-.707,3.8,3.8,0,0,1,2.413.71,2.239,2.239,0,0,1,.9,1.846H-2.369a1.024,1.024,0,0,0-.293-.751,1.24,1.24,0,0,0-.916-.3,1.267,1.267,0,0,0-.828.242.763.763,0,0,0-.293.615.652.652,0,0,0,.333.568,3.428,3.428,0,0,0,1.124.374,9.183,9.183,0,0,1,1.333.355A2.19,2.19,0,0,1-.231-2.278a2.067,2.067,0,0,1-.93,1.754,4.013,4.013,0,0,1-2.4.67A4.191,4.191,0,0,1-5.332-.209a2.968,2.968,0,0,1-1.212-.974A2.263,2.263,0,0,1-6.984-2.52h2.007a1.105,1.105,0,0,0,.417.864,1.656,1.656,0,0,0,1.04.3A1.533,1.533,0,0,0-2.6-1.586.718.718,0,0,0-2.289-2.19ZM3.365,0H1.241V-7.925H3.365ZM1.117-9.976a1.042,1.042,0,0,1,.319-.784,1.2,1.2,0,0,1,.868-.308,1.2,1.2,0,0,1,.864.308,1.036,1.036,0,0,1,.322.784,1.039,1.039,0,0,1-.326.791,1.2,1.2,0,0,1-.861.308,1.2,1.2,0,0,1-.861-.308A1.039,1.039,0,0,1,1.117-9.976Zm3.662,5.94a4.7,4.7,0,0,1,.454-2.1A3.324,3.324,0,0,1,6.541-7.566a3.814,3.814,0,0,1,1.981-.505,3.609,3.609,0,0,1,2.618.981,3.939,3.939,0,0,1,1.132,2.666l.015.542A4.142,4.142,0,0,1,11.268-.956,3.539,3.539,0,0,1,8.536.146,3.556,3.556,0,0,1,5.8-.952,4.215,4.215,0,0,1,4.779-3.94Zm2.117.15a2.962,2.962,0,0,0,.425,1.727,1.4,1.4,0,0,0,1.216.6,1.4,1.4,0,0,0,1.2-.591,3.241,3.241,0,0,0,.432-1.889,2.933,2.933,0,0,0-.432-1.716,1.4,1.4,0,0,0-1.216-.609,1.382,1.382,0,0,0-1.2.605A3.3,3.3,0,0,0,6.9-3.885ZM8.939-11.25h2.307L9.218-8.979H7.5Zm6.6,3.325.066.916a2.767,2.767,0,0,1,2.278-1.062,2.3,2.3,0,0,1,1.875.74,3.451,3.451,0,0,1,.63,2.212V0H18.27V-5.068a1.373,1.373,0,0,0-.293-.978A1.312,1.312,0,0,0,17-6.35a1.456,1.456,0,0,0-1.34.762V0H13.546V-7.925Z" transform="translate(548 1289)" fill="#12263f"/>
      <path id="Trazado_285583" data-name="Trazado 285583" d="M-30.363-5.43a6.867,6.867,0,0,1-.594,2.945,4.472,4.472,0,0,1-1.7,1.953,4.7,4.7,0,0,1-2.535.688,4.732,4.732,0,0,1-2.523-.68,4.515,4.515,0,0,1-1.719-1.941,6.67,6.67,0,0,1-.617-2.9V-5.93a6.831,6.831,0,0,1,.605-2.957,4.508,4.508,0,0,1,1.711-1.961,4.706,4.706,0,0,1,2.527-.684,4.706,4.706,0,0,1,2.527.684,4.508,4.508,0,0,1,1.711,1.961,6.811,6.811,0,0,1,.605,2.949Zm-2.375-.516a4.787,4.787,0,0,0-.641-2.719,2.088,2.088,0,0,0-1.828-.93,2.088,2.088,0,0,0-1.82.918,4.732,4.732,0,0,0-.648,2.691v.555a4.847,4.847,0,0,0,.641,2.7,2.082,2.082,0,0,0,1.844.961,2.064,2.064,0,0,0,1.813-.926,4.819,4.819,0,0,0,.641-2.7Zm11.547,1.8A5.119,5.119,0,0,1-22.059-.98,2.872,2.872,0,0,1-24.48.156,2.639,2.639,0,0,1-26.676-.9l-.1.9h-2.031V-12h2.258v4.3A2.571,2.571,0,0,1-24.5-8.609,2.9,2.9,0,0,1-22.07-7.473a5.126,5.126,0,0,1,.879,3.2Zm-2.258-.164a3.363,3.363,0,0,0-.406-1.871,1.374,1.374,0,0,0-1.211-.59,1.489,1.489,0,0,0-1.484.883v3.336a1.509,1.509,0,0,0,1.5.891,1.394,1.394,0,0,0,1.438-1.078A5.562,5.562,0,0,0-23.449-4.312Zm6.039-4.141V.461a3.024,3.024,0,0,1-.742,2.176,2.821,2.821,0,0,1-2.141.777,4.591,4.591,0,0,1-1.117-.133V1.492a4.238,4.238,0,0,0,.711.07q1.023,0,1.023-1.086v-8.93Zm-2.445-2.187a1.112,1.112,0,0,1,.34-.836,1.277,1.277,0,0,1,.926-.328,1.277,1.277,0,0,1,.926.328,1.112,1.112,0,0,1,.34.836,1.108,1.108,0,0,1-.348.844,1.283,1.283,0,0,1-.918.328,1.283,1.283,0,0,1-.918-.328A1.108,1.108,0,0,1-19.855-10.641Zm8.1,10.8A4.15,4.15,0,0,1-14.781-.984a4.054,4.054,0,0,1-1.168-3.039v-.219a5.106,5.106,0,0,1,.492-2.277,3.612,3.612,0,0,1,1.395-1.547A3.914,3.914,0,0,1-12-8.609a3.508,3.508,0,0,1,2.73,1.094,4.444,4.444,0,0,1,1,3.1v.922H-13.66A2.1,2.1,0,0,0-13-2.164a2,2,0,0,0,1.395.5,2.437,2.437,0,0,0,2.039-.945l1.109,1.242A3.389,3.389,0,0,1-9.832-.246,4.511,4.511,0,0,1-11.754.156Zm-.258-6.945a1.411,1.411,0,0,0-1.09.455,2.357,2.357,0,0,0-.535,1.3H-10.5v-.181A1.681,1.681,0,0,0-10.9-6.377,1.456,1.456,0,0,0-12.012-6.789Zm7.719-3.742v2.078h1.445V-6.8H-4.293v4.219a1.007,1.007,0,0,0,.18.672.9.9,0,0,0,.688.2,3.6,3.6,0,0,0,.664-.055V-.047a4.648,4.648,0,0,1-1.367.2,2.156,2.156,0,0,1-2.422-2.4V-6.8H-7.785V-8.453h1.234v-2.078ZM.793,0H-1.473V-8.453H.793Zm-2.4-10.641a1.112,1.112,0,0,1,.34-.836A1.277,1.277,0,0,1-.34-11.8a1.28,1.28,0,0,1,.922.328,1.105,1.105,0,0,1,.344.836A1.108,1.108,0,0,1,.578-9.8a1.283,1.283,0,0,1-.918.328A1.283,1.283,0,0,1-1.258-9.8,1.108,1.108,0,0,1-1.605-10.641ZM5.816-2.758l1.57-5.7H9.746L6.895,0H4.738L1.887-8.453H4.246ZM13.121,0H10.855V-8.453h2.266Zm-2.4-10.641a1.112,1.112,0,0,1,.34-.836,1.277,1.277,0,0,1,.926-.328,1.28,1.28,0,0,1,.922.328,1.105,1.105,0,0,1,.344.836,1.108,1.108,0,0,1-.348.844,1.283,1.283,0,0,1-.918.328A1.283,1.283,0,0,1,11.07-9.8,1.108,1.108,0,0,1,10.723-10.641Zm3.906,6.352a5.094,5.094,0,0,1,.887-3.148,2.877,2.877,0,0,1,2.426-1.172,2.589,2.589,0,0,1,2.039.922V-12h2.266V0H20.207L20.1-.9A2.657,2.657,0,0,1,17.926.156,2.869,2.869,0,0,1,15.531-1.02,5.258,5.258,0,0,1,14.629-4.289Zm2.258.168A3.337,3.337,0,0,0,17.3-2.3a1.349,1.349,0,0,0,1.2.634,1.511,1.511,0,0,0,1.477-.884V-5.889a1.489,1.489,0,0,0-1.461-.884Q16.887-6.773,16.887-4.121ZM28.895,0a2.507,2.507,0,0,1-.227-.758,2.732,2.732,0,0,1-2.133.914,3,3,0,0,1-2.059-.719,2.312,2.312,0,0,1-.816-1.812,2.389,2.389,0,0,1,1-2.062,4.915,4.915,0,0,1,2.879-.727h1.039v-.484a1.393,1.393,0,0,0-.3-.937,1.183,1.183,0,0,0-.949-.352,1.345,1.345,0,0,0-.895.273.929.929,0,0,0-.324.75H23.848A2.268,2.268,0,0,1,24.3-7.273a3,3,0,0,1,1.281-.98,4.669,4.669,0,0,1,1.859-.355,3.689,3.689,0,0,1,2.48.785,2.747,2.747,0,0,1,.918,2.207v3.664a4.041,4.041,0,0,0,.336,1.82V0ZM27.027-1.57a1.945,1.945,0,0,0,.922-.223,1.462,1.462,0,0,0,.625-.6V-3.844H27.73q-1.7,0-1.8,1.172l-.008.133a.9.9,0,0,0,.3.7A1.153,1.153,0,0,0,27.027-1.57Zm5.2-2.719a5.094,5.094,0,0,1,.887-3.148,2.877,2.877,0,0,1,2.426-1.172,2.589,2.589,0,0,1,2.039.922V-12H39.84V0H37.8l-.109-.9A2.657,2.657,0,0,1,35.52.156,2.869,2.869,0,0,1,33.125-1.02,5.258,5.258,0,0,1,32.223-4.289Zm2.258.168A3.337,3.337,0,0,0,34.895-2.3a1.349,1.349,0,0,0,1.2.634,1.511,1.511,0,0,0,1.477-.884V-5.889a1.489,1.489,0,0,0-1.461-.884Q34.48-6.773,34.48-4.121Z" transform="translate(845 1290)" fill="#12263f"/>
      <path id="Trazado_285580" data-name="Trazado 285580" d="M-44.509-2.2h-3.853L-49.094,0h-2.336l3.97-10.664h2.036L-41.433,0H-43.77Zm-3.259-1.78H-45.1l-1.34-3.992ZM-36.284-2.19a.682.682,0,0,0-.385-.612A4.368,4.368,0,0,0-37.9-3.2q-2.827-.593-2.827-2.4a2.178,2.178,0,0,1,.875-1.761,3.531,3.531,0,0,1,2.289-.707,3.8,3.8,0,0,1,2.413.71,2.239,2.239,0,0,1,.9,1.846h-2.117a1.024,1.024,0,0,0-.293-.751,1.24,1.24,0,0,0-.916-.3,1.267,1.267,0,0,0-.828.242.763.763,0,0,0-.293.615.652.652,0,0,0,.333.568,3.428,3.428,0,0,0,1.124.374,9.183,9.183,0,0,1,1.333.355,2.19,2.19,0,0,1,1.677,2.131,2.067,2.067,0,0,1-.93,1.754,4.013,4.013,0,0,1-2.4.67,4.191,4.191,0,0,1-1.769-.355,2.968,2.968,0,0,1-1.212-.974,2.263,2.263,0,0,1-.439-1.337h2.007a1.105,1.105,0,0,0,.417.864,1.656,1.656,0,0,0,1.04.3,1.533,1.533,0,0,0,.919-.231A.718.718,0,0,0-36.284-2.19ZM-29.216.146A3.89,3.89,0,0,1-32.054-.923a3.8,3.8,0,0,1-1.095-2.849v-.205a4.787,4.787,0,0,1,.461-2.135,3.386,3.386,0,0,1,1.307-1.45,3.669,3.669,0,0,1,1.93-.509,3.289,3.289,0,0,1,2.56,1.025,4.167,4.167,0,0,1,.934,2.908v.864H-31a1.966,1.966,0,0,0,.619,1.245,1.871,1.871,0,0,0,1.307.469,2.285,2.285,0,0,0,1.912-.886l1.04,1.165A3.178,3.178,0,0,1-27.415-.231,4.229,4.229,0,0,1-29.216.146Zm-.242-6.511a1.323,1.323,0,0,0-1.022.427,2.209,2.209,0,0,0-.5,1.221h2.944v-.169a1.576,1.576,0,0,0-.381-1.092A1.365,1.365,0,0,0-29.458-6.365Zm4.395,2.344A4.644,4.644,0,0,1-24.2-6.958a2.812,2.812,0,0,1,2.34-1.113,2.466,2.466,0,0,1,2.029.894l.088-.747h1.919V-.264a3.387,3.387,0,0,1-.472,1.809,3.034,3.034,0,0,1-1.329,1.172,4.673,4.673,0,0,1-2.007.4,4.346,4.346,0,0,1-1.7-.348,3.016,3.016,0,0,1-1.252-.9l.938-1.289a2.48,2.48,0,0,0,1.919.886,1.815,1.815,0,0,0,1.311-.45,1.69,1.69,0,0,0,.469-1.278V-.681A2.448,2.448,0,0,1-21.87.146,2.8,2.8,0,0,1-24.181-.97a4.643,4.643,0,0,1-.883-2.963Zm2.117.158a2.892,2.892,0,0,0,.432,1.691,1.375,1.375,0,0,0,1.187.612,1.47,1.47,0,0,0,1.384-.726V-5.624a1.466,1.466,0,0,0-1.37-.726,1.383,1.383,0,0,0-1.2.624A3.26,3.26,0,0,0-22.947-3.863Zm11.5,3.058a2.654,2.654,0,0,1-2.168.952A2.5,2.5,0,0,1-15.56-.586a3.127,3.127,0,0,1-.685-2.146V-7.925h2.117V-2.8q0,1.239,1.128,1.239a1.528,1.528,0,0,0,1.479-.748V-7.925H-9.4V0h-1.992Zm8.1-5.134A5.751,5.751,0,0,0-4.109-6a1.55,1.55,0,0,0-1.575.813V0H-7.8V-7.925h2l.059.945A1.961,1.961,0,0,1-3.977-8.071a2.218,2.218,0,0,1,.659.1ZM2.043,0a2.351,2.351,0,0,1-.212-.71,2.561,2.561,0,0,1-2,.857A2.814,2.814,0,0,1-2.1-.527a2.167,2.167,0,0,1-.765-1.7A2.24,2.24,0,0,1-1.93-4.16a4.608,4.608,0,0,1,2.7-.681h.974V-5.3a1.306,1.306,0,0,0-.282-.879,1.109,1.109,0,0,0-.89-.33,1.261,1.261,0,0,0-.839.256.871.871,0,0,0-.3.7H-2.688a2.126,2.126,0,0,1,.425-1.274,2.808,2.808,0,0,1,1.2-.919A4.378,4.378,0,0,1,.681-8.071a3.459,3.459,0,0,1,2.325.736,2.575,2.575,0,0,1,.861,2.069v3.435A3.789,3.789,0,0,0,4.182-.125V0ZM.293-1.472a1.823,1.823,0,0,0,.864-.209,1.371,1.371,0,0,0,.586-.56V-3.6H.952Q-.637-3.6-.74-2.5l-.007.125a.847.847,0,0,0,.278.652A1.081,1.081,0,0,0,.293-1.472ZM7.478-7.925l.066.886A2.785,2.785,0,0,1,9.822-8.071a2.114,2.114,0,0,1,2.1,1.208A2.721,2.721,0,0,1,14.3-8.071a2.364,2.364,0,0,1,1.919.751,3.451,3.451,0,0,1,.63,2.26V0H14.729V-5.054a1.509,1.509,0,0,0-.264-.985,1.169,1.169,0,0,0-.93-.311,1.321,1.321,0,0,0-1.318.908L12.224,0H10.107V-5.046a1.491,1.491,0,0,0-.271-1,1.18,1.18,0,0,0-.923-.308,1.372,1.372,0,0,0-1.3.747V0H5.493V-7.925ZM20.713,0H18.589V-7.925h2.124ZM18.464-9.976a1.042,1.042,0,0,1,.319-.784,1.2,1.2,0,0,1,.868-.308,1.2,1.2,0,0,1,.864.308,1.036,1.036,0,0,1,.322.784,1.039,1.039,0,0,1-.326.791,1.2,1.2,0,0,1-.861.308,1.2,1.2,0,0,1-.861-.308A1.039,1.039,0,0,1,18.464-9.976ZM26.1.146A3.89,3.89,0,0,1,23.265-.923,3.8,3.8,0,0,1,22.17-3.772v-.205a4.787,4.787,0,0,1,.461-2.135,3.386,3.386,0,0,1,1.307-1.45,3.669,3.669,0,0,1,1.93-.509,3.289,3.289,0,0,1,2.56,1.025,4.167,4.167,0,0,1,.934,2.908v.864H24.316a1.966,1.966,0,0,0,.619,1.245,1.871,1.871,0,0,0,1.307.469,2.285,2.285,0,0,0,1.912-.886l1.04,1.165A3.178,3.178,0,0,1,27.905-.231,4.229,4.229,0,0,1,26.1.146Zm-.242-6.511a1.323,1.323,0,0,0-1.022.427,2.209,2.209,0,0,0-.5,1.221h2.944v-.169A1.576,1.576,0,0,0,26.9-5.979,1.365,1.365,0,0,0,25.862-6.365Zm6.65-1.56.066.916a2.767,2.767,0,0,1,2.278-1.062,2.3,2.3,0,0,1,1.875.74,3.451,3.451,0,0,1,.63,2.212V0H35.244V-5.068a1.373,1.373,0,0,0-.293-.978,1.312,1.312,0,0,0-.974-.3,1.456,1.456,0,0,0-1.34.762V0H30.52V-7.925ZM41.5-9.873v1.948h1.355v1.553H41.5v3.955a.944.944,0,0,0,.168.63.846.846,0,0,0,.645.19,3.376,3.376,0,0,0,.623-.051v1.6a4.358,4.358,0,0,1-1.282.19A2.021,2.021,0,0,1,39.382-2.1v-4.27H38.225V-7.925h1.157V-9.873Zm1.985,5.837a4.7,4.7,0,0,1,.454-2.1,3.324,3.324,0,0,1,1.307-1.428,3.814,3.814,0,0,1,1.981-.505,3.609,3.609,0,0,1,2.618.981,3.939,3.939,0,0,1,1.132,2.666l.015.542A4.142,4.142,0,0,1,49.973-.956a3.539,3.539,0,0,1-2.732,1.1,3.556,3.556,0,0,1-2.736-1.1A4.215,4.215,0,0,1,43.484-3.94Zm2.117.15a2.962,2.962,0,0,0,.425,1.727,1.4,1.4,0,0,0,1.216.6,1.4,1.4,0,0,0,1.2-.591,3.241,3.241,0,0,0,.432-1.889,2.933,2.933,0,0,0-.432-1.716,1.4,1.4,0,0,0-1.216-.609,1.382,1.382,0,0,0-1.2.605A3.3,3.3,0,0,0,45.6-3.885Z" transform="translate(693 1051)" fill="#12263f"/>
      <path id="Trazado_285581" data-name="Trazado 285581" d="M-35.718-2.922h-5.167L-41.787,0h-4.028l5.736-15.641h3.545L-30.755,0H-34.8Zm-4.265-2.911h3.362l-1.687-5.425Zm17,4.576a3.732,3.732,0,0,1-3.1,1.472A3.661,3.661,0,0,1-28.977-.9a4.676,4.676,0,0,1-.983-3.2v-7.53h3.62v7.552a1.3,1.3,0,0,0,1.45,1.493,1.892,1.892,0,0,0,1.772-.892v-8.153h3.642V0H-22.87ZM-17.95-5.9a7.1,7.1,0,0,1,1.192-4.351,3.925,3.925,0,0,1,3.33-1.59,3.338,3.338,0,0,1,2.621,1.225V-16.5h3.631V0h-3.255l-.183-1.246A3.428,3.428,0,0,1-13.449.215a3.918,3.918,0,0,1-3.287-1.59A7.325,7.325,0,0,1-17.95-5.9Zm3.62.226q0,3.094,1.8,3.094a1.782,1.782,0,0,0,1.719-1.01V-8.014a1.734,1.734,0,0,0-1.7-1.031q-1.676,0-1.815,2.707ZM-1.3,0H-4.931V-11.623H-1.3ZM-5.146-14.62a1.616,1.616,0,0,1,.559-1.268,2.108,2.108,0,0,1,1.45-.494,2.108,2.108,0,0,1,1.45.494,1.616,1.616,0,0,1,.559,1.268,1.616,1.616,0,0,1-.559,1.268,2.108,2.108,0,0,1-1.45.494,2.108,2.108,0,0,1-1.45-.494A1.616,1.616,0,0,1-5.146-14.62Zm10.291.107v2.89H7.058v2.514H5.146v5.317a1.358,1.358,0,0,0,.236.913,1.268,1.268,0,0,0,.935.258,5.311,5.311,0,0,0,.9-.064V-.1A6.681,6.681,0,0,1,5.178.215,3.792,3.792,0,0,1,2.417-.666a3.61,3.61,0,0,1-.892-2.675V-9.109H.043v-2.514H1.525v-2.89ZM7.7-5.919a6.86,6.86,0,0,1,.677-3.1,4.84,4.84,0,0,1,1.944-2.089,5.856,5.856,0,0,1,2.976-.73,5.344,5.344,0,0,1,4.114,1.617,6.2,6.2,0,0,1,1.5,4.4v.129A6.019,6.019,0,0,1,17.408-1.38,5.359,5.359,0,0,1,13.32.215,5.42,5.42,0,0,1,9.335-1.273,5.819,5.819,0,0,1,7.713-5.307Zm3.62.226a4.325,4.325,0,0,0,.5,2.363,1.682,1.682,0,0,0,1.493.752q1.934,0,1.977-2.976v-.365q0-3.126-2-3.126-1.815,0-1.966,2.7ZM27.543-8.347l-1.192-.086a2.142,2.142,0,0,0-2.191,1.074V0h-3.62V-11.623h3.395l.118,1.493A2.8,2.8,0,0,1,26.6-11.838a3.53,3.53,0,0,1,1.01.129ZM32.8,0H29.154V-11.623H32.8ZM31.442-16.285h3.824L32.28-12.912l-2.954-.005ZM41.669,0a4.088,4.088,0,0,1-.344-1.042A3.366,3.366,0,0,1,38.532.215a4.124,4.124,0,0,1-2.793-.994,3.163,3.163,0,0,1-1.149-2.5,3.251,3.251,0,0,1,1.4-2.857A7.114,7.114,0,0,1,40.047-7.1h1.117v-.615q0-1.608-1.386-1.608A1.133,1.133,0,0,0,38.489-8.05h-3.62A3.245,3.245,0,0,1,36.3-10.786a6.027,6.027,0,0,1,3.658-1.051,5.284,5.284,0,0,1,3.513,1.085,3.772,3.772,0,0,1,1.321,2.976v5.146a5.269,5.269,0,0,0,.494,2.449V0ZM39.4-2.363a2.019,2.019,0,0,0,1.123-.29,1.818,1.818,0,0,0,.639-.655V-5.167H40.111q-1.891,0-1.891,1.7a1.036,1.036,0,0,0,.333.8A1.205,1.205,0,0,0,39.4-2.363ZM-30.3,25h-3.76V9.359h3.76Zm5.779-11.623.118,1.364a3.942,3.942,0,0,1,3.319-1.579,3.316,3.316,0,0,1,2.712,1.085,5.165,5.165,0,0,1,.929,3.266V25h-3.631V17.663a1.961,1.961,0,0,0-.354-1.294,1.64,1.64,0,0,0-1.289-.414,1.726,1.726,0,0,0-1.579.838V25h-3.62V13.377Zm13.3-2.89v2.89h1.912v2.514H-11.22v5.317a1.358,1.358,0,0,0,.236.913,1.268,1.268,0,0,0,.935.258,5.311,5.311,0,0,0,.9-.064V24.9a6.681,6.681,0,0,1-2.041.312,3.792,3.792,0,0,1-2.761-.881,3.61,3.61,0,0,1-.892-2.675V15.891h-1.482V13.377h1.482v-2.89Zm8.959,14.728a5.975,5.975,0,0,1-4.329-1.6,5.509,5.509,0,0,1-1.654-4.152v-.3a7.138,7.138,0,0,1,.661-3.147,4.834,4.834,0,0,1,1.928-2.111,5.821,5.821,0,0,1,3.008-.747,5.031,5.031,0,0,1,3.867,1.52A5.973,5.973,0,0,1,2.637,18.92v1.407h-7.2a2.609,2.609,0,0,0,.849,1.536,2.525,2.525,0,0,0,1.7.559,3.254,3.254,0,0,0,2.686-1.2l1.654,1.955A4.624,4.624,0,0,1,.408,24.662,6.48,6.48,0,0,1-2.261,25.215Zm-.408-9.26q-1.59,0-1.891,2.105H-.908v-.279a1.793,1.793,0,0,0-.44-1.348A1.753,1.753,0,0,0-2.669,15.955Zm13.793.7-1.192-.086A2.142,2.142,0,0,0,7.74,17.642V25H4.12V13.377H7.514l.118,1.493a2.8,2.8,0,0,1,2.546-1.708,3.53,3.53,0,0,1,1.01.129Zm4.63-3.276.118,1.364a3.942,3.942,0,0,1,3.319-1.579A3.316,3.316,0,0,1,21.9,14.247a5.165,5.165,0,0,1,.929,3.266V25H19.2V17.663a1.961,1.961,0,0,0-.354-1.294,1.64,1.64,0,0,0-1.289-.414,1.726,1.726,0,0,0-1.579.838V25h-3.62V13.377ZM31.383,25a4.087,4.087,0,0,1-.344-1.042,3.366,3.366,0,0,1-2.793,1.257,4.124,4.124,0,0,1-2.793-.994,3.163,3.163,0,0,1-1.149-2.5,3.251,3.251,0,0,1,1.4-2.857,7.114,7.114,0,0,1,4.061-.967h1.117v-.615q0-1.608-1.386-1.608A1.133,1.133,0,0,0,28.2,16.95h-3.62a3.245,3.245,0,0,1,1.434-2.736,6.027,6.027,0,0,1,3.658-1.051,5.284,5.284,0,0,1,3.513,1.085,3.772,3.772,0,0,1,1.321,2.976v5.146A5.269,5.269,0,0,0,35,24.817V25Zm-2.267-2.363a2.019,2.019,0,0,0,1.123-.29,1.818,1.818,0,0,0,.639-.655V19.833H29.826q-1.891,0-1.891,1.7a1.036,1.036,0,0,0,.333.8A1.205,1.205,0,0,0,29.117,22.637Z" transform="translate(700 1194)" fill="#12263f"/>
      <path id="Trazado_285584" data-name="Trazado 285584" d="M0,0H46.156" transform="translate(682.448 1239.28)" fill="none" stroke="#12263f" stroke-width="4"/>
    </g>
  </g>
</svg>
