<svg xmlns="http://www.w3.org/2000/svg" width="72.627" height="85.722" viewBox="0 0 72.627 85.722">
  <g id="Grupo_90864" data-name="Grupo 90864" transform="translate(2470.353 -1233.266)">
    <g id="Grupo_90862" data-name="Grupo 90862" transform="translate(-2470.353 1233.266)">
      <g id="Grupo_90860" data-name="Grupo 90860" transform="translate(1.382 1.382)">
        <path id="Trazado_135019" data-name="Trazado 135019" d="M-2437.869,1295.255h42a2.763,2.763,0,0,0,2.763-2.763v-53.605a2.763,2.763,0,0,0-2.763-2.763h-42a2.763,2.763,0,0,0-2.763,2.763v53.605A2.763,2.763,0,0,0-2437.869,1295.255Z" transform="translate(2453.618 -1236.124)" fill="#c3b5ec"/>
        <path id="Trazado_135020" data-name="Trazado 135020" d="M-2455.337,1254.414h32.605a2.764,2.764,0,0,1,2.763,2.763v53.605a2.763,2.763,0,0,1-2.763,2.763h-42a2.763,2.763,0,0,1-2.762-2.763v-44.21Z" transform="translate(2467.495 -1245.572)" fill="#fff"/>
        <path id="Trazado_135021" data-name="Trazado 135021" d="M-2467.495,1266.572h8.358a3.8,3.8,0,0,0,3.8-3.8v-8.359Z" transform="translate(2467.495 -1245.572)" fill="#c3b5ec"/>
      </g>
      <g id="Grupo_90861" data-name="Grupo 90861">
        <path id="Trazado_135022" data-name="Trazado 135022" d="M-2411.222,1233.266h-42a4.149,4.149,0,0,0-4.145,4.145v4.817a1.372,1.372,0,0,0-.424.285l-12.158,12.158a1.378,1.378,0,0,0-.4.976h0v44.21a4.149,4.149,0,0,0,4.145,4.145h42a4.149,4.149,0,0,0,4.145-4.145v-4.7h8.842a4.149,4.149,0,0,0,4.145-4.145v-53.605A4.149,4.149,0,0,0-2411.222,1233.266Zm-21.05,8.842h-3.192a4.15,4.15,0,0,0-3.665-2.21,4.149,4.149,0,0,0-4.144,4.144v8.145a1.382,1.382,0,0,0,1.381,1.382,1.382,1.382,0,0,0,1.381-1.382v-8.145a1.383,1.383,0,0,1,1.381-1.382,1.383,1.383,0,0,1,1.382,1.382v9.251a4.149,4.149,0,0,1-4.145,4.145,4.15,4.15,0,0,1-4.145-4.145v-10.356a6.915,6.915,0,0,1,6.907-6.908A6.917,6.917,0,0,1-2432.272,1242.108Zm-20.949-6.079h7.333a9.642,9.642,0,0,0-2.874,6.079h-5.84v-4.7A1.383,1.383,0,0,1-2453.222,1236.029Zm-4.974,10.8v5.023a2.42,2.42,0,0,1-2.417,2.418h-5.023Zm48.356,44.191a1.384,1.384,0,0,1-1.382,1.382h-8.842v-26.78a1.382,1.382,0,0,0-1.381-1.382,1.382,1.382,0,0,0-1.382,1.382v34.24a1.383,1.383,0,0,1-1.381,1.382h-42a1.383,1.383,0,0,1-1.381-1.382v-42.829h6.977a5.187,5.187,0,0,0,5.181-5.181v-6.977h6.632v8.422a6.915,6.915,0,0,0,6.908,6.908,6.915,6.915,0,0,0,6.908-6.908v-8.422h10.776a1.383,1.383,0,0,1,1.381,1.382v8.313a1.382,1.382,0,0,0,1.382,1.382,1.382,1.382,0,0,0,1.381-1.382v-8.313a4.149,4.149,0,0,0-4.145-4.145h-5.288a9.65,9.65,0,0,0-2.875-6.079h21.148a1.383,1.383,0,0,1,1.382,1.381Z" transform="translate(2470.353 -1233.266)"/>
        <path id="Trazado_135023" data-name="Trazado 135023" d="M-2449.388,1315.991h28.59a1.382,1.382,0,0,0,1.382-1.382,1.382,1.382,0,0,0-1.382-1.382h-28.59a1.382,1.382,0,0,0-1.381,1.382A1.382,1.382,0,0,0-2449.388,1315.991Z" transform="translate(2460.237 -1274.571)"/>
        <path id="Trazado_135024" data-name="Trazado 135024" d="M-2449.387,1327.422h22.99a1.382,1.382,0,0,0,1.381-1.382,1.381,1.381,0,0,0-1.381-1.381h-22.99a1.381,1.381,0,0,0-1.381,1.381A1.381,1.381,0,0,0-2449.387,1327.422Z" transform="translate(2460.236 -1280.476)"/>
        <path id="Trazado_135025" data-name="Trazado 135025" d="M-2449.388,1350.359h23a1.382,1.382,0,0,0,1.381-1.381,1.382,1.382,0,0,0-1.381-1.382h-23a1.382,1.382,0,0,0-1.381,1.382A1.382,1.382,0,0,0-2449.388,1350.359Z" transform="translate(2460.237 -1292.325)"/>
        <path id="Trazado_135026" data-name="Trazado 135026" d="M-2449.387,1361.792h11.8a1.382,1.382,0,0,0,1.381-1.382,1.382,1.382,0,0,0-1.381-1.382h-11.8a1.381,1.381,0,0,0-1.381,1.382A1.381,1.381,0,0,0-2449.387,1361.792Z" transform="translate(2460.236 -1298.23)"/>
        <path id="Trazado_135027" data-name="Trazado 135027" d="M-2390.248,1324.659a1.392,1.392,0,0,0-.977.4,1.394,1.394,0,0,0-.4.976,1.39,1.39,0,0,0,.4.977,1.391,1.391,0,0,0,.977.405,1.388,1.388,0,0,0,.977-.405,1.39,1.39,0,0,0,.406-.977,1.388,1.388,0,0,0-.406-.976A1.389,1.389,0,0,0-2390.248,1324.659Z" transform="translate(2429.687 -1280.476)"/>
        <path id="Trazado_135028" data-name="Trazado 135028" d="M-2415.8,1359.029a1.39,1.39,0,0,0-.977.4,1.391,1.391,0,0,0-.405.977,1.391,1.391,0,0,0,.405.977,1.391,1.391,0,0,0,.977.405,1.394,1.394,0,0,0,.977-.405,1.394,1.394,0,0,0,.4-.977,1.394,1.394,0,0,0-.4-.977A1.393,1.393,0,0,0-2415.8,1359.029Z" transform="translate(2442.887 -1298.23)"/>
        <path id="Trazado_135029" data-name="Trazado 135029" d="M-2449.388,1304.56h28.59a1.382,1.382,0,0,0,1.382-1.382,1.381,1.381,0,0,0-1.382-1.382h-28.59a1.382,1.382,0,0,0-1.381,1.382A1.382,1.382,0,0,0-2449.388,1304.56Z" transform="translate(2460.237 -1268.667)"/>
        <path id="Trazado_135030" data-name="Trazado 135030" d="M-2370.663,1285.9a1.4,1.4,0,0,0-.977.405,1.393,1.393,0,0,0-.4.977,1.392,1.392,0,0,0,.4.977,1.4,1.4,0,0,0,.977.405,1.393,1.393,0,0,0,.977-.405,1.393,1.393,0,0,0,.405-.977,1.393,1.393,0,0,0-.405-.977A1.393,1.393,0,0,0-2370.663,1285.9Z" transform="translate(2419.57 -1260.453)"/>
      </g>
    </g>
    <g id="Grupo_90863" data-name="Grupo 90863" transform="translate(-2433.224 1283.491)">
      <path id="Trazado_135031" data-name="Trazado 135031" d="M-2374.613,1339.458a16.636,16.636,0,0,0-16.636,16.636,16.636,16.636,0,0,0,16.636,16.636,16.636,16.636,0,0,0,16.636-16.636A16.636,16.636,0,0,0-2374.613,1339.458Zm0,28.507a11.87,11.87,0,0,1-11.87-11.87,11.87,11.87,0,0,1,11.87-11.87,11.87,11.87,0,0,1,11.87,11.87A11.87,11.87,0,0,1-2374.613,1367.965Z" transform="translate(2392.362 -1338.346)" fill="#8cc63f"/>
      <circle id="Elipse_4279" data-name="Elipse 4279" cx="11.87" cy="11.87" r="11.87" transform="translate(5.879 5.879)" fill="#fff"/>
      <path id="Trazado_135032" data-name="Trazado 135032" d="M-2375.8,1372.655a17.769,17.769,0,0,1-17.749-17.749,17.769,17.769,0,0,1,17.749-17.749,17.769,17.769,0,0,1,17.749,17.749A17.769,17.769,0,0,1-2375.8,1372.655Zm0-33.272a15.541,15.541,0,0,0-15.524,15.523,15.541,15.541,0,0,0,15.524,15.523,15.54,15.54,0,0,0,15.523-15.523A15.541,15.541,0,0,0-2375.8,1339.382Zm0,28.507a13,13,0,0,1-12.982-12.983,13,13,0,0,1,12.982-12.983,13,13,0,0,1,12.983,12.983A13,13,0,0,1-2375.8,1367.889Zm0-23.741a10.77,10.77,0,0,0-10.757,10.758,10.77,10.77,0,0,0,10.757,10.758,10.77,10.77,0,0,0,10.757-10.758A10.77,10.77,0,0,0-2375.8,1344.148Z" transform="translate(2393.551 -1337.157)"/>
    </g>
    <path id="Trazado_135033" data-name="Trazado 135033" d="M-2357.806,1363.75a1.772,1.772,0,0,0-2.506,0h0l-5.49,5.49-1.646-1.646a1.771,1.771,0,0,0-2.506,0,1.772,1.772,0,0,0,0,2.506h0l2.9,2.9a1.772,1.772,0,0,0,2.505,0l6.743-6.743A1.772,1.772,0,0,0-2357.806,1363.75Z" transform="translate(-51.593 -67.135)"/>
  </g>
</svg>
