<svg xmlns="http://www.w3.org/2000/svg" xmlns:xlink="http://www.w3.org/1999/xlink" width="505" height="554" viewBox="0 0 505 554">
  <defs>
    <clipPath id="clip-path">
      <rect id="Rectángulo_324796" data-name="Rectángulo 324796" width="505" height="554" transform="translate(180 2855)" fill="#fff" stroke="#707070" stroke-width="1"/>
    </clipPath>
    <clipPath id="clip-path-2">
      <rect id="Rectángulo_51431" data-name="Rectángulo 51431" width="707.743" height="506.612" fill="none"/>
    </clipPath>
    <clipPath id="clip-path-3">
      <rect id="Rectángulo_51432" data-name="Rectángulo 51432" width="31.028" height="344.45" fill="none"/>
    </clipPath>
    <clipPath id="clip-path-4">
      <rect id="Rectángulo_51438" data-name="Rectángulo 51438" width="707.743" height="539.787" fill="none"/>
    </clipPath>
    <clipPath id="clip-path-5">
      <rect id="Rectángulo_51436" data-name="Rectángulo 51436" width="94.407" height="54.164" fill="none"/>
    </clipPath>
    <clipPath id="clip-path-6">
      <rect id="Rectángulo_51437" data-name="Rectángulo 51437" width="76.702" height="31.012" fill="none"/>
    </clipPath>
    <clipPath id="clip-path-7">
      <rect id="Rectángulo_51435" data-name="Rectángulo 51435" width="73.305" height="42.058" fill="#a3314f"/>
    </clipPath>
    <clipPath id="clip-path-11">
      <rect id="Rectángulo_51444" data-name="Rectángulo 51444" width="48.78" height="4.788" fill="none"/>
    </clipPath>
    <clipPath id="clip-path-12">
      <rect id="Rectángulo_51445" data-name="Rectángulo 51445" width="47.424" height="17.288" fill="none"/>
    </clipPath>
    <clipPath id="clip-path-13">
      <rect id="Rectángulo_51446" data-name="Rectángulo 51446" width="21.565" height="51.222" fill="none"/>
    </clipPath>
    <clipPath id="clip-path-14">
      <rect id="Rectángulo_51442" data-name="Rectángulo 51442" width="3.176" height="3.502" fill="none"/>
    </clipPath>
  </defs>
  <g id="Enmascarar_grupo_868529" data-name="Enmascarar grupo 868529" transform="translate(-180 -2855)" clip-path="url(#clip-path)">
    <g id="Grupo_165461" data-name="Grupo 165461" transform="translate(-22.742 2855)">
      <g id="Grupo_165460" data-name="Grupo 165460" clip-path="url(#clip-path-2)">
        <path id="Trazado_237276" data-name="Trazado 237276" d="M500.02,421.292s.538-.017,1.642-.025l5.042-.023v.1l-240.4.167-174.742-.063-52.954-.069-14.4-.04-3.744-.021c-.844-.007-1.275-.022-1.275-.022s.432-.015,1.275-.022l3.744-.022,14.4-.04,52.954-.069,174.742-.063,240.4.167v.1l-5.042-.023c-1.1-.008-1.642-.025-1.642-.025" transform="translate(190.938 127.078)" fill="#263238"/>
      </g>
    </g>
    <g id="Grupo_165466" data-name="Grupo 165466" transform="translate(205.89 2875.479)">
      <g id="Grupo_165510" data-name="Grupo 165510" transform="translate(0)">
        <path id="Trazado_237277" data-name="Trazado 237277" d="M313.622,44.244H253.8c-2.894,0-5.2-2.676-5.063-5.874l1.214-28.025a5.328,5.328,0,0,1,5.064-5.338h59.817c2.9,0,5.2,2.676,5.064,5.874l-1.215,28.025a5.325,5.325,0,0,1-5.063,5.338" transform="translate(-248.448 -4.669)" fill="#fafafa"/>
        <path id="Trazado_237278" data-name="Trazado 237278" d="M313.665,44.323a5.742,5.742,0,0,0,1.973-.519,5.133,5.133,0,0,0,1.913-1.656,5.945,5.945,0,0,0,1.07-3.421c.223-5.687.544-13.857.939-23.94-.019-2.479.737-5.37-.936-7.465a4.684,4.684,0,0,0-3.1-1.91c-1.228-.1-2.6-.022-3.929-.043L294.418,5.4l-39.352.027a4.714,4.714,0,0,0-4.076,2.538,5.792,5.792,0,0,0-.69,2.54q-.062,1.418-.123,2.826-.248,5.634-.486,11.091t-.471,10.7q-.058,1.313-.116,2.609a7.2,7.2,0,0,0,.152,2.457,5.152,5.152,0,0,0,2.807,3.434,4.789,4.789,0,0,0,2.1.389l2.224,0,4.36.008,8.337.017,14.964.042,21.668.108,5.891.063,1.532.034a2.979,2.979,0,0,1,.522.035,2.983,2.983,0,0,1-.522.035l-1.532.033-5.891.064-21.668.108-14.964.042-8.337.017-4.36.008-2.224,0a5.3,5.3,0,0,1-2.313-.426,5.754,5.754,0,0,1-3.149-3.835,7.876,7.876,0,0,1-.18-2.667q.055-1.3.111-2.608.223-5.248.456-10.705t.475-11.091q.062-1.408.123-2.826a6.51,6.51,0,0,1,.776-2.86,5.32,5.32,0,0,1,4.6-2.865l39.352.026,17.174.031c1.359.029,2.637-.051,3.994.068a5.156,5.156,0,0,1,3.4,2.118,6.313,6.313,0,0,1,1.178,3.94q-.09,1.984-.176,3.88c-.478,10.078-.864,18.246-1.134,23.93a6.136,6.136,0,0,1-1.165,3.534,5.156,5.156,0,0,1-2.006,1.655,4.741,4.741,0,0,1-1.5.4,4.829,4.829,0,0,1-.525,0" transform="translate(-248.492 -4.748)" fill="#263238"/>
        <path id="Trazado_237279" data-name="Trazado 237279" d="M461.56,41.033l2.56-17.711,10.912-7.009,8.957,10.621L481.29,45.1Z" transform="translate(-210.292 -1.231)" fill="#a3314f"/>
        <path id="Trazado_237280" data-name="Trazado 237280" d="M540.736,55,527.5,376.352l-213.509-6.71-12.7-24.538,22.962-298.66L522.948,31.9Z" transform="translate(-239.027 3.509)" fill="#e0e0e0"/>
        <g id="Grupo_165464" data-name="Grupo 165464" transform="translate(270.681 35.41)" opacity="0.3">
          <g id="Grupo_165463" data-name="Grupo 165463">
            <g id="Grupo_165462" data-name="Grupo 165462" clip-path="url(#clip-path-3)">
              <path id="Trazado_237281" data-name="Trazado 237281" d="M495.81,376.352l-17.788-23.1L491.261,31.9,509.05,55Z" transform="translate(-478.022 -31.901)"/>
            </g>
          </g>
        </g>
        <path id="Trazado_237282" data-name="Trazado 237282" d="M522.948,32.659l-13.24,321.352-208.424-8.149L317.049,29.409Z" transform="translate(-239.027 2.751)" fill="#fafafa"/>
        <path id="Trazado_237283" data-name="Trazado 237283" d="M523,32.724,317.1,29.749l.251-.26c-4.388,88.432-9.827,197.971-15.708,316.457l-.295-.359,3.441.134,204.981,8.045-.289.295c7.985-189.778,13.4-318.6,13.521-321.338-.112,2.741-5.307,131.572-12.962,321.365l-.011.306-.278-.01L304.762,346.4l-3.439-.134-.315-.013.018-.346c5.925-118.482,11.4-228.02,15.826-316.449l.012-.265.238,0L523,32.724" transform="translate(-239.077 2.686)" fill="#263238"/>
        <path id="Trazado_237284" data-name="Trazado 237284" d="M335.4,90.957l72.787,2.359a2.9,2.9,0,0,0,2.847-2.969l.08-3.016a2.946,2.946,0,0,0-2.685-3.149l-72.785-2.359a2.9,2.9,0,0,0-2.848,2.969l-.08,3.016a2.946,2.946,0,0,0,2.685,3.149" transform="translate(-233.392 18.689)" fill="#e0e0e0"/>
        <path id="Trazado_237285" data-name="Trazado 237285" d="M334.807,104.5l72.785,2.36a2.906,2.906,0,0,0,2.848-2.971l.08-3.016a2.946,2.946,0,0,0-2.685-3.149l-72.787-2.359a2.9,2.9,0,0,0-2.847,2.969l-.08,3.016a2.946,2.946,0,0,0,2.685,3.149" transform="translate(-233.498 22.808)" fill="#e0e0e0"/>
        <path id="Trazado_237286" data-name="Trazado 237286" d="M334.212,118.049,407,120.409a2.9,2.9,0,0,0,2.847-2.969l.08-3.016a2.946,2.946,0,0,0-2.685-3.149l-72.785-2.359a2.9,2.9,0,0,0-2.848,2.969l-.08,3.016a2.946,2.946,0,0,0,2.685,3.149" transform="translate(-233.605 26.927)" fill="#e0e0e0"/>
        <path id="Trazado_237287" data-name="Trazado 237287" d="M333.617,131.6l72.785,2.359a2.9,2.9,0,0,0,2.848-2.969l.08-3.016a2.946,2.946,0,0,0-2.685-3.149l-72.787-2.359a2.9,2.9,0,0,0-2.847,2.969l-.08,3.016a2.946,2.946,0,0,0,2.685,3.149" transform="translate(-233.712 31.047)" fill="#e0e0e0"/>
        <path id="Trazado_237288" data-name="Trazado 237288" d="M333.022,145.141l72.787,2.359a2.9,2.9,0,0,0,2.847-2.969l.08-3.016a2.946,2.946,0,0,0-2.685-3.149l-72.785-2.359a2.9,2.9,0,0,0-2.848,2.969l-.08,3.016a2.946,2.946,0,0,0,2.685,3.149" transform="translate(-233.818 35.166)" fill="#e0e0e0"/>
        <path id="Trazado_237289" data-name="Trazado 237289" d="M332.427,158.687l72.787,2.359a2.9,2.9,0,0,0,2.847-2.969l.08-3.016a2.946,2.946,0,0,0-2.685-3.149l-72.787-2.359a2.9,2.9,0,0,0-2.847,2.969l-.08,3.016a2.946,2.946,0,0,0,2.685,3.149" transform="translate(-233.925 39.285)" fill="#e0e0e0"/>
        <path id="Trazado_237290" data-name="Trazado 237290" d="M331.832,172.233l72.787,2.36a2.906,2.906,0,0,0,2.847-2.971l.08-3.016a2.946,2.946,0,0,0-2.685-3.149L332.075,163.1a2.9,2.9,0,0,0-2.848,2.969l-.08,3.016a2.946,2.946,0,0,0,2.685,3.149" transform="translate(-234.032 43.404)" fill="#e0e0e0"/>
        <path id="Trazado_237291" data-name="Trazado 237291" d="M405.63,160.713l72.787,2.36a2.9,2.9,0,0,0,2.847-2.971l.08-3.016a2.946,2.946,0,0,0-2.685-3.149l-72.785-2.359a2.9,2.9,0,0,0-2.848,2.969l-.08,3.016a2.946,2.946,0,0,0,2.685,3.149" transform="translate(-220.801 39.901)" fill="#e0e0e0"/>
        <path id="Trazado_237292" data-name="Trazado 237292" d="M405.035,174.259l72.785,2.359a2.9,2.9,0,0,0,2.848-2.969l.08-3.016a2.946,2.946,0,0,0-2.685-3.149l-72.787-2.359a2.9,2.9,0,0,0-2.847,2.969l-.08,3.016a2.946,2.946,0,0,0,2.685,3.149" transform="translate(-220.908 44.02)" fill="#e0e0e0"/>
        <path id="Trazado_237293" data-name="Trazado 237293" d="M404.317,188.543,477.1,190.9a2.9,2.9,0,0,0,2.847-2.969l.081-3.016a2.947,2.947,0,0,0-2.685-3.149l-72.788-2.359a2.9,2.9,0,0,0-2.847,2.969l-.079,3.016a2.945,2.945,0,0,0,2.685,3.149" transform="translate(-221.036 48.364)" fill="#e0e0e0"/>
        <path id="Trazado_237294" data-name="Trazado 237294" d="M403.6,202.827l72.787,2.36a2.905,2.905,0,0,0,2.847-2.971l.08-3.016a2.947,2.947,0,0,0-2.685-3.149l-72.787-2.359a2.9,2.9,0,0,0-2.847,2.969l-.08,3.016a2.946,2.946,0,0,0,2.685,3.149" transform="translate(-221.165 52.708)" fill="#e0e0e0"/>
        <path id="Trazado_237295" data-name="Trazado 237295" d="M402.88,217.111l72.787,2.359a2.9,2.9,0,0,0,2.847-2.969l.08-3.016a2.946,2.946,0,0,0-2.685-3.149l-72.785-2.359a2.9,2.9,0,0,0-2.848,2.969l-.08,3.016a2.946,2.946,0,0,0,2.685,3.149" transform="translate(-221.294 57.051)" fill="#e0e0e0"/>
        <path id="Trazado_237296" data-name="Trazado 237296" d="M402.162,231.4l72.787,2.359a2.9,2.9,0,0,0,2.847-2.969l.08-3.016a2.946,2.946,0,0,0-2.685-3.149l-72.785-2.359a2.9,2.9,0,0,0-2.848,2.969l-.08,3.016a2.946,2.946,0,0,0,2.685,3.149" transform="translate(-221.423 61.395)" fill="#e0e0e0"/>
        <path id="Trazado_237297" data-name="Trazado 237297" d="M401.444,245.679l72.787,2.362a2.9,2.9,0,0,0,2.847-2.971l.08-3.016a2.946,2.946,0,0,0-2.685-3.149l-72.787-2.359a2.9,2.9,0,0,0-2.847,2.969l-.08,3.016a2.943,2.943,0,0,0,2.685,3.148" transform="translate(-221.552 65.739)" fill="#e0e0e0"/>
        <path id="Trazado_237298" data-name="Trazado 237298" d="M325.773,256.328l160.64,5.209a2.906,2.906,0,0,0,2.848-2.971l.08-3.016a2.947,2.947,0,0,0-2.686-3.149l-160.639-5.207a2.9,2.9,0,0,0-2.848,2.969l-.08,3.016a2.946,2.946,0,0,0,2.685,3.149" transform="translate(-235.118 68.977)" fill="#e0e0e0"/>
        <path id="Trazado_237299" data-name="Trazado 237299" d="M336.469,73.319l49.085,1.591a2.9,2.9,0,0,0,2.847-2.969l.08-3.016a2.946,2.946,0,0,0-2.685-3.149l-49.085-1.591a2.9,2.9,0,0,0-2.847,2.969l-.08,3.016a2.946,2.946,0,0,0,2.685,3.149" transform="translate(-233.2 13.326)" fill="#e0e0e0"/>
        <path id="Trazado_237300" data-name="Trazado 237300" d="M311.049,346.67s.343.034,1.014.069l2.987.141,11.531.483,42.8,1.669,144.589,5.4.309.012.015-.342c.546-12.708,1.118-26.033,1.7-39.6,3.086-72.882,5.88-138.853,7.9-186.622.98-23.87,1.774-43.187,2.322-56.558.259-6.665.461-11.845.6-15.378q.092-2.619.14-4c.027-.9.026-1.364.026-1.364s-.042.46-.091,1.36c-.047.917-.115,2.252-.2,4-.165,3.531-.407,8.709-.718,15.373-.6,13.367-1.459,32.682-2.524,56.547-2.071,47.766-4.929,113.734-8.088,186.611-.58,13.564-1.15,26.888-1.693,39.6l.324-.331-144.6-5.167-42.809-1.458-11.536-.361-2.988-.078c-.672-.013-1.017,0-1.017,0" transform="translate(-237.276 9.19)" fill="#263238"/>
        <path id="Trazado_237301" data-name="Trazado 237301" d="M325.409,355.037s.323.034.958.07l2.819.142,10.893.492,40.5,1.711,137.394,5.574.307.013.016-.34c.731-15.332,1.493-31.28,2.271-47.577,3.389-71.913,6.458-137.008,8.678-184.143,1.079-23.552,1.953-42.614,2.558-55.806.287-6.578.511-11.689.663-15.174q.1-2.586.157-3.947c.032-.889.031-1.346.031-1.346s-.042.454-.1,1.342c-.051.905-.124,2.222-.219,3.944-.18,3.485-.443,8.593-.783,15.168-.652,13.19-1.594,32.246-2.758,55.794-2.269,47.132-5.4,112.223-8.865,184.132-.775,16.3-1.532,32.245-2.261,47.577l.323-.326L380.592,357l-40.506-1.5-10.9-.373-2.821-.081c-.636-.016-.96-.007-.96-.007" transform="translate(-234.702 10.443)" fill="#263238"/>
        <path id="Trazado_237302" data-name="Trazado 237302" d="M383.932,29.548l3.146-3.406,37.534.2,1.818,3.795Z" transform="translate(-224.209 1.758)" fill="#263238"/>
        <path id="Trazado_255074" data-name="Trazado 255074" d="M.032.013,19.809-.011l-.057,42.5-19.776.024Z" transform="translate(159.485 51.113) rotate(-89.278)" fill="#263238"/>
        <path id="Trazado_237303" data-name="Trazado 237303" d="M427.9,45.561l.007-.682a1.566,1.566,0,0,0-1.459-1.654l-42.5-.592a1.557,1.557,0,0,0-1.5,1.613l-.008.682a1.567,1.567,0,0,0,1.458,1.654l42.5.592a1.558,1.558,0,0,0,1.5-1.613" transform="translate(-224.475 6.772)" fill="#263238"/>
        <path id="Trazado_237304" data-name="Trazado 237304" d="M412.842,49.538h-.021l-18.693-.261a1.611,1.611,0,0,1-1.34-.792,1.991,1.991,0,0,1-.186-1.667l5.506-16.373a11.2,11.2,0,0,1-3.938-8.5c-.077-5.889,4.188-10.8,9.5-10.952A9.212,9.212,0,0,1,410.79,14.1a11.3,11.3,0,0,1,2.9,7.821,11.1,11.1,0,0,1-4.2,8.731l4.914,16.49a1.992,1.992,0,0,1-.236,1.648,1.607,1.607,0,0,1-1.329.745M403.932,12.3c-.077,0-.152,0-.228,0-4.594.129-8.421,4.538-8.355,9.628a9.8,9.8,0,0,0,3.8,7.736l.386.287-5.826,17.324a.564.564,0,0,0,.052.475.451.451,0,0,0,.382.224l18.693.261a.438.438,0,0,0,.384-.211.563.563,0,0,0,.068-.469l-5.2-17.45.392-.271a9.708,9.708,0,0,0,4.038-7.925,9.939,9.939,0,0,0-2.553-6.875,8.118,8.118,0,0,0-6.03-2.736" transform="translate(-222.674 -2.849)" fill="#455a64"/>
        <path id="Trazado_237305" data-name="Trazado 237305" d="M425.9,43.231a1.886,1.886,0,0,0-.428-.027l-1.219-.034-4.493-.1L404.938,42.8l-14.829-.184-4.494-.016-1.223.016a1.823,1.823,0,0,0-.427.031,1.8,1.8,0,0,0,.426.046l1.222.057,4.493.137c3.794.1,9.036.207,14.828.3s11.032.145,14.827.155c1.9.005,3.434,0,4.5-.02.532-.013.942-.018,1.225-.038a1.751,1.751,0,0,0,.423-.051" transform="translate(-224.204 6.762)" fill="#455a64"/>
        <path id="Trazado_237306" data-name="Trazado 237306" d="M426.419,29.043a1.882,1.882,0,0,0-.428-.027l-1.219-.034-4.493-.1-14.826-.267-14.829-.184-4.5-.016-1.222.016a1.824,1.824,0,0,0-.427.031,1.807,1.807,0,0,0,.426.046l1.222.057,4.492.137c3.795.1,9.037.207,14.829.3s11.032.145,14.827.155c1.9.005,3.434,0,4.5-.02.532-.013.942-.018,1.224-.038a1.757,1.757,0,0,0,.425-.051" transform="translate(-224.111 2.448)" fill="#455a64"/>
        <path id="Trazado_237307" data-name="Trazado 237307" d="M389.543,254.934,338.2,253.27c-5.81-.189-10.382-5.55-10.213-11.975l1.315-49.58c.17-6.424,5.018-11.481,10.828-11.292l51.346,1.664c5.81.189,10.382,5.55,10.211,11.975l-1.314,49.579c-.171,6.427-5.019,11.483-10.829,11.293" transform="translate(-234.241 48.671)" fill="#ebebeb"/>
        <path id="Trazado_237308" data-name="Trazado 237308" d="M328.128,230.474a2.011,2.011,0,0,1,.782-1.552l23.7-17.586a4.549,4.549,0,0,1,6.264.127,1.6,1.6,0,0,0,.314.239l10.74,6.1a1.644,1.644,0,0,0,2.045-.34l16.273-17.6a4.735,4.735,0,0,1,7.313.688l5.222,7.248a2.09,2.09,0,0,1,.384,1.238l-.248,29.278c-.052,6.2-4.708,11.143-10.314,10.948l-52.979-1.852c-5.539-.194-9.88-5.334-9.676-11.458Z" transform="translate(-234.248 54.153)" fill="#e0e0e0"/>
        <path id="Trazado_237309" data-name="Trazado 237309" d="M359.976,197.231c.183,4.416-2.907,8.16-6.9,8.362s-7.379-3.215-7.562-7.63,2.907-8.16,6.9-8.362,7.379,3.215,7.562,7.63" transform="translate(-231.099 51.461)" fill="#e0e0e0"/>
        <path id="Trazado_237310" data-name="Trazado 237310" d="M468.864,160.352l-51.345-1.664c-5.81-.189-10.382-5.55-10.213-11.975l1.315-49.579c.17-6.425,5.018-11.481,10.828-11.293L470.8,87.5c5.81.189,10.382,5.55,10.212,11.975l-1.314,49.58c-.171,6.425-5.019,11.481-10.829,11.292" transform="translate(-220.02 19.91)" fill="#ebebeb"/>
        <path id="Trazado_237311" data-name="Trazado 237311" d="M407.473,134.9l24.448-18.141a4.556,4.556,0,0,1,6.407.269l12.044,6.839,17.185-18.581a4.735,4.735,0,0,1,7.313.689l5.612,7.792-.237,28.027c-.061,7.27-5.518,13.06-12.088,12.831l-49.495-1.731c-6.492-.227-11.579-6.249-11.341-13.427Z" transform="translate(-220.018 25.392)" fill="#e0e0e0"/>
        <path id="Trazado_237312" data-name="Trazado 237312" d="M439.3,102.649c.183,4.416-2.907,8.16-6.9,8.362s-7.379-3.215-7.562-7.63,2.907-8.16,6.9-8.362,7.379,3.215,7.562,7.63" transform="translate(-216.877 22.7)" fill="#e0e0e0"/>
        <path id="Trazado_237313" data-name="Trazado 237313" d="M338.063,122.5a2.866,2.866,0,0,1-.951-.293,5.4,5.4,0,0,1-2.159-2.017,7.337,7.337,0,0,1-1.053-4.785,9.843,9.843,0,0,1,2.862-5.713,14.506,14.506,0,0,1,6.447-3.505,32.259,32.259,0,0,1,8.176-1.168,33.314,33.314,0,0,1,18.152,5.091,13.688,13.688,0,0,1,3.847,3.569,9.438,9.438,0,0,1,1.726,5.074,7.178,7.178,0,0,1-1.723,4.872,10.035,10.035,0,0,1-3.834,2.66,23.715,23.715,0,0,1-8.144,1.455,41.99,41.99,0,0,1-7.166-.342,41.389,41.389,0,0,1-10.07-2.686c-1.149-.469-2.024-.88-2.606-1.185a5.56,5.56,0,0,1-.876-.49,5.674,5.674,0,0,1,.925.365c.6.263,1.482.633,2.637,1.06a44.008,44.008,0,0,0,10.042,2.46,42.588,42.588,0,0,0,7.1.257,23.533,23.533,0,0,0,7.964-1.479,9.515,9.515,0,0,0,3.606-2.518,6.5,6.5,0,0,0,1.55-4.41,8.735,8.735,0,0,0-1.61-4.679,13.083,13.083,0,0,0-3.673-3.4,33.118,33.118,0,0,0-17.834-5.051,32.184,32.184,0,0,0-8.057,1.088,14.155,14.155,0,0,0-6.282,3.318,9.443,9.443,0,0,0-2.813,5.408,7.115,7.115,0,0,0,.912,4.585,5.581,5.581,0,0,0,2.013,2.041c.571.31.908.381.9.417" transform="translate(-233.19 25.743)" fill="#263238"/>
        <path id="Trazado_237314" data-name="Trazado 237314" d="M363.909,262.2a2.865,2.865,0,0,1-.951-.293,5.393,5.393,0,0,1-2.159-2.017,7.338,7.338,0,0,1-1.053-4.785,9.843,9.843,0,0,1,2.862-5.713,14.518,14.518,0,0,1,6.448-3.505,32.194,32.194,0,0,1,8.175-1.168,33.312,33.312,0,0,1,18.152,5.091,13.691,13.691,0,0,1,3.847,3.569,9.428,9.428,0,0,1,1.727,5.074,7.179,7.179,0,0,1-1.723,4.872,10.036,10.036,0,0,1-3.834,2.66,23.713,23.713,0,0,1-8.144,1.455,41.981,41.981,0,0,1-7.165-.342,41.392,41.392,0,0,1-10.071-2.687c-1.149-.469-2.024-.88-2.606-1.185a5.552,5.552,0,0,1-.876-.49,5.66,5.66,0,0,1,.924.365c.6.263,1.484.632,2.638,1.062a44.06,44.06,0,0,0,10.04,2.458,42.587,42.587,0,0,0,7.1.257A23.533,23.533,0,0,0,395.2,265.4a9.5,9.5,0,0,0,3.606-2.518,6.49,6.49,0,0,0,1.55-4.41,8.735,8.735,0,0,0-1.61-4.679,13.087,13.087,0,0,0-3.674-3.4,33.128,33.128,0,0,0-17.834-5.049,32.17,32.17,0,0,0-8.056,1.088,14.153,14.153,0,0,0-6.283,3.318,9.449,9.449,0,0,0-2.813,5.408A7.114,7.114,0,0,0,361,259.74a5.573,5.573,0,0,0,2.014,2.041c.57.31.907.381.9.417" transform="translate(-228.556 68.223)" fill="#263238"/>
        <path id="Trazado_237315" data-name="Trazado 237315" d="M333.907,76.753a2.864,2.864,0,0,1-.951-.293,5.4,5.4,0,0,1-2.159-2.017,7.337,7.337,0,0,1-1.053-4.785,9.843,9.843,0,0,1,2.862-5.713,14.52,14.52,0,0,1,6.448-3.507,32.243,32.243,0,0,1,8.175-1.167,33.313,33.313,0,0,1,18.151,5.091,13.689,13.689,0,0,1,3.847,3.569,9.428,9.428,0,0,1,1.726,5.074,7.178,7.178,0,0,1-1.723,4.872,10.036,10.036,0,0,1-3.834,2.66,23.711,23.711,0,0,1-8.144,1.455,41.973,41.973,0,0,1-7.165-.342,41.387,41.387,0,0,1-10.071-2.686c-1.149-.47-2.024-.88-2.606-1.185a5.569,5.569,0,0,1-.876-.49,5.672,5.672,0,0,1,.925.365c.6.263,1.483.632,2.637,1.062a44.088,44.088,0,0,0,10.042,2.458,42.588,42.588,0,0,0,7.1.257,23.534,23.534,0,0,0,7.964-1.479,9.516,9.516,0,0,0,3.606-2.518,6.5,6.5,0,0,0,1.55-4.41,8.734,8.734,0,0,0-1.61-4.679,13.086,13.086,0,0,0-3.673-3.4A33.128,33.128,0,0,0,347.235,59.9a32.167,32.167,0,0,0-8.056,1.088A14.153,14.153,0,0,0,332.9,64.3a9.449,9.449,0,0,0-2.813,5.408,7.109,7.109,0,0,0,.912,4.584,5.577,5.577,0,0,0,2.014,2.042c.569.31.907.381.9.417" transform="translate(-233.935 11.831)" fill="#263238"/>
        <path id="Trazado_237316" data-name="Trazado 237316" d="M486.863,212.986l16.214.447,7.736,11.025-8.326,11.232-16.639-.54Z" transform="translate(-205.937 58.575)" fill="#a3314f"/>
        <path id="Trazado_237317" data-name="Trazado 237317" d="M488.166,188.868l16.214.447,7.736,11.025-8.326,11.232-16.638-.54Z" transform="translate(-205.704 51.241)" fill="#455a64"/>
        <path id="Trazado_237318" data-name="Trazado 237318" d="M308.546,15.463H257.257a.644.644,0,0,0-.61.674v.28a.644.644,0,0,0,.61.674h51.289a.644.644,0,0,0,.61-.674v-.28a.644.644,0,0,0-.61-.674" transform="translate(-247.03 -1.49)" fill="#e0e0e0"/>
        <path id="Trazado_237319" data-name="Trazado 237319" d="M308.546,19.427H257.257a.644.644,0,0,0-.61.674v.28a.644.644,0,0,0,.61.674h51.289a.644.644,0,0,0,.61-.674V20.1a.644.644,0,0,0-.61-.674" transform="translate(-247.03 -0.284)" fill="#e0e0e0"/>
        <path id="Trazado_237320" data-name="Trazado 237320" d="M308.546,23.391H257.257a.644.644,0,0,0-.61.674v.28a.644.644,0,0,0,.61.674h51.289a.644.644,0,0,0,.61-.674v-.28a.644.644,0,0,0-.61-.674" transform="translate(-247.03 0.921)" fill="#e0e0e0"/>
        <path id="Trazado_237321" data-name="Trazado 237321" d="M309.2,19.162c.136-.113,8.3,11.572,18.226,26.1s17.873,26.4,17.738,26.511-8.3-11.57-18.228-26.1S309.064,19.276,309.2,19.162" transform="translate(-237.608 -0.365)" fill="#263238"/>
        <path id="Trazado_237322" data-name="Trazado 237322" d="M311.244,18.873a2.007,2.007,0,1,1-3.994,0,2.007,2.007,0,1,1,3.994,0" transform="translate(-237.958 -1.124)" fill="#263238"/>
        <path id="Trazado_237323" data-name="Trazado 237323" d="M365.918,370.731H306.1c-2.894,0-5.2-2.676-5.063-5.874l1.214-28.025a5.328,5.328,0,0,1,5.064-5.338h59.817c2.9,0,5.2,2.676,5.064,5.874l-1.215,28.025a5.325,5.325,0,0,1-5.063,5.338" transform="translate(-239.072 94.612)" fill="#fafafa"/>
        <path id="Trazado_237324" data-name="Trazado 237324" d="M365.962,370.81a5.743,5.743,0,0,0,1.973-.519,5.132,5.132,0,0,0,1.913-1.656,5.935,5.935,0,0,0,1.068-3.421c.224-5.687.544-13.857.94-23.94-.019-2.479.737-5.369-.936-7.465a4.684,4.684,0,0,0-3.1-1.91c-1.228-.1-2.6-.022-3.929-.043l-17.174.031-39.351.027a4.713,4.713,0,0,0-4.076,2.538,5.793,5.793,0,0,0-.69,2.54q-.062,1.418-.123,2.826-.248,5.634-.486,11.091t-.47,10.7q-.058,1.313-.116,2.61a7.2,7.2,0,0,0,.152,2.457,5.151,5.151,0,0,0,2.807,3.434,4.791,4.791,0,0,0,2.1.389l2.224,0,4.36.008,8.338.017,14.964.042,21.668.108,5.891.063,1.532.034a2.972,2.972,0,0,1,.522.035,2.962,2.962,0,0,1-.522.035l-1.532.033-5.891.064-21.668.108-14.964.042-8.338.017-4.36.008-2.224,0a5.3,5.3,0,0,1-2.313-.426A5.753,5.753,0,0,1,301,366.858a7.873,7.873,0,0,1-.181-2.666q.055-1.3.111-2.61.223-5.246.456-10.705t.475-11.091q.06-1.408.121-2.826a6.528,6.528,0,0,1,.777-2.86,5.32,5.32,0,0,1,4.6-2.865l39.351.026,17.174.031c1.359.029,2.637-.051,3.994.068a5.156,5.156,0,0,1,3.4,2.118,6.312,6.312,0,0,1,1.178,3.94q-.09,1.983-.176,3.88c-.478,10.078-.866,18.246-1.134,23.93a6.136,6.136,0,0,1-1.165,3.534,5.143,5.143,0,0,1-2.006,1.655,4.706,4.706,0,0,1-1.5.4,4.857,4.857,0,0,1-.525,0" transform="translate(-239.116 94.533)" fill="#263238"/>
        <path id="Trazado_237325" data-name="Trazado 237325" d="M360.842,341.95H309.553a.644.644,0,0,0-.61.674v.28a.645.645,0,0,0,.61.674h51.289a.644.644,0,0,0,.608-.674v-.28a.643.643,0,0,0-.608-.674" transform="translate(-237.654 97.791)" fill="#e0e0e0"/>
        <path id="Trazado_237326" data-name="Trazado 237326" d="M360.842,345.914H309.553a.644.644,0,0,0-.61.674v.28a.644.644,0,0,0,.61.674h51.289a.643.643,0,0,0,.608-.674v-.28a.643.643,0,0,0-.608-.674" transform="translate(-237.654 98.997)" fill="#e0e0e0"/>
        <path id="Trazado_237327" data-name="Trazado 237327" d="M360.842,349.878H309.553a.644.644,0,0,0-.61.674v.28a.644.644,0,0,0,.61.674h51.289a.643.643,0,0,0,.608-.674v-.28a.643.643,0,0,0-.608-.674" transform="translate(-237.654 100.202)" fill="#e0e0e0"/>
        <path id="Trazado_237328" data-name="Trazado 237328" d="M381.831,261.074c.151.086-9.414,20.717-21.36,46.072S338.714,353,338.564,352.909s9.412-20.712,21.362-46.076,21.754-45.845,21.905-45.759" transform="translate(-232.344 73.198)" fill="#263238"/>
        <path id="Trazado_237329" data-name="Trazado 237329" d="M340.864,332.01a2.007,2.007,0,1,1-2-2.209,2.112,2.112,0,0,1,2,2.209" transform="translate(-232.647 94.097)" fill="#263238"/>
      </g>
    </g>
    <g id="Grupo_165476" data-name="Grupo 165476" transform="translate(-22.742 2855)" clip-path="url(#clip-path-4)">
      <path id="Trazado_237331" data-name="Trazado 237331" d="M505.984,345.988c0,.139-12.591.252-28.12.252s-28.122-.113-28.122-.252,12.588-.252,28.122-.252,28.12.113,28.12.252" transform="translate(9.485 51.609)" fill="#263238"/>
      <g id="Grupo_876255" data-name="Grupo 876255" transform="translate(418.727 483.147)">
        <path id="Trazado_237340" data-name="Trazado 237340" d="M513.049,428.372H429.983c-10.992,0-19.9-10.03-19.9-22.4v-9.358c0-12.373,8.912-22.4,19.9-22.4h83.066c4.262,0,7.716,3.889,7.716,8.685v36.794c0,4.8-3.454,8.685-7.716,8.685" transform="translate(-410.079 -374.208)" fill="#ffb500"/>
        <path id="Trazado_237341" data-name="Trazado 237341" d="M688.268,383.2H496.906A2.037,2.037,0,0,1,495,381.053v-4.7a2.037,2.037,0,0,1,1.906-2.147H688.268a3.53,3.53,0,0,1,3.3,3.719v1.554a3.53,3.53,0,0,1-3.3,3.719" transform="translate(-408.288 -374.208)" fill="#ffb500"/>
        <path id="Trazado_237342" data-name="Trazado 237342" d="M688.268,422.5H496.906A2.037,2.037,0,0,1,495,420.358v-4.7a2.037,2.037,0,0,1,1.906-2.147H688.268a3.53,3.53,0,0,1,3.3,3.719v1.554a3.53,3.53,0,0,1-3.3,3.719" transform="translate(-408.288 -368.341)" fill="#ffb500"/>
        <path id="Trazado_237343" data-name="Trazado 237343" d="M685.587,418.214H516.814c-8.876,0-16.073-8.1-16.073-18.091s7.2-18.091,16.073-18.091H685.587a49.9,49.9,0,0,0,0,36.181" transform="translate(-408.167 -373.04)" fill="#f5f5f5"/>
        <g id="Grupo_165472" data-name="Grupo 165472" transform="translate(0 0.001)" opacity="0.3">
          <g id="Grupo_165471" data-name="Grupo 165471">
            <g id="Grupo_165470" data-name="Grupo 165470" clip-path="url(#clip-path-5)">
              <path id="Trazado_237344" data-name="Trazado 237344" d="M502.654,428.372H433.883c-13.146,0-23.8-11.995-23.8-26.792,0-15.118,10.888-27.372,24.318-27.372h70.088c-17.424,11.88-16.122,40.33-1.832,54.164" transform="translate(-410.079 -374.208)"/>
            </g>
          </g>
        </g>
        <path id="Trazado_237345" data-name="Trazado 237345" d="M664.884,399.267c0,.139-34.641.252-77.364.252-42.738,0-77.372-.113-77.372-.252s34.634-.252,77.372-.252c42.722,0,77.364.113,77.364.252" transform="translate(-407.969 -370.505)" fill="#263238"/>
        <path id="Trazado_237346" data-name="Trazado 237346" d="M680.477,406.264c0,.139-34.641.252-77.364.252-42.738,0-77.372-.113-77.372-.252s34.634-.252,77.372-.252c42.722,0,77.364.112,77.364.252" transform="translate(-407.64 -369.46)" fill="#263238"/>
        <path id="Trazado_237347" data-name="Trazado 237347" d="M675.879,392.774c0,.139-34.642.252-77.364.252-42.738,0-77.372-.113-77.372-.252s34.634-.252,77.372-.252c42.722,0,77.364.113,77.364.252" transform="translate(-407.737 -371.474)" fill="#263238"/>
        <path id="Trazado_237348" data-name="Trazado 237348" d="M493.939,418.068c0,.139-16.216.252-36.214.252s-36.217-.113-36.217-.252,16.213-.252,36.217-.252,36.214.113,36.214.252" transform="translate(-409.838 -367.698)" fill="#263238"/>
        <path id="Trazado_237349" data-name="Trazado 237349" d="M493.939,378.153c0,.139-16.216.252-36.214.252s-36.217-.113-36.217-.252,16.213-.252,36.217-.252,36.214.112,36.214.252" transform="translate(-409.838 -373.656)" fill="#263238"/>
      </g>
      <g id="Grupo_876256" data-name="Grupo 876256" transform="translate(468.229 452.332)">
        <path id="Trazado_237350" data-name="Trazado 237350" d="M547.958,378.408h-78c-6.294,0-11.4-5.743-11.4-12.827v-5.358c0-7.084,5.1-12.827,11.4-12.827h78a.566.566,0,0,1,.53.6v29.819a.566.566,0,0,1-.53.6" transform="translate(-458.558 -347.395)" fill="#455a64"/>
        <path id="Trazado_237351" data-name="Trazado 237351" d="M684.577,354.7h-155.8a1.306,1.306,0,0,1-1.222-1.376v-4.554a1.307,1.307,0,0,1,1.222-1.377h155.8a2.869,2.869,0,0,1,2.684,3.022v1.262a2.868,2.868,0,0,1-2.684,3.021" transform="translate(-457.103 -347.395)" fill="#455a64"/>
        <path id="Trazado_237352" data-name="Trazado 237352" d="M684.577,375.329h-155.8a1.306,1.306,0,0,1-1.222-1.376V369.4a1.307,1.307,0,0,1,1.222-1.377h155.8a2.868,2.868,0,0,1,2.684,3.023v1.262a2.868,2.868,0,0,1-2.684,3.021" transform="translate(-457.103 -344.317)" fill="#455a64"/>
        <path id="Trazado_237353" data-name="Trazado 237353" d="M682.4,370.153H539.5c-4.024,0-7.286-3.672-7.286-8.2s3.262-8.2,7.286-8.2H682.4q-5.515,8.2,0,16.4" transform="translate(-457.004 -346.447)" fill="#f5f5f5"/>
        <g id="Grupo_165475" data-name="Grupo 165475" transform="translate(0 0.001)" opacity="0.3">
          <g id="Grupo_165474" data-name="Grupo 165474">
            <g id="Grupo_165473" data-name="Grupo 165473" clip-path="url(#clip-path-6)">
              <path id="Trazado_237354" data-name="Trazado 237354" d="M533.771,378.408H472.223c-7.547,0-13.665-6.886-13.665-15.382,0-8.632,6.217-15.63,13.887-15.63H535.26c-14.157,6.8-13.1,23.091-1.489,31.012" transform="translate(-458.558 -347.396)"/>
            </g>
          </g>
        </g>
        <path id="Trazado_237355" data-name="Trazado 237355" d="M665.579,359.8c0,.139-28.145.252-62.856.252s-62.863-.113-62.863-.252,28.139-.252,62.863-.252,62.856.113,62.856.252" transform="translate(-456.843 -345.581)" fill="#263238"/>
        <path id="Trazado_237356" data-name="Trazado 237356" d="M678.249,363.638c0,.139-28.145.252-62.856.252s-62.862-.113-62.862-.252,28.139-.252,62.862-.252,62.856.113,62.856.252" transform="translate(-456.576 -345.008)" fill="#263238"/>
        <path id="Trazado_237357" data-name="Trazado 237357" d="M526.691,371.73c0,.139-13.175.252-29.423.252s-29.425-.113-29.425-.252,13.171-.252,29.425-.252,29.423.113,29.423.252" transform="translate(-458.362 -343.8)" fill="#263238"/>
        <path id="Trazado_237358" data-name="Trazado 237358" d="M526.691,350.607c0,.139-13.175.252-29.423.252s-29.425-.113-29.425-.252,13.171-.252,29.425-.252,29.423.113,29.423.252" transform="translate(-458.362 -346.953)" fill="#263238"/>
      </g>
      <g id="Grupo_876257" data-name="Grupo 876257" transform="translate(450.165 410.46)">
        <path id="Trazado_237330" data-name="Trazado 237330" d="M656.878,349.426H506.807v-6.982h150.07a2.741,2.741,0,0,1,2.566,2.888v1.206a2.741,2.741,0,0,1-2.566,2.888" transform="translate(-439.476 -307.368)" fill="#ff725e"/>
        <path id="Trazado_237332" data-name="Trazado 237332" d="M526.814,353.982H456.323c-8.536,0-15.456-7.789-15.456-17.4v-7.267c0-9.608,6.92-17.4,15.456-17.4h70.491Z" transform="translate(-440.867 -311.924)" fill="#ff725e"/>
        <path id="Trazado_237333" data-name="Trazado 237333" d="M656.878,318.906h-148.9a1.248,1.248,0,0,1-1.168-1.316v-4.351a1.248,1.248,0,0,1,1.168-1.315h148.9a2.741,2.741,0,0,1,2.566,2.888v1.206a2.741,2.741,0,0,1-2.566,2.888" transform="translate(-439.476 -311.924)" fill="#ff725e"/>
        <path id="Trazado_237334" data-name="Trazado 237334" d="M654.8,346.093H523.746c-6.892,0-12.48-6.289-12.48-14.048S516.853,318,523.746,318H654.8a38.747,38.747,0,0,0,0,28.094" transform="translate(-439.383 -311.017)" fill="#f5f5f5"/>
        <g id="Grupo_165469" data-name="Grupo 165469" transform="translate(0)" opacity="0.3">
          <g id="Grupo_165468" data-name="Grupo 165468">
            <g id="Grupo_165467" data-name="Grupo 165467" clip-path="url(#clip-path-7)">
              <path id="Trazado_237335" data-name="Trazado 237335" d="M512.751,353.982H455.027c-7.821,0-14.16-7.136-14.16-15.937V327.732c0-8.731,6.289-15.808,14.046-15.808h59.26c-13.53,9.224-12.519,31.315-1.422,42.058" transform="translate(-440.867 -311.924)" fill="#a3314f"/>
            </g>
          </g>
        </g>
        <path id="Trazado_237336" data-name="Trazado 237336" d="M638.721,331.39c0,.139-26.9.252-60.073.252s-60.078-.113-60.078-.252,26.892-.252,60.078-.252,60.073.113,60.073.252" transform="translate(-439.228 -309.056)" fill="#263238"/>
        <path id="Trazado_237337" data-name="Trazado 237337" d="M650.829,336.823c0,.139-26.9.252-60.073.252s-60.078-.113-60.078-.252,26.892-.252,60.078-.252,60.073.113,60.073.252" transform="translate(-438.973 -308.245)" fill="#263238"/>
        <path id="Trazado_237338" data-name="Trazado 237338" d="M647.259,323.684c0,.139-26.9.252-60.073.252s-60.078-.113-60.078-.252,26.893-.252,60.078-.252,60.073.113,60.073.252" transform="translate(-439.049 -310.206)" fill="#263238"/>
        <path id="Trazado_237339" data-name="Trazado 237339" d="M505.984,314.995c0,.139-12.591.252-28.12.252s-28.122-.113-28.122-.252,12.588-.252,28.122-.252,28.12.113,28.12.252" transform="translate(-440.681 -311.503)" fill="#263238"/>
        <path id="Trazado_237359" data-name="Trazado 237359" d="M686.586,347.429c0,.139-48.328.252-107.93.252-59.624,0-107.942-.113-107.942-.252s48.318-.252,107.942-.252c59.6,0,107.93.113,107.93.252" transform="translate(-440.238 -306.662)" fill="#263238"/>
      </g>
      <path id="Trazado_237360" data-name="Trazado 237360" d="M597.246,323.251v16.844l5.187-3.743,5.787,3.743V323.251Z" transform="translate(12.596 48.253)" fill="#ff725e"/>
    </g>
    <g id="Grupo_165479" data-name="Grupo 165479" transform="translate(-22.742 2855)">
      <g id="Grupo_165478" data-name="Grupo 165478" clip-path="url(#clip-path-2)">
        <path id="Trazado_237361" data-name="Trazado 237361" d="M665.805,72.6H619.5c-9.8,0-17.753,8.946-17.753,19.981,0,10.645,7.4,19.32,16.725,19.923l4.193,8.164,5.238-8.106h37.9c9.8,0,17.753-8.946,17.753-19.981S675.609,72.6,665.805,72.6" transform="translate(12.691 10.838)" fill="#fff"/>
        <path id="Trazado_237362" data-name="Trazado 237362" d="M665.81,72.636s.159-.01.472,0l1.388.056a17.022,17.022,0,0,1,5.188,1.47,18.621,18.621,0,0,1,6.794,5.7A22.23,22.23,0,0,1,682.4,85.03a22.352,22.352,0,0,1-3.2,21.029,18.532,18.532,0,0,1-6.265,5.13,17.24,17.24,0,0,1-8.1,1.673l-36.924.032.213-.122c-1.664,2.576-3.441,5.326-5.236,8.107l-.241.371-.2-.4-1.707-3.325c-.852-1.657-1.7-3.306-2.485-4.84l.215.148a17.862,17.862,0,0,1-5.19-1.219,18.324,18.324,0,0,1-4.586-2.821,20.26,20.26,0,0,1-6.045-9.1,22.865,22.865,0,0,1-.807-10.923,21.355,21.355,0,0,1,4.1-9.425,17.879,17.879,0,0,1,7.288-5.672c.342-.137.678-.288,1.021-.408l1.043-.3a15.286,15.286,0,0,1,2.089-.425c.7-.106,1.4-.1,2.086-.148h2.031l14.918.037,21.531.093,5.836.055,1.516.029c.341.01.516.03.516.03s-.175.02-.516.03l-1.516.029-5.836.055-21.531.093-14.918.037-2.03.006c-.673.055-1.356.047-2.034.153a14.819,14.819,0,0,0-2.036.422l-1.015.3c-.334.118-.661.268-.994.4A17.443,17.443,0,0,0,606.3,79.7a20.8,20.8,0,0,0-3.971,9.176,22.226,22.226,0,0,0,.8,10.612A19.677,19.677,0,0,0,609,108.323a17.8,17.8,0,0,0,4.452,2.736,17.44,17.44,0,0,0,5.038,1.181l.145.013.07.137,2.485,4.84c.584,1.139,1.167,2.273,1.706,3.324l-.444-.026,5.238-8.1.08-.123h.135l36.924.032a16.815,16.815,0,0,0,7.924-1.6,18.1,18.1,0,0,0,6.131-4.983A21.938,21.938,0,0,0,682.1,85.164a22.043,22.043,0,0,0-2.667-5.1,18.632,18.632,0,0,0-6.656-5.7,17.633,17.633,0,0,0-6.971-1.724" transform="translate(12.686 10.806)" fill="#263238"/>
        <path id="Trazado_237363" data-name="Trazado 237363" d="M621.993,84.555l1.66,3.787,3.713.607L624.679,91.9l.634,4.163-3.32-1.965-3.321,1.965.634-4.163-2.686-2.947,3.713-.607Z" transform="translate(13.004 12.622)" fill="#ffb500"/>
        <path id="Trazado_237364" data-name="Trazado 237364" d="M635.787,84.555l1.66,3.787,3.713.607L638.474,91.9l.634,4.163-3.321-1.965-3.321,1.965L633.1,91.9l-2.687-2.947,3.713-.607Z" transform="translate(13.295 12.622)" fill="#ffb500"/>
        <path id="Trazado_237365" data-name="Trazado 237365" d="M649.583,84.555l1.66,3.787,3.713.607L652.269,91.9l.634,4.163-3.321-1.965-3.321,1.965L646.9,91.9l-2.686-2.947,3.713-.607Z" transform="translate(13.586 12.622)" fill="#ffb500"/>
        <path id="Trazado_237366" data-name="Trazado 237366" d="M663.378,84.555l1.66,3.787,3.713.607L666.064,91.9l.634,4.163-3.32-1.965-3.321,1.965.634-4.163L658,88.949l3.713-.607Z" transform="translate(13.877 12.622)" fill="#ffb500"/>
      </g>
    </g>
    <g id="Grupo_165499" data-name="Grupo 165499" transform="translate(195.689 2941.456)">
      <g id="Grupo_165509" data-name="Grupo 165509">
        <path id="Trazado_237432" data-name="Trazado 237432" d="M209.653,153.122s-8.088,49.753-7.7,54.4,2.541,12.053,7.42,13.322a19.88,19.88,0,0,0,9.37,0l-5.857-61.111Z" transform="translate(-201.942 -23.42)" fill="#ffc09d"/>
        <path id="Trazado_237433" data-name="Trazado 237433" d="M230.514,131.466l-.567-51.411c-.517-12.784,5.779-23.773,17.35-23.99l1.07.049c10.772.492,19.4,10.044,19.821,21.956.393,11.085.7,23.337.411,29.26a13.923,13.923,0,0,1-11.763,13.664c-.025,0-.069,7.464-.063,11.068l-8.93,13.7v.732Z" transform="translate(-199.186 -47.413)" fill="#ffc09d"/>
        <path id="Trazado_237434" data-name="Trazado 237434" d="M255.7,110.464a25.02,25.02,0,0,1-14.269-5.383,13.864,13.864,0,0,0,14.242,8.784Z" transform="translate(-198.052 -36.886)" fill="#ff9b6c"/>
        <path id="Trazado_237435" data-name="Trazado 237435" d="M261.825,83.185a1.67,1.67,0,0,1-1.594,1.7,1.594,1.594,0,0,1-1.573-1.655,1.67,1.67,0,0,1,1.592-1.7,1.6,1.6,0,0,1,1.575,1.656" transform="translate(-196.355 -41.944)" fill="#263238"/>
        <path id="Trazado_237436" data-name="Trazado 237436" d="M262.986,78.9c-.2.219-1.369-.818-3.074-.89-1.7-.1-2.99.813-3.166.573-.087-.107.129-.51.69-.924a4.048,4.048,0,0,1,2.545-.741,3.964,3.964,0,0,1,2.435.994c.507.469.67.89.569.989" transform="translate(-196.545 -42.936)" fill="#263238"/>
        <path id="Trazado_237437" data-name="Trazado 237437" d="M247.963,83.185a1.669,1.669,0,0,1-1.594,1.7,1.592,1.592,0,0,1-1.574-1.653,1.671,1.671,0,0,1,1.593-1.7,1.6,1.6,0,0,1,1.575,1.656" transform="translate(-197.721 -41.944)" fill="#263238"/>
        <path id="Trazado_237438" data-name="Trazado 237438" d="M247.758,78.632c-.205.22-1.371-.818-3.075-.89-1.7-.1-2.989.813-3.166.573-.087-.106.128-.509.691-.923a4.049,4.049,0,0,1,2.544-.742,3.968,3.968,0,0,1,2.437.995c.506.469.669.89.569.988" transform="translate(-198.045 -42.993)" fill="#263238"/>
        <path id="Trazado_237439" data-name="Trazado 237439" d="M252.291,93.221a10.363,10.363,0,0,1,2.79-.426c.437-.029.852-.106.938-.431a2.686,2.686,0,0,0-.237-1.441q-.549-1.775-1.15-3.724c-1.594-5.3-2.728-9.651-2.534-9.722s1.642,4.173,3.235,9.473q.573,1.961,1.1,3.745a3.061,3.061,0,0,1,.156,1.9,1.123,1.123,0,0,1-.743.671,2.7,2.7,0,0,1-.744.08,10,10,0,0,1-2.807-.124" transform="translate(-197.003 -42.815)" fill="#263238"/>
        <path id="Trazado_237440" data-name="Trazado 237440" d="M248.6,73.834c-.249.47-1.885-.111-3.9-.25-2.01-.185-3.7.128-3.89-.378-.08-.241.276-.658,1-1.016a5.93,5.93,0,0,1,3.017-.517,6.069,6.069,0,0,1,2.917,1c.668.469.966.94.855,1.165" transform="translate(-198.114 -44.066)" fill="#263238"/>
        <path id="Trazado_237441" data-name="Trazado 237441" d="M263.3,74.354c-.365.418-1.743-.067-3.413-.137-1.666-.124-3.09.2-3.405-.26-.137-.221.1-.644.723-1.031a5.235,5.235,0,0,1,5.495.319c.579.458.762.905.6,1.109" transform="translate(-196.573 -43.927)" fill="#263238"/>
        <path id="Trazado_237442" data-name="Trazado 237442" d="M231.143,83.414c-.186-.1-7.53-2.841-7.6,5.558s7.569,6.744,7.584,6.5.016-12.061.016-12.061" transform="translate(-199.814 -41.648)" fill="#ffc09d"/>
        <path id="Trazado_237443" data-name="Trazado 237443" d="M228.66,91.792c-.033-.027-.133.1-.358.213a1.207,1.207,0,0,1-.989.011c-.8-.333-1.463-1.749-1.487-3.263a5.274,5.274,0,0,1,.388-2.091c.237-.612.6-1.037,1.005-1.114a.661.661,0,0,1,.778.409c.1.237.049.4.09.418.021.022.164-.139.105-.486a.953.953,0,0,0-.294-.53.929.929,0,0,0-.729-.221,1.917,1.917,0,0,0-1.393,1.288,5.4,5.4,0,0,0-.479,2.336c.034,1.693.8,3.285,1.9,3.647a1.306,1.306,0,0,0,1.212-.209c.237-.205.279-.392.253-.408" transform="translate(-199.642 -41.171)" fill="#ff9b6c"/>
        <path id="Trazado_237444" data-name="Trazado 237444" d="M247.42,91.4c.261-.018.272,1.911,1.771,3.273s3.354,1.139,3.369,1.409c.024.121-.413.377-1.2.4a4.084,4.084,0,0,1-2.812-1.068,4.33,4.33,0,0,1-1.372-2.744c-.07-.807.122-1.285.242-1.274" transform="translate(-197.487 -39.825)" fill="#263238"/>
        <path id="Trazado_237445" data-name="Trazado 237445" d="M284.538,68.549a1.969,1.969,0,0,0-.834-1.172,5.076,5.076,0,0,0-2.835-.547,14.811,14.811,0,0,1-6.929-2.016A7.948,7.948,0,0,0,276,63.253a5.637,5.637,0,0,0,1.426-5.225,1.155,1.155,0,0,0-.588-.81c-.492-.174-.929.357-1.278.777a3.929,3.929,0,0,1-3.882,1.76,6.276,6.276,0,0,1-2.877-.98c-.033-.038-.062-.08-.094-.118-.39-.456-.771-.892-1.147-1.313l0,0v0c-2.825-3.169-5.26-5.372-7.779-6.529-3.691-1.7-9.884-2.444-13.762-1.371a11.047,11.047,0,0,0-7.969,8.871c-2.148-2.054-5.4-2.078-8.055-.938l-.066-.033c-2.953,1.122-4.659,4.537-5.561,7.843-.049.181-.092.364-.14.547a12.265,12.265,0,0,1-4,4.224c-.287.18-.615.4-.654.762a1.072,1.072,0,0,0,.5.872,5.582,5.582,0,0,0,2.368,1.122,15.183,15.183,0,0,1-1,2.274c-.338.617-.74,1.357-.457,2.007a1.2,1.2,0,0,0,1.292.641,3.463,3.463,0,0,0,1.376-.667q-.506,1.3-1.011,2.592a6.3,6.3,0,0,0,3.2-.2c.593,3.11,1,8.859,1.7,10.971,2.016.064,2.508-.173,3.521.214,1.311.5.782,3.067,2.5,2.358.874-.362,2.25-4,2.552-4.974a52.735,52.735,0,0,0,2.086-20.276,14.051,14.051,0,0,1,4.34-3.382l-.133.13c3.118-1.154,6.643-2.283,9.572-.634,2.272,1.28,3.589,3.919,5.276,6.034,3.2,4.006,6.842,6.17,11.667,6.46.4,3.714.464,9.779.592,13.24l2.743-6.891v.028c.221-.4.4-.81.579-1.217l.06-.124v-.016c.281-.655.548-1.311.9-1.957l.03.03c1.678,1.675,4.2-.822,2.886-2.855a4.712,4.712,0,0,0-.934-1.063,2.894,2.894,0,0,0,2.936.882,2.67,2.67,0,0,0,1.743-2.632,2.277,2.277,0,0,0-1.211-1.845,6.421,6.421,0,0,0,3.973-.916,2.264,2.264,0,0,0,1.309-2.379" transform="translate(-200.206 -48.943)" fill="#263238"/>
        <path id="Trazado_237446" data-name="Trazado 237446" d="M241.044,57.854a9.961,9.961,0,0,0-1.127,1.114,9.238,9.238,0,0,0-1.748,4.06,17.151,17.151,0,0,0-.316,3.12c-.015,1.132.054,2.346.12,3.624a35.968,35.968,0,0,1,.042,4.032,15.791,15.791,0,0,1-.272,2.123,4.682,4.682,0,0,1-.806,2.053,1.582,1.582,0,0,1-1.574.562,2.455,2.455,0,0,1-1.4-.9,6.809,6.809,0,0,1-1.038-3.139l.233.034a10.567,10.567,0,0,1-1.38,2.558A3.222,3.222,0,0,1,229.6,78.37a1.856,1.856,0,0,1-1.914-1.093,2.3,2.3,0,0,1-.225-1.093,1.614,1.614,0,0,1,.367-.951l.116.118a7.224,7.224,0,0,1-2.408,1.951,6.046,6.046,0,0,1-.743.309,1.138,1.138,0,0,1-.266.069,1.234,1.234,0,0,1,.252-.115c.166-.073.413-.179.721-.347a7.5,7.5,0,0,0,2.326-1.981l.116.118a1.713,1.713,0,0,0-.092,1.826,1.664,1.664,0,0,0,1.733.96,3.027,3.027,0,0,0,2.019-1.212,10.4,10.4,0,0,0,1.328-2.5l.165-.392.069.428a6.567,6.567,0,0,0,.989,3,2.206,2.206,0,0,0,1.254.8,1.335,1.335,0,0,0,1.339-.476,4.44,4.44,0,0,0,.744-1.922,15.552,15.552,0,0,0,.271-2.078,36.6,36.6,0,0,0-.027-4c-.058-1.278-.121-2.5-.1-3.643a16.991,16.991,0,0,1,.353-3.161,9.044,9.044,0,0,1,1.853-4.09,4.556,4.556,0,0,1,1.2-1.037" transform="translate(-199.717 -47.029)" fill="#455a64"/>
        <path id="Trazado_237447" data-name="Trazado 237447" d="M273.79,71.453s-.027.032-.09.083-.167.132-.28.22a3.553,3.553,0,0,1-.473.328,5.608,5.608,0,0,1-.681.385,9.027,9.027,0,0,1-4.767.887,11.9,11.9,0,0,1-6.68-2.823,23.662,23.662,0,0,1-5.687-7.419c-.793-1.5-1.437-3.032-2.149-4.451a16.384,16.384,0,0,0-2.445-3.773,7.518,7.518,0,0,0-3.18-2.19,4.947,4.947,0,0,0-1.687-.236,5.43,5.43,0,0,0-1.549.309,6.344,6.344,0,0,0-2.334,1.514,7.037,7.037,0,0,0-1.272,1.784,9.2,9.2,0,0,0-.593,1.835.479.479,0,0,1,.01-.129c.015-.1.034-.226.057-.377a6.626,6.626,0,0,1,.436-1.382,7.007,7.007,0,0,1,1.263-1.85,6.443,6.443,0,0,1,2.375-1.589,5.656,5.656,0,0,1,1.6-.338,5.11,5.11,0,0,1,1.754.23,7.684,7.684,0,0,1,3.29,2.23,16.453,16.453,0,0,1,2.5,3.825c.721,1.429,1.364,2.959,2.151,4.444a23.689,23.689,0,0,0,5.6,7.349,11.858,11.858,0,0,0,6.552,2.834,9.157,9.157,0,0,0,4.713-.787,15.081,15.081,0,0,0,1.565-.913" transform="translate(-198.201 -48.235)" fill="#455a64"/>
        <path id="Trazado_237448" data-name="Trazado 237448" d="M272.781,63.621a1.761,1.761,0,0,1-.4.3,8.28,8.28,0,0,1-1.188.647,10.624,10.624,0,0,1-1.875.655,10.978,10.978,0,0,1-4.8.111,10.743,10.743,0,0,1-1.9-.57,8.226,8.226,0,0,1-1.211-.593A1.823,1.823,0,0,1,261,63.89c.023-.049.633.309,1.683.684a12.122,12.122,0,0,0,1.88.5,11.725,11.725,0,0,0,4.707-.108,12.162,12.162,0,0,0,1.86-.586c1.035-.423,1.631-.808,1.655-.76" transform="translate(-196.125 -45.791)" fill="#455a64"/>
        <path id="Trazado_237449" data-name="Trazado 237449" d="M247.452,384.925l-1.1,27.765s25.152,10.559,25.4,15.712L223,427.981l.1-43.339Z" transform="translate(-199.868 32.696)" fill="#455a64"/>
        <path id="Trazado_237450" data-name="Trazado 237450" d="M230.679,405.716a2.227,2.227,0,0,0-1.4,2.5,1.918,1.918,0,0,0,2.23,1.55,2.35,2.35,0,0,0,1.464-2.657c-.316-1.023-1.615-1.832-2.48-1.328" transform="translate(-199.253 37.203)" fill="#e0e0e0"/>
        <g id="Grupo_165491" data-name="Grupo 165491" transform="translate(23.129 456.309)" opacity="0.6">
          <g id="Grupo_165490" data-name="Grupo 165490">
            <g id="Grupo_165489" data-name="Grupo 165489" clip-path="url(#clip-path-11)">
              <path id="Trazado_237451" data-name="Trazado 237451" d="M223,421.091l.165-4.368,46.688,2.036s2.163,1.064,1.906,2.753Z" transform="translate(-222.997 -416.724)" fill="#fff"/>
            </g>
          </g>
        </g>
        <path id="Trazado_237452" data-name="Trazado 237452" d="M245.381,407.555c-.01.264-1.2.373-2.378,1.209-1.2.8-1.809,1.938-2.028,1.832-.219-.054.147-1.624,1.588-2.609s2.872-.673,2.818-.431" transform="translate(-198.103 37.563)" fill="#263238"/>
        <path id="Trazado_237453" data-name="Trazado 237453" d="M249.914,409.492c.053.255-.981.695-1.8,1.8-.846,1.08-1.058,2.281-1.3,2.268-.224.04-.378-1.5.661-2.858s2.429-1.463,2.432-1.211" transform="translate(-197.537 38.009)" fill="#263238"/>
        <path id="Trazado_237454" data-name="Trazado 237454" d="M252.247,415.865c-.216.055-.538-1.265.083-2.7s1.738-2,1.838-1.781c.133.217-.6.985-1.09,2.173-.519,1.175-.6,2.284-.832,2.308" transform="translate(-197.014 38.429)" fill="#263238"/>
        <path id="Trazado_237455" data-name="Trazado 237455" d="M245.086,402.448c-.1.239-1.192-.134-2.538-.044-1.349.058-2.4.549-2.522.322-.136-.191.893-1.156,2.48-1.238s2.7.753,2.579.96" transform="translate(-198.192 36.312)" fill="#263238"/>
        <path id="Trazado_237456" data-name="Trazado 237456" d="M245.25,402.018a49.886,49.886,0,0,1,.067,6.686l-.194-.329c2.847,1.2,6.635,2.808,10.658,4.906a56.151,56.151,0,0,1,10.8,6.882,12.3,12.3,0,0,1,2.673,3.01c.507.865.439,1.528.36,1.5a3.932,3.932,0,0,0-.622-1.3,14.164,14.164,0,0,0-2.759-2.7,69.118,69.118,0,0,0-10.8-6.573c-4-2.085-7.742-3.769-10.537-5.092l-.207-.1.012-.231a49.716,49.716,0,0,1,.547-6.659" transform="translate(-197.731 36.427)" fill="#263238"/>
        <path id="Trazado_237457" data-name="Trazado 237457" d="M216.556,225.5V250.66l8.976,80.354s-2.845,37.683-4.592,58.954c-1.517,18.474.962,50.645.962,50.645h26.613l9.522-107.292,5.91-66.913,10.719-39.635Z" transform="translate(-200.502 -1.483)" fill="#263238"/>
        <path id="Trazado_237458" data-name="Trazado 237458" d="M262.456,382.077l-6.97,26.7s22.2,16.8,21.348,21.875l-47.3-13.085,9.316-42.1Z" transform="translate(-199.224 30.726)" fill="#455a64"/>
        <path id="Trazado_237459" data-name="Trazado 237459" d="M240.48,397.7a2.1,2.1,0,0,0-1.887,2.067,2.03,2.03,0,0,0,1.838,2.087,2.224,2.224,0,0,0,1.988-2.2c-.091-1.076-1.181-2.2-2.129-1.935" transform="translate(-198.332 35.494)" fill="#e0e0e0"/>
        <g id="Grupo_165494" data-name="Grupo 165494" transform="translate(30.308 444.091)" opacity="0.6">
          <g id="Grupo_165493" data-name="Grupo 165493">
            <g id="Grupo_165492" data-name="Grupo 165492" clip-path="url(#clip-path-12)">
              <path id="Trazado_237460" data-name="Trazado 237460" d="M229.532,410.868l1.089-4.2,44.947,14.117s1.876,1.6,1.267,3.171Z" transform="translate(-229.532 -406.666)" fill="#fff"/>
            </g>
          </g>
        </g>
        <path id="Trazado_237461" data-name="Trazado 237461" d="M254.356,402.942c-.065.254-1.247.05-2.568.556-1.335.469-2.171,1.414-2.361,1.254-.2-.109.489-1.54,2.1-2.123s2.933.092,2.83.313" transform="translate(-197.268 36.507)" fill="#263238"/>
        <path id="Trazado_237462" data-name="Trazado 237462" d="M258.316,405.882c0,.262-1.1.419-2.131,1.283-1.051.83-1.514,1.944-1.741,1.868-.226-.019-.047-1.56,1.25-2.606s2.673-.791,2.622-.545" transform="translate(-196.778 37.209)" fill="#263238"/>
        <path id="Trazado_237463" data-name="Trazado 237463" d="M259.186,412.586c-.222,0-.255-1.369.655-2.6s2.116-1.493,2.165-1.252c.083.245-.788.8-1.52,1.828-.755,1.007-1.064,2.066-1.3,2.027" transform="translate(-196.316 37.851)" fill="#263238"/>
        <path id="Trazado_237464" data-name="Trazado 237464" d="M255.249,397.976c-.149.205-1.129-.44-2.457-.7-1.323-.294-2.449-.09-2.519-.342-.092-.221,1.114-.893,2.674-.559s2.462,1.435,2.3,1.6" transform="translate(-197.182 35.195)" fill="#263238"/>
        <path id="Trazado_237465" data-name="Trazado 237465" d="M283.618,226.91,284.84,240.6l-1.475,99.375L262.3,419.8l-5.1,19.36L230.016,433.5,250.97,226.938Z" transform="translate(-199.176 -1.18)" fill="#263238"/>
        <path id="Trazado_237466" data-name="Trazado 237466" d="M282.824,337.115s-.029.162-.1.473-.194.782-.343,1.379c-.315,1.232-.774,3.024-1.37,5.346-1.217,4.682-2.987,11.488-5.219,20.069L257.456,434.3l-.06.23-.213-.044L230,428.835l-.249-.051.047-.276c1.387-8.1,2.836-16.565,4.315-25.2l12.151-70.741v.086c-4.5-31.251-8.092-56.173-10.154-70.482l.012.038c-1.976-3.977-3.5-7.043-4.54-9.134q-.758-1.545-1.158-2.362c-.257-.532-.377-.811-.377-.811s.152.259.425.781q.417.809,1.205,2.334L236.3,262.1l.009.018,0,.021c2.11,14.3,5.786,39.207,10.4,70.438l.007.044-.008.044c-3.6,21.07-7.725,45.186-12.1,70.751-1.48,8.631-2.931,17.1-4.32,25.2l-.2-.327,27.182,5.677-.273.186c7.53-28.422,13.96-52.683,18.51-69.858,2.288-8.563,4.1-15.355,5.35-20.027.627-2.313,1.111-4.1,1.444-5.322l.381-1.368c.088-.306.142-.459.142-.459" transform="translate(-199.203 3.759)" fill="#455a64"/>
        <path id="Trazado_237467" data-name="Trazado 237467" d="M275.693,233.62a9.615,9.615,0,0,1-1.48,2.4,20.751,20.751,0,0,1-4.828,4.557,18.971,18.971,0,0,1-5.877,2.657,7.714,7.714,0,0,1-2.608.352,27.56,27.56,0,0,0,8.218-3.492c4.217-2.8,6.445-6.611,6.575-6.475" transform="translate(-196.134 -4.437)" fill="#455a64"/>
        <path id="Trazado_237468" data-name="Trazado 237468" d="M328.309,110.513a1.361,1.361,0,0,0-.256-1.753.53.53,0,0,0-.408-.132c-.544.1-1.976,1.256-3.079,1.277s-2.978-.354-4.081.779-3.791,7.342-4.133,8.689-1.537,13.19-1.537,13.19Z" transform="translate(-190.823 -34.509)" fill="#ffc09d"/>
        <path id="Trazado_237469" data-name="Trazado 237469" d="M333.146,108.9c-.059.074-13.193,6.484-18.961,9.3a2.284,2.284,0,0,0-.561,3.557,1.9,1.9,0,0,0,2.347.4l18.848-10.155,1.553-2.611Z" transform="translate(-191 -36.066)" fill="#263238"/>
        <path id="Trazado_237470" data-name="Trazado 237470" d="M319.28,121.985l4.188-3.411L329,109.7s2.263-1.487,3.436-.55a2.539,2.539,0,0,1,1.012,3.232s3.123.825,3.347,1.981a14.519,14.519,0,0,1-.451,3.971,7.69,7.69,0,0,1,.023,3.305,5.818,5.818,0,0,0-.394,2.133s2.023,2.738,1.153,5.538-4.519,9.048-6.47,10.663a41.518,41.518,0,0,1-5.647,3.552l-2.412,5.589L312.578,139.09Z" transform="translate(-191.043 -34.392)" fill="#ffc09d"/>
        <path id="Trazado_237471" data-name="Trazado 237471" d="M328.1,109.863a2.659,2.659,0,0,1-.25.479l-.747,1.256c-.637,1.056-1.529,2.5-2.526,4.1l-1.413,2.241a5.449,5.449,0,0,1-.719.912,3.466,3.466,0,0,1-.8.576,6.2,6.2,0,0,1-1.3.482,1.943,1.943,0,0,1-.492.1,2.547,2.547,0,0,1,.471-.183,7.728,7.728,0,0,0,1.255-.539c1.08-.5,1.8-2.17,2.83-3.716,1-1.591,1.907-3.026,2.575-4.059l.8-1.216a2.622,2.622,0,0,1,.316-.428" transform="translate(-190.326 -35.859)" fill="#ff9b6c"/>
        <path id="Trazado_237472" data-name="Trazado 237472" d="M328.534,118.673a35.685,35.685,0,0,1,1.614-3.488,34.763,34.763,0,0,1,1.793-3.378,35.824,35.824,0,0,1-1.614,3.488,34.9,34.9,0,0,1-1.793,3.378" transform="translate(-189.472 -35.442)" fill="#ff9b6c"/>
        <path id="Trazado_237473" data-name="Trazado 237473" d="M329.937,122.368a3.927,3.927,0,0,1-.149-.487,2.034,2.034,0,0,0-.651-.926,1.76,1.76,0,0,0-1.014-.357c-.28-.01-.455.041-.465.007s.156-.134.46-.168a1.612,1.612,0,0,1,1.135.332,1.9,1.9,0,0,1,.672,1.063.857.857,0,0,1,.012.536" transform="translate(-189.558 -33.59)" fill="#ff9b6c"/>
        <path id="Trazado_237474" data-name="Trazado 237474" d="M334.227,123.647c-.02.024-.175-.1-.413-.313a4.906,4.906,0,0,0-.979-.707,1.716,1.716,0,0,0-1.105-.2c-.287.062-.389.253-.414.233-.03,0,.046-.267.375-.388a1.6,1.6,0,0,1,1.229.148,3.485,3.485,0,0,1,.99.793c.219.244.336.411.318.432" transform="translate(-189.198 -31.323)" fill="#ff9b6c"/>
        <path id="Trazado_237475" data-name="Trazado 237475" d="M332.332,120.169a10.091,10.091,0,0,1,.918-1.814,9.584,9.584,0,0,1,1.091-1.695,10.08,10.08,0,0,1-.918,1.815,9.61,9.61,0,0,1-1.091,1.693" transform="translate(-189.098 -34.4)" fill="#ff9b6c"/>
        <path id="Trazado_237476" data-name="Trazado 237476" d="M325.208,120.214c-.033,0-.027-.192-.1-.468a1.757,1.757,0,0,0-.566-.894,1.512,1.512,0,0,0-.945-.322c-.262,0-.424.061-.436.027s.138-.141.425-.186a1.4,1.4,0,0,1,1.076.3,1.677,1.677,0,0,1,.587,1.041c.046.316-.013.509-.036.5" transform="translate(-190.001 -34.035)" fill="#ff9b6c"/>
        <path id="Trazado_237477" data-name="Trazado 237477" d="M315.161,120.491c-.024-.03.181-.2.361-.588a2.193,2.193,0,0,0,.1-1.61,2.015,2.015,0,0,0-1.041-1.141c-.363-.166-.62-.16-.619-.2a.915.915,0,0,1,.668.049,1.985,1.985,0,0,1,1.183,1.21,2.193,2.193,0,0,1-.164,1.77c-.231.4-.478.528-.487.509" transform="translate(-190.907 -34.344)" fill="#455a64"/>
        <path id="Trazado_237478" data-name="Trazado 237478" d="M285.009,145.97,300.894,161l19.5-32.214,12.679,8.271s-19,48.373-24.153,52.647-9.5,3.166-16.122-.217-30.227-29.661-30.227-29.661Z" transform="translate(-195.97 -29.41)" fill="#ffc09d"/>
        <path id="Trazado_237479" data-name="Trazado 237479" d="M298.032,168.716c-.156-.027.277-3.064.085-6.816-.17-3.755-.893-6.724-.741-6.767a19.9,19.9,0,0,1,1.252,6.737,20.157,20.157,0,0,1-.6,6.846" transform="translate(-192.543 -23.329)" fill="#ff9b6c"/>
        <path id="Trazado_237480" data-name="Trazado 237480" d="M226.148,122.763s13.5.216,13.7,18.83-3.438,43.51-3.438,43.51l-34.468-6.718s4.275-34.651,7.926-44.63c3.673-10.042,10.691-12.685,16.28-10.992" transform="translate(-201.942 -31.005)" fill="#a3314f"/>
        <path id="Trazado_237481" data-name="Trazado 237481" d="M231.633,111.65l-.43,3.034s-18.422,13.46-19.463,16.935c-1.616,5.386,1.907,50.889,3.461,63.785s1.87,41.319,1.87,41.319c-1.13,3.347-2.416,6.367-2.841,11.039-.422,4.632,2.841,8.859,2.841,8.859,19.767,7.133,43.913,9.4,70.035,2.811l-.246-8.189-8.54-96.7s2.488-23.122-7.712-29.815c-1.12-.735-10.018-6.325-10.018-6.325Z" transform="translate(-201.018 -33.081)" fill="#a3314f"/>
        <g id="Grupo_165497" data-name="Grupo 165497" transform="translate(60.239 117.47)" opacity="0.3">
          <g id="Grupo_165496" data-name="Grupo 165496">
            <g id="Grupo_165495" data-name="Grupo 165495" clip-path="url(#clip-path-13)">
              <path id="Trazado_237482" data-name="Trazado 237482" d="M256.779,143.395a75.211,75.211,0,0,0,6.07,27.44,81.023,81.023,0,0,0,15.5,23.781L275.581,168Z" transform="translate(-256.779 -143.395)"/>
            </g>
          </g>
        </g>
        <path id="Trazado_237483" data-name="Trazado 237483" d="M272.507,125.468c-3.23-2.89-9.236-4.461-12.664-1.862a11.231,11.231,0,0,0-4.158,5.661c-2.925,9.459-1.176,19.629,1.164,27.178S270.5,178.532,270.5,178.532l27.949-18.758s-18.707-25.074-20.657-27.664c-1.017-1.351-3.493-5.036-5.287-6.641" transform="translate(-196.799 -31.042)" fill="#a3314f"/>
        <path id="Trazado_237484" data-name="Trazado 237484" d="M272.525,125.491a4.963,4.963,0,0,1,.591.522,21.563,21.563,0,0,1,1.541,1.731c1.3,1.577,3,4.037,5.308,7.032l18.682,24.856.17.227-.228.153-26.407,17.758-1.529,1.026-.187.125-.139-.183c-3.125-4.085-6.03-8.191-8.636-12.323a67.339,67.339,0,0,1-3.565-6.283,27.584,27.584,0,0,1-1.376-3.282c-.375-1.116-.673-2.236-.97-3.347-2.334-8.876-2.394-17.584-.265-24.208a10.653,10.653,0,0,1,2.45-4.2,9.37,9.37,0,0,1,3.368-2.443,8.622,8.622,0,0,1,3.477-.457,11.79,11.79,0,0,1,2.893.547,13.128,13.128,0,0,1,3.7,1.806,6.774,6.774,0,0,1,1.125.938c-.022.033-.384-.329-1.179-.842a13.653,13.653,0,0,0-3.7-1.692,11.714,11.714,0,0,0-2.854-.491,8.457,8.457,0,0,0-3.374.486,9.152,9.152,0,0,0-3.235,2.4,10.329,10.329,0,0,0-2.335,4.068c-2.055,6.55-1.963,15.143.376,23.938.3,1.1.6,2.217.97,3.31a26.972,26.972,0,0,0,1.354,3.206A67.25,67.25,0,0,0,262.1,166.1c2.6,4.1,5.5,8.2,8.614,12.268l-.326-.057,1.529-1.027,26.432-17.709-.058.38-18.537-24.985c-2.276-3.025-3.956-5.522-5.207-7.122-.623-.8-1.129-1.393-1.483-1.777s-.551-.566-.539-.582" transform="translate(-196.817 -31.065)" fill="#263238"/>
        <path id="Trazado_237485" data-name="Trazado 237485" d="M211.375,136.57a2.171,2.171,0,0,1,.08.539c.035.419.077.932.129,1.551.094,1.437.221,3.367.375,5.715.281,4.906.661,11.534,1.082,18.859.436,7.365.893,14.026,1.289,18.841.2,2.342.359,4.269.479,5.7.049.62.09,1.132.123,1.552a2.219,2.219,0,0,1,.008.547,2.158,2.158,0,0,1-.11-.532c-.059-.417-.131-.926-.219-1.54-.177-1.34-.4-3.282-.641-5.689-.488-4.809-1-11.473-1.439-18.842S211.8,149.23,211.6,144.4c-.087-2.351-.158-4.286-.212-5.724-.013-.622-.024-1.137-.033-1.559a2.2,2.2,0,0,1,.023-.545" transform="translate(-201.015 -27.575)" fill="#263238"/>
        <path id="Trazado_237486" data-name="Trazado 237486" d="M272.369,225.5a1.985,1.985,0,0,1-.517.179l-1.508.406c-.655.179-1.462.364-2.4.559s-2.011.434-3.2.63c-2.376.453-5.229.82-8.4,1.163-3.176.294-6.678.509-10.357.561-3.681.029-7.186-.111-10.368-.344-3.178-.284-6.037-.6-8.418-1.03-1.194-.182-2.267-.4-3.208-.6s-1.751-.368-2.406-.547l-1.509-.4a2.093,2.093,0,0,1-.517-.177,1.939,1.939,0,0,1,.54.066l1.526.3c.659.146,1.471.294,2.416.451s2.015.36,3.209.515c2.378.377,5.231.652,8.4.907,3.171.2,6.664.327,10.33.3,3.667-.051,7.156-.25,10.323-.515,3.164-.312,6.012-.638,8.388-1.037,1.192-.171,2.264-.372,3.205-.547s1.754-.318,2.415-.464l1.525-.3a1.986,1.986,0,0,1,.54-.067" transform="translate(-200.207 -6.462)" fill="#263238"/>
      </g>
    </g>
    <g id="Grupo_876254" data-name="Grupo 876254" transform="translate(392.624 2937.339)">
      <g id="Grupo_165508" data-name="Grupo 165508">
        <path id="Trazado_237373" data-name="Trazado 237373" d="M543.555,85.619s-4.884,20.192-5.3,34.478l-.14,4.76s10.775,9.894,19.814,10.5l7.576-20.6Z" transform="translate(-397.781 -39.188)" fill="#263238"/>
        <path id="Trazado_237374" data-name="Trazado 237374" d="M591.188,101.365c-2.06-9.848-2.851-21.31-10.257-27.732-5.5-4.765-11.757-6.094-18.734-5.77-3.436.159-7.316,1.913-10.307,3.785-4.1,2.569-5.841,7.777-7.821,12.509-3.966,9.481-3.463,22.317-.777,25.885l35.823,20.919c7.153-4.117,11.634-5.756,12.778-16.3a42.626,42.626,0,0,0-.7-13.294" transform="translate(-397.55 -42.549)" fill="#263238"/>
        <path id="Trazado_237375" data-name="Trazado 237375" d="M580.376,80.477,557.831,73.12c-7.263-1.17-12.465,8.549-13.214,16.622-.832,8.97-1.528,19.956-.8,26.708,1.456,13.575,10.746,15.7,10.746,15.7,0-.045.021.2-.052,4.213l-.028,8.261c-.1,2.627.321,3.511,1.775,5.592,3.325,4.764,9.385,5.4,16.531,2.476a11.177,11.177,0,0,0,7.338-9.746l3.92-57.488a4.655,4.655,0,0,0-3.668-4.98" transform="translate(-397.376 -41.566)" fill="#ae7461"/>
        <path id="Trazado_237376" data-name="Trazado 237376" d="M546.534,97.658a1.681,1.681,0,0,0,1.447,1.811,1.543,1.543,0,0,0,1.667-1.49,1.681,1.681,0,0,0-1.444-1.812,1.546,1.546,0,0,0-1.671,1.491" transform="translate(-397.149 -37.198)" fill="#263238"/>
        <path id="Trazado_237377" data-name="Trazado 237377" d="M545.93,94.2c.186.234,1.406-.685,3.09-.606,1.682.051,2.883,1.063,3.074.843.094-.1-.09-.512-.613-.969a4.059,4.059,0,0,0-2.451-.955,3.848,3.848,0,0,0-2.469.764c-.533.417-.724.818-.631.923" transform="translate(-397.196 -37.887)" fill="#263238"/>
        <path id="Trazado_237378" data-name="Trazado 237378" d="M560.3,97.883a1.681,1.681,0,0,0,1.447,1.811,1.544,1.544,0,0,0,1.668-1.49,1.684,1.684,0,0,0-1.446-1.812,1.545,1.545,0,0,0-1.67,1.491" transform="translate(-396.116 -37.156)" fill="#263238"/>
        <path id="Trazado_237379" data-name="Trazado 237379" d="M561.335,94.382c.187.234,1.408-.684,3.089-.605,1.683.051,2.884,1.062,3.076.842.093-.1-.088-.512-.613-.969a4.063,4.063,0,0,0-2.452-.955,3.845,3.845,0,0,0-2.468.764c-.532.417-.724.818-.632.922" transform="translate(-396.04 -37.853)" fill="#263238"/>
        <path id="Trazado_237380" data-name="Trazado 237380" d="M555.53,106.726a10.326,10.326,0,0,0-2.716-.665c-.428-.068-.831-.18-.892-.508a2.621,2.621,0,0,1,.335-1.4q.668-1.7,1.4-3.564c1.95-5.077,3.378-9.261,3.192-9.345s-1.916,3.961-3.865,9.038c-.47,1.253-.918,2.447-1.346,3.589a2.985,2.985,0,0,0-.289,1.856,1.131,1.131,0,0,0,.681.726,2.7,2.7,0,0,0,.728.144,9.9,9.9,0,0,0,2.771.125" transform="translate(-396.792 -38.126)" fill="#263238"/>
        <path id="Trazado_237381" data-name="Trazado 237381" d="M553.746,123.411a28.519,28.519,0,0,0,16.51-4.108s-4.376,9.264-16.54,7.47Z" transform="translate(-396.61 -31.045)" fill="#6f4439"/>
        <path id="Trazado_237382" data-name="Trazado 237382" d="M560.673,107.958a2.418,2.418,0,0,0-1.986-1.311,3.06,3.06,0,0,0-2.95,1.459,2.391,2.391,0,0,0-.184,1.57c.1.272.018.137.2.329a5.565,5.565,0,0,0,2.216,1.656,2.257,2.257,0,0,0,2.552-.915,2.935,2.935,0,0,0,.152-2.788" transform="translate(-396.476 -35.22)" fill="#6f4439"/>
        <path id="Trazado_237383" data-name="Trazado 237383" d="M560.468,105.6c-.273-.03-.359,1.989-1.981,3.346s-3.557,1.035-3.583,1.317c-.031.127.417.415,1.239.481a4.246,4.246,0,0,0,2.986-.987,4.5,4.5,0,0,0,1.544-2.81c.1-.842-.079-1.353-.2-1.348" transform="translate(-396.521 -35.416)" fill="#263238"/>
        <path id="Trazado_237384" data-name="Trazado 237384" d="M560.741,88.553c.12.522,1.817.462,3.76.937,1.953.43,3.484,1.238,3.785.814.135-.2-.1-.709-.7-1.265a6.149,6.149,0,0,0-2.735-1.4,5.82,5.82,0,0,0-3.013.065c-.75.245-1.149.6-1.1.849" transform="translate(-396.083 -38.838)" fill="#263238"/>
        <path id="Trazado_237385" data-name="Trazado 237385" d="M546.063,90.109c.382.366,1.608-.273,3.149-.541,1.533-.32,2.887-.175,3.13-.66.1-.234-.157-.621-.779-.926a4.373,4.373,0,0,0-2.654-.276,4.567,4.567,0,0,0-2.4,1.243c-.489.518-.612.977-.441,1.159" transform="translate(-397.189 -38.81)" fill="#263238"/>
        <path id="Trazado_237386" data-name="Trazado 237386" d="M556.763,71.882c-.02.1-.038.2-.057.292l.042.02c.006-.1.01-.208.015-.313" transform="translate(-396.385 -41.782)" fill="#263238"/>
        <path id="Trazado_237387" data-name="Trazado 237387" d="M573.665,138.06c.345-3.538-.942-7.091-.569-10.626.4-3.746,2.59-6.957,3.491-10.595,1.443-5.827-.536-12.024-1.261-18.045a12.712,12.712,0,0,1-7.935-5.065c-2.448-3.155-3.927-7.064-5.368-10.9a19.519,19.519,0,0,0,3.319,10.486,4.191,4.191,0,0,1-3.8-1.366,11.2,11.2,0,0,1-2.232-3.833,32.659,32.659,0,0,1-2.161-10.794,42.666,42.666,0,0,0,1.594,15.761,5.533,5.533,0,0,0-2.653.112,2.7,2.7,0,0,1-2.524-.593,3.72,3.72,0,0,1-.691-1.8,44.668,44.668,0,0,1-.405-13.732,44.479,44.479,0,0,0-2.8,7.61,16.249,16.249,0,0,0-.052,8.121,1.006,1.006,0,0,1-1.516-.011,3,3,0,0,1-.663-1.7,23.039,23.039,0,0,1,.4-6.834c-1.22,2.391-1.626,5.165-2.3,7.808s-1.749,5.352-3.826,6.857a39.7,39.7,0,0,1,.305-10.354,33.4,33.4,0,0,1,2.745-8.217,24.484,24.484,0,0,1,4.947-7.615c3.6-3.482,5.1-1.983,7.393-.656l.272.126c.007-.062.011-.125.018-.187l.1-.541a31.3,31.3,0,0,1,18.137.938c4.328,1.561,4.725,11.864,5.78,6.969.64-2.964,4.112-.259,4.155-.174,5.1,10.181,10.515,26.331,10.762,51.851Z" transform="translate(-397.525 -42.031)" fill="#263238"/>
        <path id="Trazado_237388" data-name="Trazado 237388" d="M586.318,62.6a11.116,11.116,0,0,0-7.936-4.271,8.462,8.462,0,0,0-7.663,4.413,8.356,8.356,0,0,0,.944,9.233l3.771,3.337a9.459,9.459,0,0,0,8.565.919,8.229,8.229,0,0,0,4.835-7.513,10.171,10.171,0,0,0-2.517-6.118" transform="translate(-395.406 -44.341)" fill="#263238"/>
        <path id="Trazado_237389" data-name="Trazado 237389" d="M583.414,79.257c-.73.377-2.794-3.119-6.48-5.867-3.63-2.841-7.317-3.738-7.256-4.627.032-.4,1.07-.73,2.752-.539a12.9,12.9,0,0,1,6.1,2.618,14.7,14.7,0,0,1,4.37,5.377c.758,1.673.849,2.861.519,3.037" transform="translate(-395.412 -42.483)" fill="#455a64"/>
        <path id="Trazado_237390" data-name="Trazado 237390" d="M535.033,173.113l14.126-14.631,9.57,16.81c-.19,1.509-12.389,30.576-17.67,36.6-6.026,6.872-14.24,6.341-17.864-3.148-2.857-7.481-7.6-30.515-7.6-30.515Z" transform="translate(-399.47 -22.343)" fill="#a3314f"/>
        <path id="Trazado_237391" data-name="Trazado 237391" d="M549.495,134.152c-3.375,1.345-11.135,6.036-13.4,9.115a23.957,23.957,0,0,0-2.853,4.876c-1.767,4.3-5.126,36.18-5.126,36.18l15.044,12.048,13.1-55.761-.836-8.842Z" transform="translate(-398.53 -28.085)" fill="#a3314f"/>
        <path id="Trazado_237392" data-name="Trazado 237392" d="M543.6,232.343l.947-13.764s-2.9-14.695-3.965-27.451c-1.693-20.28,3.088-32.885,3.743-35.022.371-1.211,10.2-23.714,10.2-23.714s2.063,6.932,10.354,5.293c11.561-2.286,15.773-9.217,15.773-9.217l14.938,3.572s5.82,25.847,6.677,34.41c.46,4.592-5.012,30.544-5.012,30.544l8.81,14.574c.263.717-3.827,20.633-4.627,21.456s-15.131,4.5-15.308,5.181-27.319,13.243-27.3,12.73-13.058-12.159-13.058-12.159Z" transform="translate(-397.623 -28.406)" fill="#a3314f"/>
        <path id="Trazado_237393" data-name="Trazado 237393" d="M540.338,154.319a2.6,2.6,0,0,1-.034.6c-.051.461-.111,1.026-.185,1.709-.159,1.484-.387,3.632-.586,6.294a99.767,99.767,0,0,0,.351,20.786c.966,8.08,2.375,15.307,3.284,20.56.462,2.626.815,4.756,1.04,6.233.1.681.174,1.244.239,1.7a2.425,2.425,0,0,1,.045.6,2.469,2.469,0,0,1-.156-.579c-.092-.454-.205-1.008-.342-1.681-.305-1.554-.715-3.646-1.214-6.19-1.007-5.227-2.481-12.453-3.452-20.568a92.558,92.558,0,0,1-.189-20.909c.249-2.665.537-4.81.763-6.286.115-.738.214-1.31.289-1.7a2.313,2.313,0,0,1,.146-.583" transform="translate(-397.741 -23.24)" fill="#263238"/>
        <path id="Trazado_237394" data-name="Trazado 237394" d="M606.911,209.123c2.678,5.026,10.794,24.265,13.171,34.09,10.848,44.836,20.027,105.132,23.074,117.419,4.063,16.373,13.157,53.418,17.787,78.088l-22.233,10.722s-29.118-86.765-37.062-108.085c-8.233-22.092-21.965-63.763-21.965-63.763l-7.933,165.284-21.3.728s-7.283-46.574-10.178-74.411-3.22-85.137-3.243-99.68c-.03-17.708,6.911-57.55,6.911-57.55s8.307,6.894,23.883,4.255c12.4-2.1,36.123-12.654,36.123-12.654Z" transform="translate(-397.862 -7.581)" fill="#263238"/>
        <path id="Trazado_237395" data-name="Trazado 237395" d="M563.621,219.035a12.543,12.543,0,0,0,.125,1.9c.114,1.216.307,2.974.569,5.143.52,4.337,1.336,10.315,2.4,16.887s2.173,12.5,3.043,16.763c.435,2.134.805,3.856,1.079,5.042a12.2,12.2,0,0,0,.479,1.827,12.45,12.45,0,0,0-.268-1.88c-.233-1.3-.537-3.015-.906-5.08-.772-4.288-1.819-10.214-2.882-16.781s-1.936-12.524-2.556-16.842c-.3-2.077-.552-3.8-.743-5.112a12.454,12.454,0,0,0-.337-1.866" transform="translate(-395.868 -9.36)" fill="#455a64"/>
        <path id="Trazado_237396" data-name="Trazado 237396" d="M570.958,218.845c.03,0-.033-.3-.415-.48a2.472,2.472,0,0,0-1.622-.058,3.1,3.1,0,0,0-1.062.48,2.006,2.006,0,0,0-.726,1.305,3.149,3.149,0,0,0,1.219,2.992,2.581,2.581,0,0,0,2.967.147,2.135,2.135,0,0,0,.819-1.222,3.355,3.355,0,0,0,.08-1.274,2.668,2.668,0,0,0-.717-1.617c-.306-.282-.538-.3-.543-.273-.021.05.17.147.389.441a2.762,2.762,0,0,1,.481,1.491,1.907,1.907,0,0,1-3.172,1.794,2.6,2.6,0,0,1-1.019-2.385,1.518,1.518,0,0,1,.49-.986,2.954,2.954,0,0,1,.9-.476,2.664,2.664,0,0,1,1.451-.136c.333.086.443.285.485.256" transform="translate(-395.606 -9.967)" fill="#455a64"/>
        <path id="Trazado_237397" data-name="Trazado 237397" d="M558.018,254.1a20.668,20.668,0,0,0,2.576,1.953c1.61,1.165,3.814,2.806,6.176,4.729s4.429,3.772,5.913,5.13a21.217,21.217,0,0,0,2.448,2.145,15.972,15.972,0,0,0-2.192-2.471,74.508,74.508,0,0,0-5.839-5.3,72.456,72.456,0,0,0-6.3-4.6,14.5,14.5,0,0,0-2.781-1.585" transform="translate(-396.287 -2.218)" fill="#455a64"/>
        <path id="Trazado_237398" data-name="Trazado 237398" d="M608.178,330.516a2.676,2.676,0,0,0,.921.034c.591-.013,1.445-.085,2.5-.216a40.918,40.918,0,0,0,8.078-1.913,42.41,42.41,0,0,0,7.622-3.529c.931-.554,1.668-1.035,2.161-1.4s.758-.573.739-.61a31.481,31.481,0,0,0-3.077,1.62,55.129,55.129,0,0,1-7.61,3.33,53.806,53.806,0,0,1-7.967,2.069,30.31,30.31,0,0,0-3.363.611" transform="translate(-392.523 12.385)" fill="#455a64"/>
        <path id="Trazado_237399" data-name="Trazado 237399" d="M611.537,328.293a7.714,7.714,0,0,0,2.181-.642,53.074,53.074,0,0,0,5.056-2.209,54.519,54.519,0,0,0,4.848-2.721,8.4,8.4,0,0,0,1.881-1.379c-.081-.156-3.1,1.631-6.957,3.541s-7.062,3.24-7.009,3.41" transform="translate(-392.272 12.044)" fill="#455a64"/>
        <path id="Trazado_237400" data-name="Trazado 237400" d="M551.007,391.064,550.9,415.6s-22.593,8.115-23.012,12.648L570.9,430.2l1.593-38.225Z" transform="translate(-398.548 27.819)" fill="#263238"/>
        <path id="Trazado_237401" data-name="Trazado 237401" d="M561.884,410.494a1.984,1.984,0,0,1,1.132,2.272,1.674,1.674,0,0,1-2.026,1.261,2.1,2.1,0,0,1-1.188-2.413c.319-.887,1.5-1.538,2.24-1.053" transform="translate(-396.159 31.468)" fill="#e0e0e0"/>
        <path id="Trazado_237402" data-name="Trazado 237402" d="M570.9,424.663l.024-3.86-41.251-.424s-1.95.835-1.788,2.336Z" transform="translate(-398.549 33.353)" fill="#455a64"/>
        <path id="Trazado_237403" data-name="Trazado 237403" d="M548.649,411.5c0,.233,1.045.385,2.05,1.179,1.026.764,1.52,1.8,1.717,1.712.2-.037-.066-1.44-1.3-2.376s-2.5-.73-2.467-.515" transform="translate(-396.99 31.642)" fill="#fff"/>
        <path id="Trazado_237404" data-name="Trazado 237404" d="M544.381,413.051c-.056.222.839.659,1.516,1.674.7.993.845,2.062,1.055,2.062.2.045.391-1.309-.472-2.552s-2.086-1.405-2.1-1.184" transform="translate(-397.31 31.954)" fill="#fff"/>
        <path id="Trazado_237405" data-name="Trazado 237405" d="M541.9,418.612c.189.058.525-1.089.032-2.386s-1.456-1.847-1.552-1.657c-.126.185.487.9.876,1.969.413,1.06.436,2.042.644,2.074" transform="translate(-397.612 32.249)" fill="#fff"/>
        <path id="Trazado_237406" data-name="Trazado 237406" d="M549.194,406.892c.081.216,1.056-.061,2.239.082,1.187.117,2.094.6,2.212.4.128-.163-.742-1.063-2.139-1.21s-2.408.536-2.311.724" transform="translate(-396.95 30.666)" fill="#fff"/>
        <path id="Trazado_237407" data-name="Trazado 237407" d="M645.142,388.9l8.24,28.254,12.344,20.269a3.228,3.228,0,0,1-.9,4.332,2.507,2.507,0,0,1-2.514.137c-5.161-2.616-24.1-12.339-24.6-14.443-.576-2.438-10.48-29.166-10.48-29.166Z" transform="translate(-391.094 27.41)" fill="#263238"/>
        <path id="Trazado_237408" data-name="Trazado 237408" d="M664.133,435.932l-27.71-16.2.374,1.189a4.508,4.508,0,0,0,1.809,2.447c2.268,1.473,8.612,5.388,22.935,12.731a2.521,2.521,0,0,0,2.592-.168" transform="translate(-390.404 33.231)" fill="#455a64"/>
        <g id="Grupo_165486" data-name="Grupo 165486" transform="translate(246.382 441.841)" opacity="0.6">
          <g id="Grupo_165485" data-name="Grupo 165485">
            <g id="Grupo_165484" data-name="Grupo 165484" clip-path="url(#clip-path-14)">
              <path id="Trazado_237409" data-name="Trazado 237409" d="M638.756,410.453a1.865,1.865,0,0,1,1.144,2.1,1.6,1.6,0,0,1-1.877,1.273,1.97,1.97,0,0,1-1.2-2.236c.274-.851,1.364-1.513,2.086-1.084" transform="translate(-636.761 -410.376)" fill="#fff"/>
            </g>
          </g>
        </g>
        <path id="Trazado_237410" data-name="Trazado 237410" d="M653.23,425.705c.168.023.277-1.667,1.537-3.036a8.177,8.177,0,0,1,2.724-1.74c0-.077-.389-.172-1.012-.037a4.191,4.191,0,0,0-2.133,1.32,4.928,4.928,0,0,0-1.163,2.375c-.115.691-.024,1.12.046,1.119" transform="translate(-389.151 33.437)" fill="#fff"/>
        <path id="Trazado_237411" data-name="Trazado 237411" d="M656,428.058c.159.075.686-1.15,1.866-2.07,1.162-.949,2.379-1.115,2.365-1.306.028-.17-1.379-.3-2.71.777a3.464,3.464,0,0,0-1.521,2.6" transform="translate(-388.938 34.144)" fill="#fff"/>
        <path id="Trazado_237412" data-name="Trazado 237412" d="M648.689,422.9c.161.087.963-1.8,2.685-3.41,1.7-1.638,3.51-2.228,3.456-2.417-.006-.165-2.013.17-3.84,1.922a6.914,6.914,0,0,0-2.3,3.9" transform="translate(-389.486 32.722)" fill="#fff"/>
        <path id="Trazado_237413" data-name="Trazado 237413" d="M645.754,415.421c.12.142,1.318-1.044,3.118-1.818,1.79-.8,3.4-.846,3.4-1.041.027-.164-1.688-.421-3.614.435a5.49,5.49,0,0,0-2.9,2.424" transform="translate(-389.705 31.846)" fill="#fff"/>
        <path id="Trazado_237414" data-name="Trazado 237414" d="M643.328,408.483c.129.132,1.244-1.345,3.2-1.989,1.944-.691,3.616-.169,3.656-.359.023-.075-.364-.32-1.066-.468a5.354,5.354,0,0,0-2.764.206,5.82,5.82,0,0,0-2.385,1.557c-.5.561-.7,1.006-.641,1.053" transform="translate(-389.887 30.557)" fill="#fff"/>
        <path id="Trazado_237415" data-name="Trazado 237415" d="M646.146,405.96a2.781,2.781,0,0,0-.3-1.074,7.843,7.843,0,0,0-1.636-2.485,3.064,3.064,0,0,0-1.758-1.072,1.094,1.094,0,0,0-1.1.71,2.183,2.183,0,0,0,0,1.419,3.819,3.819,0,0,0,4.4,2.519,4.826,4.826,0,0,0,3.408-4.073,1.856,1.856,0,0,0-.358-1.386,1,1,0,0,0-1.26-.188,4.125,4.125,0,0,0-1.369,1.6,9.286,9.286,0,0,0-1.045,2.845,2.952,2.952,0,0,0-.085,1.119,14.725,14.725,0,0,1,1.478-3.709,3.8,3.8,0,0,1,1.224-1.365.536.536,0,0,1,.687.1,1.277,1.277,0,0,1,.187.926,4.3,4.3,0,0,1-2.991,3.494,3.306,3.306,0,0,1-3.764-2.078,1.588,1.588,0,0,1-.037-.992.6.6,0,0,1,.6-.4,2.753,2.753,0,0,1,1.5.877,11.554,11.554,0,0,1,2.212,3.213" transform="translate(-390.043 29.542)" fill="#fff"/>
        <path id="Trazado_237416" data-name="Trazado 237416" d="M518.933,154.319l10.259,11.718.416,10.2L517.7,179.268h-.606l-.77-6.586-6.863-10.089Z" transform="translate(-399.93 -23.47)" fill="#ae7461"/>
        <path id="Trazado_237417" data-name="Trazado 237417" d="M515.6,165.657c-11.407,13.467-26.871,21.214-43.547,21.818s-32.566-6.012-44.744-18.624c-25.139-26.041-26.434-69.84-2.889-97.638C435.827,57.747,451.292,50,467.969,49.4s32.566,6.012,44.743,18.624a70.954,70.954,0,0,1,18.535,36.909c3.781,21.1-1.362,43.862-15.646,60.729m-85.432-.183c11.362,11.769,26.188,17.941,41.747,17.377s29.99-7.793,40.631-20.356a68.017,68.017,0,0,0,15.714-46.166c-.507-17.207-7.045-33.163-18.408-44.932S483.665,53.457,468.1,54.02s-29.989,7.793-40.631,20.356c-13.329,15.739-18.126,36.969-14.6,56.663a66.21,66.21,0,0,0,17.294,34.435" transform="translate(-407.575 -46.034)" fill="#455a64"/>
        <path id="Trazado_237418" data-name="Trazado 237418" d="M515.6,165.657c-11.407,13.467-26.871,21.214-43.547,21.818s-32.566-6.012-44.744-18.624c-25.139-26.041-26.434-69.84-2.889-97.638C435.827,57.747,451.292,50,467.969,49.4s32.566,6.012,44.743,18.624a70.954,70.954,0,0,1,18.535,36.909c3.781,21.1-1.362,43.862-15.646,60.729m-85.432-.183c11.362,11.769,26.188,17.941,41.747,17.377s29.99-7.793,40.631-20.356a68.017,68.017,0,0,0,15.714-46.166c-.507-17.207-7.045-33.163-18.408-44.932S483.665,53.457,468.1,54.02s-29.989,7.793-40.631,20.356c-13.329,15.739-18.126,36.969-14.6,56.663a66.21,66.21,0,0,0,17.294,34.435" transform="translate(-407.575 -46.034)" fill="#263238"/>
        <path id="Trazado_237419" data-name="Trazado 237419" d="M517.029,162.861c-11.407,13.467-26.872,21.214-43.547,21.817s-32.566-6.011-44.744-18.624C403.6,140.015,402.3,96.216,425.85,68.418,437.255,54.951,452.72,47.2,469.4,46.6s32.566,6.012,44.743,18.624a70.957,70.957,0,0,1,18.535,36.908c3.781,21.1-1.362,43.863-15.646,60.73m-85.432-.183c11.362,11.769,26.188,17.94,41.747,17.377s29.99-7.793,40.631-20.356a68.016,68.016,0,0,0,15.714-46.166c-.507-17.207-7.045-33.164-18.408-44.932S485.093,50.66,469.533,51.224,439.543,59.017,428.9,71.58c-13.329,15.737-18.126,36.969-14.6,56.663A66.216,66.216,0,0,0,431.6,162.678" transform="translate(-407.468 -46.562)" fill="#455a64"/>
        <path id="Trazado_237420" data-name="Trazado 237420" d="M579.454,232.071l1.988-2.127c1.773-1.9.778-6.234-1.081-8.339l-69.785-79.764-9.331,9.984,69.681,79.644c2.352,2.552,6.246,3.046,8.528.6" transform="translate(-400.547 -25.703)" fill="#455a64"/>
        <path id="Trazado_237421" data-name="Trazado 237421" d="M514.6,150a1.534,1.534,0,0,0-1.413-.416,2.761,2.761,0,0,0-1.106.854,14.792,14.792,0,0,0-3.6,9.677c0,1.534.366,3.292,1.6,3.99l1.4-.9c.435-.619,1.733-1.656,1.9-2.418.726-3.205-.315-3.071,1.5-8.628A2.077,2.077,0,0,0,514.6,150" transform="translate(-400.004 -24.555)" fill="#ae7461"/>
        <path id="Trazado_237422" data-name="Trazado 237422" d="M514.041,154.179a7.582,7.582,0,0,1,1.388-2.022,1.89,1.89,0,0,1,1.846-.61c.967.336,1.438,1.876,1.328,3.31a13.4,13.4,0,0,1-1.2,4.073q-1.722,4.132-3.448,8.265l-.668-.543c-.475.516-1.169.251-1.489-.363a4.8,4.8,0,0,1-.328-2.25,23.3,23.3,0,0,1,2.574-9.859" transform="translate(-399.78 -24.134)" fill="#ae7461"/>
        <path id="Trazado_237423" data-name="Trazado 237423" d="M515.552,161.727A19.333,19.333,0,0,1,519,156.613a4.324,4.324,0,0,1,1.6-1.346,1.428,1.428,0,0,1,1.8.585,2.511,2.511,0,0,1-.244,2.027,97.754,97.754,0,0,1-5.934,11.523l-2.061-2.3c-.935-1.864.591-3.44,1.385-5.379" transform="translate(-399.599 -23.356)" fill="#ae7461"/>
        <path id="Trazado_237424" data-name="Trazado 237424" d="M569.764,184.757l-1.892-.443-9.9-9.332-5.419-5.033a3.171,3.171,0,0,0-1.587-.808l-5.362-.99a3.553,3.553,0,0,0,1.6,4.068l2.939,1.682,2.69,3.515-.344.761s-17.625,3.024-18.726,4.51a2.141,2.141,0,0,0,.489,3.11,2.593,2.593,0,0,0,1.345.134s-.856,2.3,1.711,4.191a2.65,2.65,0,0,0,1.466,4.191,5.806,5.806,0,0,0,2.934,2.839c1.956.676,12.469,2.028,13.569,2.028s12.636.02,12.636.02l2.537.459Z" transform="translate(-398.142 -20.458)" fill="#ae7461"/>
        <path id="Trazado_237425" data-name="Trazado 237425" d="M535.062,183.226a12.757,12.757,0,0,0,4.874.29,17.814,17.814,0,0,0,4.824-.792c-.014-.184-2.2-.036-4.858.18s-4.829.143-4.839.322" transform="translate(-398.01 -17.581)" fill="#6f4439"/>
        <path id="Trazado_237426" data-name="Trazado 237426" d="M537.031,186.658c0,.087.458.156,1.192.264s1.751.26,2.9.339a22.7,22.7,0,0,0,2.923-.07c.741-.055,1.185-.042,1.2-.119s-.446-.259-1.2-.314c-.756-.078-1.782-.029-2.9-.109s-2.153-.168-2.906-.159-1.218.087-1.217.169" transform="translate(-397.862 -16.763)" fill="#6f4439"/>
        <path id="Trazado_237427" data-name="Trazado 237427" d="M538.07,190.1c-.013.169,2.117.485,4.752.7a10.348,10.348,0,0,1,3.253.558c.776.325,1.131.785,1.2.716.053-.029-.216-.636-1.039-1.109a7.915,7.915,0,0,0-3.373-.775c-2.635-.221-4.782-.263-4.794-.094" transform="translate(-397.784 -16.006)" fill="#6f4439"/>
        <path id="Trazado_237428" data-name="Trazado 237428" d="M593.561,131.472s7.45,1.422,13.1,13.7c3.122,6.786,17.712,47.589,18.578,51.167,3.7,15.308-3.462,25.175-10.359,25.846-7.592.737-46.856-13.272-46.856-13.272l-.867-18.551,35.817,6.013-17.208-36.936s-.66-24.6,7.8-27.963" transform="translate(-395.602 -27.98)" fill="#a3314f"/>
        <path id="Trazado_237429" data-name="Trazado 237429" d="M612.565,196.2a7.183,7.183,0,0,0-.963-2.473A15.778,15.778,0,0,0,607.572,189a14.082,14.082,0,0,0-5.36-2.675,5.536,5.536,0,0,0-2.426-.2c-.007.107.917.181,2.332.624a16.32,16.32,0,0,1,5.132,2.752,18.021,18.021,0,0,1,4.024,4.472c.838,1.336,1.2,2.278,1.291,2.236" transform="translate(-393.153 -16.783)" fill="#263238"/>
        <path id="Trazado_237430" data-name="Trazado 237430" d="M605.064,215.936a.533.533,0,0,1-.185-.027l-.536-.127c-.476-.108-1.162-.335-2.062-.606-1.791-.573-4.4-1.455-7.676-2.611-6.56-2.315-15.828-5.7-26.723-9.774l-.165-.063-.01-.194c-.253-5.338-.529-11.157-.817-17.226l-.018-.379.34.061,8.811,1.576,27.01,4.874-.264.4-11.9-25.754-3.335-7.322c-.365-.824-.654-1.472-.865-1.948a5.168,5.168,0,0,1-.273-.685,4.584,4.584,0,0,1,.346.643l.935,1.91,3.461,7.251c2.958,6.283,7.132,15.148,12.075,25.65l.232.492-.5-.089-27.019-4.815-8.811-1.582.321-.319c.274,6.07.538,11.89.779,17.229l-.174-.256,26.653,9.986L602.329,215c.889.3,1.57.554,2.034.691l.526.172a.618.618,0,0,1,.175.074" transform="translate(-395.623 -22.837)" fill="#263238"/>
        <path id="Trazado_237431" data-name="Trazado 237431" d="M593.909,132.1c.053.1-1.014.776-2.5,2.191a23.563,23.563,0,0,0-4.758,6.542,25.669,25.669,0,0,0-2.374,7.977c-.265,2.147-.2,3.5-.3,3.509a3.21,3.21,0,0,1-.126-.949,16.781,16.781,0,0,1,.036-2.612,22.451,22.451,0,0,1,.645-3.816,25.063,25.063,0,0,1,1.631-4.4,23.743,23.743,0,0,1,2.454-3.91,19.4,19.4,0,0,1,2.544-2.675,13.638,13.638,0,0,1,1.962-1.454c.49-.294.769-.436.788-.4" transform="translate(-394.352 -28.255)" fill="#263238"/>
      </g>
    </g>
    <g id="Grupo_876258" data-name="Grupo 876258" transform="translate(337.788 3242.87)">
      <path id="Trazado_237212" data-name="Trazado 237212" d="M50.039,337.69c-.691-16.129,13.315-34.384,13.315-34.384A74.03,74.03,0,0,1,50.039,337.69" transform="translate(-20.45 -284.273)" fill="#ced371"/>
      <g id="Grupo_876258-2" data-name="Grupo 876258" transform="translate(0 0)">
        <path id="Trazado_237208" data-name="Trazado 237208" d="M53.764,357.31A28.066,28.066,0,0,1,60.028,339.8c1.9,8.79-6.264,17.515-6.264,17.515" transform="translate(-20.371 -278.826)" fill="#ced371"/>
        <path id="Trazado_237209" data-name="Trazado 237209" d="M62.672,350.983a21.123,21.123,0,0,1,16.768-.522c-6.4,5.46-16.768.522-16.768.522" transform="translate(-20.183 -277.457)" fill="#ced371"/>
        <path id="Trazado_237210" data-name="Trazado 237210" d="M63.693,347.67A23,23,0,0,1,65.975,333c2.745,6.437-2.281,14.669-2.281,14.669" transform="translate(-20.168 -279.84)" fill="#ced371"/>
        <path id="Trazado_237211" data-name="Trazado 237211" d="M29.242,327.889c13.295,3.983,20.427,16.993,20.427,16.993-11.364.008-20.427-16.993-20.427-16.993" transform="translate(-20.888 -280.603)" fill="#ced371"/>
        <path id="Trazado_237213" data-name="Trazado 237213" d="M50.081,293.255a47.308,47.308,0,0,1-5.036,23.1c-1.978-10.375,5.036-23.1,5.036-23.1" transform="translate(-20.562 -285.773)" fill="#ced371"/>
        <path id="Trazado_237214" data-name="Trazado 237214" d="M45.016,323.456c-10.477-1.265-16.177-13-16.177-13,12.671,3.995,16.177,13,16.177,13" transform="translate(-20.896 -283.205)" fill="#ced371"/>
        <path id="Trazado_237215" data-name="Trazado 237215" d="M22.55,365.19a21.278,21.278,0,0,1,16.472-3.571c-5.532,6.554-16.472,3.571-16.472,3.571" transform="translate(-21.029 -275.628)" fill="#ced371"/>
        <path id="Trazado_237216" data-name="Trazado 237216" d="M49.284,369.28a16.6,16.6,0,0,1-7.04,8.926c.448-5.441,7.04-8.926,7.04-8.926" transform="translate(-20.614 -274.425)" fill="#ced371"/>
        <path id="Trazado_237217" data-name="Trazado 237217" d="M48.078,367.837a16.783,16.783,0,0,1-12.531,2.517c4.034-4.732,12.531-2.517,12.531-2.517" transform="translate(-20.754 -274.718)" fill="#ced371"/>
        <path id="Trazado_237218" data-name="Trazado 237218" d="M53.3,398.541a.9.9,0,0,1-.02-.24c0-.191-.008-.422-.013-.7q0-.995-.005-2.7c.01-1.173.01-2.609-.021-4.275s-.028-3.563-.106-5.659c-.09-4.194-.354-9.179-.735-14.707-.427-5.523-1.022-11.583-1.842-17.915-1.656-12.669-3.918-23.989-5.736-32.123-.916-4.066-1.689-7.348-2.253-9.607q-.4-1.65-.626-2.61c-.061-.273-.11-.5-.151-.683a.977.977,0,0,1-.037-.238.852.852,0,0,1,.083.223c.053.18.117.4.2.668q.262.95.711,2.582c.618,2.242,1.441,5.513,2.4,9.571,1.9,8.118,4.22,19.447,5.879,32.139.823,6.343,1.406,12.417,1.809,17.953.357,5.54.588,10.537.636,14.737.057,2.1.038,4,.037,5.667s-.02,3.105-.059,4.279q-.052,1.708-.083,2.7c-.013.282-.025.513-.034.7a.911.911,0,0,1-.028.239" transform="translate(-20.623 -283.71)" fill="#9ea257"/>
        <path id="Trazado_237219" data-name="Trazado 237219" d="M34.233,356.955c.074-.121,4.308,3,9.457,6.976s9.266,7.292,9.193,7.413-4.307-3-9.458-6.976-9.265-7.292-9.192-7.413" transform="translate(-20.783 -276.265)" fill="#9ea257"/>
        <path id="Trazado_237220" data-name="Trazado 237220" d="M52.5,360.9a4.23,4.23,0,0,1,.65-.8l1.886-2.045,6.3-6.647,6.3-6.646q1.118-1.181,1.908-2.015a3.923,3.923,0,0,1,.74-.694,4.252,4.252,0,0,1-.611.84c-.413.519-1.032,1.246-1.805,2.137-1.55,1.777-3.743,4.172-6.209,6.765s-4.732,4.9-6.394,6.538c-.83.82-1.509,1.477-1.987,1.92a3.858,3.858,0,0,1-.773.648" transform="translate(-20.397 -278.489)" fill="#9ea257"/>
        <path id="Trazado_237221" data-name="Trazado 237221" d="M21.06,350.3s10.828-.232,15.407,9.361c0,0-9.236.341-15.407-9.361" transform="translate(-21.06 -277.257)" fill="#ced371"/>
        <path id="Trazado_237222" data-name="Trazado 237222" d="M35.542,346.048s8.817,7.077,7.413,17.853c0,0-7.6-5.922-7.413-17.853" transform="translate(-20.755 -277.893)" fill="#ced371"/>
        <path id="Trazado_237223" data-name="Trazado 237223" d="M81.319,330.873s-3.479,13.642-14.532,16.093c0,0,2.825-11.686,14.532-16.093" transform="translate(-20.096 -280.158)" fill="#ced371"/>
        <path id="Trazado_237224" data-name="Trazado 237224" d="M30.832,286.745s13.813,10.141,12.285,26.638c0,0-11.893-8.47-12.285-26.638" transform="translate(-20.854 -286.745)" fill="#ced371"/>
        <path id="Trazado_237225" data-name="Trazado 237225" d="M76.256,365.239a5.629,5.629,0,0,1-.9.81c-.6.485-1.448,1.211-2.478,2.132a66.071,66.071,0,0,0-7.481,7.909,70.3,70.3,0,0,0-6.188,9.221c-.7,1.252-1.252,2.281-1.617,3a6.167,6.167,0,0,1-.619,1.091,6.415,6.415,0,0,1,.457-1.187c.317-.753.825-1.816,1.5-3.1a59.847,59.847,0,0,1,6.12-9.378,55.9,55.9,0,0,1,7.628-7.853c1.063-.888,1.946-1.571,2.577-2.005a5.237,5.237,0,0,1,1-.64" transform="translate(-20.303 -275.029)" fill="#9ea257"/>
        <path id="Trazado_237226" data-name="Trazado 237226" d="M64.094,376.461a29.125,29.125,0,0,1,3.171-18.54c1.486,11.562-3.171,18.54-3.171,18.54" transform="translate(-20.161 -276.121)" fill="#ced371"/>
        <path id="Trazado_237227" data-name="Trazado 237227" d="M73.19,369.418a15.426,15.426,0,0,1,12.058-2.1c-6.67,3.981-12.058,2.1-12.058,2.1" transform="translate(-19.96 -274.782)" fill="#ced371"/>
        <path id="Trazado_237228" data-name="Trazado 237228" d="M33.34,387.765,38.523,426.1H68.634l6.988-37.781Z" transform="translate(-20.801 -271.665)" fill="#645454"/>
        <path id="Trazado_237229" data-name="Trazado 237229" d="M71.338,409.169c0,.11-7.716.2-17.231.2s-17.233-.089-17.233-.2,7.714-.2,17.233-.2,17.231.089,17.231.2" transform="translate(-20.727 -268.5)" fill="#fafafa"/>
        <path id="Trazado_237230" data-name="Trazado 237230" d="M71.457,407.529c0,.11-7.767.2-17.347.2s-17.349-.089-17.349-.2,7.765-.2,17.349-.2,17.347.09,17.347.2" transform="translate(-20.729 -268.745)" fill="#fafafa"/>
        <path id="Trazado_237231" data-name="Trazado 237231" d="M71.4,405.676c0,.11-7.768.2-17.348.2s-17.349-.088-17.349-.2,7.766-.2,17.349-.2,17.348.088,17.348.2" transform="translate(-20.73 -269.022)" fill="#fafafa"/>
        <path id="Trazado_237232" data-name="Trazado 237232" d="M41.834,420.481a68.132,68.132,0,0,1-1.5-9.722,68.525,68.525,0,0,1,1.5,9.722" transform="translate(-20.654 -268.233)" fill="#fafafa"/>
        <path id="Trazado_237233" data-name="Trazado 237233" d="M43.821,420.089a125.353,125.353,0,0,1-.57-9.433,42.236,42.236,0,0,1,.57,9.433" transform="translate(-20.593 -268.248)" fill="#fafafa"/>
        <path id="Trazado_237234" data-name="Trazado 237234" d="M47.487,420.126A26.276,26.276,0,0,1,46.7,415.3a26.541,26.541,0,0,1-.23-4.9,47.432,47.432,0,0,1,.58,4.856,47.521,47.521,0,0,1,.433,4.875" transform="translate(-20.525 -268.287)" fill="#fafafa"/>
        <path id="Trazado_237235" data-name="Trazado 237235" d="M50.041,420.316a43.986,43.986,0,0,1-.284-9.833,47.417,47.417,0,0,1,.22,4.914,47.425,47.425,0,0,1,.064,4.919" transform="translate(-20.458 -268.275)" fill="#fafafa"/>
        <path id="Trazado_237236" data-name="Trazado 237236" d="M54.583,420.075a61.832,61.832,0,0,1-.281-9.326,30.767,30.767,0,0,1,.318,4.657,31.167,31.167,0,0,1-.037,4.669" transform="translate(-20.361 -268.235)" fill="#fafafa"/>
        <path id="Trazado_237237" data-name="Trazado 237237" d="M57.9,420.291a65.739,65.739,0,0,1,.069-9.632,65.742,65.742,0,0,1-.069,9.632" transform="translate(-20.287 -268.248)" fill="#fafafa"/>
        <path id="Trazado_237238" data-name="Trazado 237238" d="M61.006,419.9a71.61,71.61,0,0,1,.865-10.031,71.608,71.608,0,0,1-.865,10.031" transform="translate(-20.218 -268.366)" fill="#fafafa"/>
        <path id="Trazado_237239" data-name="Trazado 237239" d="M65.019,419.25a19.023,19.023,0,0,1,.505-4.281,18.564,18.564,0,0,1,1.12-4.132,42.644,42.644,0,0,1-.774,4.215,42.152,42.152,0,0,1-.852,4.2" transform="translate(-20.133 -268.221)" fill="#fafafa"/>
        <path id="Trazado_237240" data-name="Trazado 237240" d="M29.956,381.16v7.173a2.681,2.681,0,0,0,2.509,2.825h43.6a2.681,2.681,0,0,0,2.509-2.825V381.16Z" transform="translate(-20.873 -272.651)" fill="#645454"/>
        <path id="Trazado_237241" data-name="Trazado 237241" d="M33.658,389.859l.362,2.284,40.233,3.227,1.019-5.511Z" transform="translate(-20.794 -271.353)" fill="#574242"/>
      </g>
    </g>
  </g>
</svg>
