<svg xmlns="http://www.w3.org/2000/svg" width="119.967" height="119.954" viewBox="0 0 119.967 119.954">
  <g id="Grupo_237828" data-name="Grupo 237828" transform="translate(-5.985 -6.645)">
    <g id="Grupo_237829" data-name="Grupo 237829" transform="translate(5.985 6.645)">
      <path id="Trazado_147458" data-name="Trazado 147458" d="M23.4,185.247c0-10.815,0-21.451,0-32.088,0-2.153.572-2.733,2.7-2.733q16.682,0,33.365,0c2.038,0,2.631.605,2.631,2.68q0,15.351,0,30.7V185.2c.406.019.754.049,1.1.049q6.951,0,13.9,0c1.727,0,2.405.683,2.406,2.417q.006,16.922,0,33.844c0,1.739-.677,2.424-2.4,2.424q-34.331,0-68.663,0c-1.8,0-2.452-.666-2.453-2.494q0-16.861,0-33.723c0-1.811.66-2.468,2.475-2.47q6.83-.008,13.66,0Zm3.944-30.917v30.84h30.8V154.378H49.518c0,4.351.005,8.62,0,12.888,0,2.13-1.278,3.133-3.1,2.139a7.193,7.193,0,0,0-7.346.013c-1.8.935-3.084-.023-3.09-2.048-.012-3.948,0-7.9,0-11.846v-1.2Zm13.39,65.689V189.2H32.1c0,4.4.009,8.709,0,13.019-.006,1.966-1.3,2.959-3,2.042a7.315,7.315,0,0,0-7.467-.019c-1.783.942-3.059-.037-3.064-2.081-.011-3.95,0-7.9,0-11.849v-1.106H9.915v30.81Zm4.023-30.865v30.838h30.8V189.2H66.93c0,4.349.005,8.616,0,12.882,0,2.134-1.271,3.136-3.1,2.148a7.209,7.209,0,0,0-7.347.006c-1.846.962-3.092-.017-3.1-2.158q-.011-5.679,0-11.359v-1.564Zm.838-34.8H39.9v10.5a11.08,11.08,0,0,1,2.91-.819,10,10,0,0,1,2.779.808ZM22.519,189.146v10.735a4.733,4.733,0,0,1,5.617-.106V189.146Zm40.461,10.722V189.205H57.292v10.65a4.708,4.708,0,0,1,5.687.013" transform="translate(-5.985 -103.983)"/>
      <path id="Trazado_147459" data-name="Trazado 147459" d="M241.36,15.5c1.056,1.13,2.1,2.237,3.138,3.36,1.5,1.63,1.03,3.245-1.111,3.715q-7.3,1.6-14.619,3.151c-2.184.46-3.222-.72-2.606-2.9q2-7.074,4.011-14.143c.656-2.3,2.237-2.69,3.875-.965,1.468,1.547,2.92,3.108,4.416,4.7a24.964,24.964,0,0,1,21.037-.643A24.489,24.489,0,0,1,272.2,23.628a25.12,25.12,0,0,1-40.133,29.128l2.849-2.515a21.041,21.041,0,0,0,18.206,5.676,20.337,20.337,0,0,0,12.53-6.9,21.193,21.193,0,0,0,.436-27.682c-6.794-8.181-17.722-9.283-24.723-5.834M230.9,21.2l8.834-1.776-6.62-7.039c-.821,3.042-1.582,5.862-2.342,8.684l-.036.2.164-.069" transform="translate(-154.925 -6.645)" fill="#040404"/>
      <path id="Trazado_147460" data-name="Trazado 147460" d="M231.161,127.9l-2.1-3.613,3.479-1.676,1.793,3.046-3.174,2.243" transform="translate(-157.008 -85.156)" fill="#070707"/>
      <path id="Trazado_147461" data-name="Trazado 147461" d="M72.106,162.513h8.632v1.2c0,3.948-.008,7.9,0,11.845.006,2.025,1.292,2.983,3.09,2.048a7.193,7.193,0,0,1,7.346-.013c1.825.993,3.1-.009,3.1-2.139.007-4.268,0-8.537,0-12.888h8.628v30.792h-30.8Z" transform="translate(-50.748 -112.167)" fill="#feda73"/>
      <path id="Trazado_147462" data-name="Trazado 147462" d="M48.971,301.3H18.154v-30.81H26.8v1.106c0,3.95-.007,7.9,0,11.849.005,2.045,1.281,3.023,3.064,2.081a7.315,7.315,0,0,1,7.467.019c1.705.917,3-.076,3.005-2.042.014-4.31,0-8.62,0-13.019h8.627Z" transform="translate(-14.223 -185.26)" fill="#d8b862"/>
      <path id="Trazado_147463" data-name="Trazado 147463" d="M126.013,270.328h8.632v1.564q0,5.679,0,11.359c0,2.141,1.249,3.12,3.1,2.158a7.21,7.21,0,0,1,7.347-.006c1.826.988,3.093-.013,3.1-2.148.007-4.266,0-8.533,0-12.882h8.629v30.794h-30.8Z" transform="translate(-87.243 -185.157)" fill="#eac86a"/>
      <path id="Trazado_147464" data-name="Trazado 147464" d="M116.683,162.6v10.489a9.994,9.994,0,0,0-2.78-.808,11.077,11.077,0,0,0-2.91.819V162.6Z" transform="translate(-77.075 -112.224)" fill="#ff6d4b"/>
      <path id="Trazado_147465" data-name="Trazado 147465" d="M57.172,270.3h5.617v10.629a4.733,4.733,0,0,0-5.617.106Z" transform="translate(-40.638 -185.14)" fill="#d84529"/>
      <path id="Trazado_147466" data-name="Trazado 147466" d="M170.514,281.148a4.708,4.708,0,0,0-5.687-.013v-10.65h5.687Z" transform="translate(-113.52 -185.263)" fill="#d84529"/>
      <path id="Trazado_147467" data-name="Trazado 147467" d="M240.788,33.114l2.344-8.683,6.62,7.039-8.834,1.775c-.042-.045-.086-.089-.13-.131" transform="translate(-164.945 -18.686)" fill="#8291a2"/>
      <path id="Trazado_147468" data-name="Trazado 147468" d="M240.846,51.445l-.164.069c.012-.066.024-.133.035-.2.044.042.087.086.13.131" transform="translate(-164.873 -36.886)" fill="#8291a2"/>
    </g>
  </g>
</svg>
