<svg xmlns="http://www.w3.org/2000/svg" xmlns:xlink="http://www.w3.org/1999/xlink" width="125" height="125" viewBox="0 0 125 125">
  <defs>
    <clipPath id="clip-path">
      <rect id="Rectángulo_340486" data-name="Rectángulo 340486" width="74.352" height="90.644" fill="none"/>
    </clipPath>
  </defs>
  <g id="Grupo_914873" data-name="Grupo 914873" transform="translate(-938 -2670)">
    <circle id="Elipse_4775" data-name="Elipse 4775" cx="62.5" cy="62.5" r="62.5" transform="translate(938 2670)" fill="#fff"/>
    <g id="Grupo_912284" data-name="Grupo 912284" transform="translate(-110 -464)">
      <g id="Grupo_912249" data-name="Grupo 912249" transform="translate(1073.963 3156.537)">
        <g id="Grupo_912248" data-name="Grupo 912248" transform="translate(0 0)" clip-path="url(#clip-path)">
          <path id="Trazado_280808" data-name="Trazado 280808" d="M.039,45.267C.039,31.808.08,18.348,0,4.89A4.863,4.863,0,0,1,4.9,0Q36.271.093,67.639,0a4.8,4.8,0,0,1,4.888,4.9c-.126,3.454-.022,6.917-.04,10.376a1.643,1.643,0,0,0,.524,1.306,4.593,4.593,0,0,1,1.133,4.7c-.49,1.875-.936,3.762-1.405,5.643a8.363,8.363,0,0,0-.251,2.043c.01,18.9-.025,37.8.046,56.7a4.9,4.9,0,0,1-5,4.984q-31.273-.1-62.545,0a4.907,4.907,0,0,1-4.987-5C.088,72.185.039,58.725.039,45.267" transform="translate(0 0)"/>
          <path id="Trazado_280809" data-name="Trazado 280809" d="M56.331,78.922c1.982-1.821,3.875-3.566,5.775-5.3a1.464,1.464,0,0,0,.39-.826c.5-2.086,1.024-4.166,1.677-6.236v4.45c0,3.49-.019,6.98.017,10.469.006.657-.149.824-.816.823q-26.364-.031-52.728,0c-.638,0-.834-.122-.833-.8q.029-35.418,0-70.838c0-.744.226-.846.89-.845q26.317.028,52.632,0c.724,0,.861.194.858.879-.031,5.377.021,10.753-.037,16.129a25.218,25.218,0,0,1-1.2,5.576q-4.62,19.094-9.292,38.177a1.852,1.852,0,0,0,.009,1.111c.878,2.372,1.748,4.746,2.666,7.243" transform="translate(-0.733 -0.733)" fill="#fff"/>
          <path id="Trazado_280810" data-name="Trazado 280810" d="M66.705,16.893c0-3.4-.016-6.6.014-9.811.006-.6-.136-.777-.763-.777q-29.434.028-58.868,0c-.6,0-.78.13-.779.761q.026,38.49,0,76.98c0,.592.118.784.756.784q29.434-.029,58.868,0c.712,0,.784-.245.783-.854-.019-9.182.007-18.364-.029-27.546a23.447,23.447,0,0,1,.733-6.409c.8-2.913,1.445-5.871,2.3-8.8V85.568c0,1.814-.457,2.266-2.289,2.266H5.549c-1.773,0-2.244-.464-2.244-2.215V5.525c0-1.762.465-2.225,2.233-2.225h61.98c1.713,0,2.2.482,2.206,2.159,0,3.081-.008,6.163.01,9.245,0,.539-.054.832-.716.907a4.326,4.326,0,0,0-2.312,1.282" transform="translate(-0.247 -0.247)" fill="#fff"/>
          <path id="Trazado_280811" data-name="Trazado 280811" d="M61.558,74.788c-1.4-1.775-.78-3.567-.343-5.36q4.994-20.5,9.951-41.009c.232-.965.574-1.057,1.417-.811,1.762.512,1.757.469,1.319,2.271Q68.764,51.015,63.659,72.159c-.31,1.286-1.38,1.777-2.1,2.629" transform="translate(-4.537 -2.055)" fill="#f2edff"/>
          <path id="Trazado_280812" data-name="Trazado 280812" d="M76.752,21.386c-.2.866-.442,1.865-.67,2.867-.066.287-.223.2-.414.156-.7-.167-1.4-.316-2.1-.472-.367-.081-.4-.328-.325-.639.211-.846.358-1.714.641-2.534a1.382,1.382,0,0,1,1.724-.939c.733.155,1.084.682,1.14,1.561" transform="translate(-5.473 -1.479)" fill="#f2edff"/>
          <path id="Trazado_280813" data-name="Trazado 280813" d="M20.632,51.269a10.659,10.659,0,0,1-2.762-.191,4.529,4.529,0,0,1-3.142-4.239q-.015-1.6,0-3.207A4.47,4.47,0,0,1,19.155,39.2q1.6-.017,3.206,0A4.468,4.468,0,0,1,26.8,43.621c.013,1.037.009,2.074,0,3.113a4.475,4.475,0,0,1-4.523,4.535c-.5,0-1.006,0-1.646,0" transform="translate(-1.1 -2.929)"/>
          <path id="Trazado_280814" data-name="Trazado 280814" d="M26.8,61.755a11.329,11.329,0,0,1-.168,2.573A4.494,4.494,0,0,1,22.3,67.582c-1.038.008-2.075.01-3.113,0a4.476,4.476,0,0,1-4.458-4.5c-.006-1.037-.009-2.075,0-3.113a4.474,4.474,0,0,1,4.41-4.456c1.068-.012,2.137-.01,3.206,0a4.472,4.472,0,0,1,4.458,4.5c0,.535,0,1.069,0,1.743" transform="translate(-1.1 -4.149)"/>
          <path id="Trazado_280815" data-name="Trazado 280815" d="M20.723,83.9c-4.128.417-6.411-1.887-6.007-5.982a13.566,13.566,0,0,1,.186-2.9,4.513,4.513,0,0,1,4.291-3.193q1.556-.012,3.113,0a4.472,4.472,0,0,1,4.49,4.47c.009,1.006.006,2.011,0,3.017A4.478,4.478,0,0,1,22.232,83.9c-.5,0-1.006,0-1.509,0" transform="translate(-1.097 -5.369)"/>
          <path id="Trazado_280816" data-name="Trazado 280816" d="M46.038,30.79c-4.717,0-9.433-.017-14.15.019-.705.006-.884-.164-.869-.87.043-2.167.009-2.168,2.192-2.168,9.025,0,18.049.011,27.074-.02.784,0,.988.18.965.966-.059,2.073-.018,2.073-2.1,2.073Z" transform="translate(-2.319 -2.075)"/>
          <path id="Trazado_280817" data-name="Trazado 280817" d="M44.721,44.086c4.214,0,8.427.019,12.64-.019.706-.006.884.164.87.87-.043,2.167-.009,2.168-2.193,2.168-8.018,0-16.035-.013-24.054.02-.785,0-.988-.18-.966-.966.06-2.073.019-2.073,2.1-2.073Z" transform="translate(-2.319 -3.294)"/>
          <path id="Trazado_280818" data-name="Trazado 280818" d="M38.126,17.739c-3.742,0-7.483-.015-11.225.015-.615,0-.776-.155-.773-.771.015-2.263-.01-2.263,2.283-2.263,7.011,0,14.024.012,21.035-.018.7,0,.884.161.87.868-.043,2.168-.009,2.169-2.192,2.169h-10" transform="translate(-1.953 -1.099)"/>
          <path id="Trazado_280819" data-name="Trazado 280819" d="M43.211,60.4c3.742,0,7.483.015,11.225-.015.616,0,.775.156.772.771-.014,2.263.01,2.263-2.283,2.263-7.011,0-14.024-.012-21.035.019-.705,0-.883-.164-.869-.87.043-2.167.009-2.168,2.192-2.168Z" transform="translate(-2.319 -4.514)"/>
          <path id="Trazado_280820" data-name="Trazado 280820" d="M20.706,34.983a15.277,15.277,0,0,1-2.434-.139,4.446,4.446,0,0,1-3.546-4.472c0-.942,0-1.884,0-2.825a4.714,4.714,0,0,1,5.69-4.688c.294.054.36.163.35.417-.011.282,0,.565,0,.848,0,.534.177,1.173-.056,1.573-.271.464-.969.123-1.476.194a1.562,1.562,0,0,0-1.473,1.55c-.042.972-.043,1.947,0,2.918a1.542,1.542,0,0,0,1.649,1.561c.878.029,1.759.024,2.637,0,1.132-.029,1.787-.627,1.714-1.767-.064-.994.155-1.338,1.231-1.278,1.922.107,1.926.031,1.808,1.984a4.532,4.532,0,0,1-4.205,4.078c-.627.02-1.256,0-1.883,0l0,.04" transform="translate(-1.101 -1.702)"/>
          <path id="Trazado_280821" data-name="Trazado 280821" d="M41.7,76.717c3.238,0,6.478.017,9.715-.015.615-.006.776.155.773.771-.014,2.263.011,2.263-2.283,2.263-6.006,0-12.011-.014-18.016.018-.7,0-.884-.162-.87-.869.043-2.168.009-2.169,2.192-2.169Z" transform="translate(-2.319 -5.734)"/>
          <path id="Trazado_280822" data-name="Trazado 280822" d="M22.254,29.9l-.346-.3c-1.971-1.685-1.972-1.685-.138-3.518,1.31-1.309,2.638-2.6,3.921-3.937.379-.393.6-.394.945.009.507.591,1.422,1.1,1.49,1.714.054.483-.9,1.089-1.43,1.622-1.3,1.317-2.617,2.622-3.928,3.931-.155.154-.319.3-.514.475" transform="translate(-1.526 -1.634)"/>
          <path id="Trazado_280823" data-name="Trazado 280823" d="M24.027,45.448c0,2.869-.175,3.046-3.017,3.046s-3.021-.174-3.021-3.041c0-2.807.188-3,2.968-3h.094c2.786,0,2.976.192,2.976,2.992" transform="translate(-1.345 -3.174)" fill="#fff"/>
          <path id="Trazado_280824" data-name="Trazado 280824" d="M20.926,64.809c-2.728,0-2.937-.209-2.937-2.937,0-2.965.139-3.1,3.147-3.1,2.667,0,2.891.225,2.891,2.888v.094c0,2.9-.163,3.056-3.1,3.056" transform="translate(-1.345 -4.393)" fill="#fff"/>
          <path id="Trazado_280825" data-name="Trazado 280825" d="M24.027,78.125c0,2.8-.192,3-2.97,3-2.911,0-3.068-.158-3.068-3.088,0-2.744.2-2.951,2.921-2.951H21c2.846,0,3.023.179,3.023,3.039" transform="translate(-1.345 -5.613)" fill="#fff"/>
        </g>
      </g>
    </g>
  </g>
</svg>
