<svg xmlns="http://www.w3.org/2000/svg" xmlns:xlink="http://www.w3.org/1999/xlink" width="120" height="120" viewBox="0 0 120 120">
  <defs>
    <clipPath id="clip-path">
      <rect id="Rectángulo_34236" data-name="Rectángulo 34236" width="120" height="120" fill="none"/>
    </clipPath>
  </defs>
  <g id="Grupo_237838" data-name="Grupo 237838" transform="translate(0.483)">
    <g id="Grupo_237837" data-name="Grupo 237837" transform="translate(-0.483)" clip-path="url(#clip-path)">
      <path id="Trazado_148319" data-name="Trazado 148319" d="M16.769,119.956H0V95.972c.795-1.739,2.456-1.03,3.718-1.269V62.156C.606,61.681.606,61.681,0,60.812V23.555c.876-1.619,2.487-1.011,3.627-1.164,0-1.595.022-3.094-.007-4.592A1.9,1.9,0,0,1,5.357,15.6a1.9,1.9,0,0,1,1.77,2.15c0,.612.044,1.224.068,1.837-.206,2.242.3,2.806,2.52,2.806q13.836,0,27.672,0c1.86,0,2.414-.556,2.416-2.425q.006-7.033,0-14.066V4.266H7.123c0,1.577-.007,3.077,0,4.576a1.905,1.905,0,0,1-1.768,2.172,1.9,1.9,0,0,1-1.737-2.2c.028-1.862,0-3.725.007-5.587C3.633,1.249,4.137.737,6.082.737H113.2c1.883,0,2.418.526,2.42,2.41q.009,8.09,0,16.18V22.4c.171,0,.514,0,.857,0,2.363.011,2.768.415,2.768,2.768q0,10.767,0,21.535,0,6.577,0,13.154c0,1.58-.588,2.161-2.168,2.191-.532.01-1.065,0-1.54,0v32.7h.934c2.39.009,2.777.392,2.777,2.744,0,6.674-.019,13.348.02,20.021a2.514,2.514,0,0,1-1.183,2.438h-15.6a2.354,2.354,0,0,1-1.2-2.412c.072-1.571.018-3.147.018-4.743H90.329c0,1.575-.046,3.08.016,4.582a2.64,2.64,0,0,1-1.142,2.573H66.378a2.242,2.242,0,0,1-1.268-2.372c.053-1.6.014-3.209.014-4.794h-11c0,1.638-.041,3.217.014,4.793a2.245,2.245,0,0,1-1.268,2.373H30.045a2.624,2.624,0,0,1-1.142-2.572c.06-1.528.015-3.06.015-4.565H17.951c0,1.635-.054,3.182.018,4.723a2.357,2.357,0,0,1-1.2,2.413M79.9,65.01l0,0-.409,1.375V91.776c-.15,2.437.352,2.977,2.775,2.977h27.119c2.333,0,2.763-.432,2.763-2.805q0-13.557,0-27.113c0-.388-.006-.777-.043-1.162a1.531,1.531,0,0,0-1.46-1.551c-1.923-.08-3.851-.025-5.85-.025,0,1.454.05,2.81-.018,4.161a21.146,21.146,0,0,1-.4,2.472,6.142,6.142,0,0,1-1.72.55c-4.577.045-9.155.042-13.732.016-1.518-.009-2.067-.62-2.078-2.159-.012-1.654,0-3.308,0-5.083a15.736,15.736,0,0,1-2.779-.026c-2.184-.415-3.4.513-3.945,2.549-.01.037-.014.076-.021.114l-.19.321m4.178-13.742h2.7V47.576l-1.073.05H83.148v3.643Zm2.131-18.63a16.778,16.778,0,0,1-2.672.46c-3.736.052-7.472.022-11.532.022,1.3.863,1.959,1.732,1.332,3.04a2.055,2.055,0,0,1-2.9.217c-.9-.569-1.9-.989-2.853-1.475l.016.02-.3-.158a18.142,18.142,0,0,0-11-1.306C45.467,35.484,38.54,44.789,39.88,55.75a18.822,18.822,0,0,0,9.479,14.389,18.736,18.736,0,0,0,14.606,2.423A19.911,19.911,0,0,0,76.6,42.638c-.837-1.4-.806-1.831.215-2.983,1.426-.392,1.917-.226,2.681,1.038.536.887.963,1.842,1.511,2.722a1.38,1.38,0,0,0,.9.64c1.5.051,3,0,4.506-.018.542.016,1.083.04,1.625.048,1.645.025,2.278.624,2.289,2.234q.022,3.142,0,6.284c-.011,1.59-.6,2.188-2.168,2.206-1.436.016-2.873-.03-4.305.03a1.13,1.13,0,0,0-.872.57c-.226,1-.31,2.028-.46,3.145,3.059,0,6.04,0,9.021,0,2.024,0,2.524-.509,2.525-2.554q0-13.79,0-27.579a5.106,5.106,0,0,0-.046-1.043,1.644,1.644,0,0,0-1.585-1.459c-1.886-.057-3.775-.017-5.76-.017,0,1.744.041,3.366-.021,4.984a8.419,8.419,0,0,1-.444,1.753M3.535,55.68v2.828c.4.018.74.046,1.078.046q7.332,0,14.664,0c1.906,0,2.407-.507,2.408-2.408q0-10.937,0-21.875c0-2.133-.009-4.267,0-6.4.006-1.094-.491-1.877-1.577-1.935-1.884-.1-3.776-.028-5.644-.028l-.29,6.369a7.364,7.364,0,0,1-2.167.805c-2.811.1-5.628.039-8.475.039Zm39.809,36.1c-.151,2.482.3,2.972,2.752,2.972q13.734,0,27.467,0c1.825,0,2.383-.551,2.384-2.34q.006-10.7,0-21.41a6.676,6.676,0,0,0-.076-.752c-10.907,8.532-21.713,8.478-32.526-.009v1.987q0,9.777,0,19.554M68.466,4.269Q56.013,4.258,43.56,4.252c-.063,0-.127.073-.212.125V19.588c-.144,2.281.332,2.809,2.542,2.81q13.85,0,27.7,0c1.812,0,2.356-.54,2.357-2.347q.006-7.389,0-14.777c0-.332-.042-.664-.065-1Zm11.172.009-.154.166q0,7.57.007,15.14c-.144,2.24.375,2.814,2.556,2.814q13.838,0,27.676,0c1.873,0,2.395-.525,2.4-2.424q.008-7.092,0-14.184V4.267h-7.551c-2.783-.012-5.566-.038-8.349-.035q-8.291.01-16.583.045M36.286,55.68c0-.155.017-.31.006-.464a23.1,23.1,0,0,1,8.62-20.336c.663-.561,1.385-1.051,2.324-1.759H45.827q-5.47,0-10.941,0c-1.76,0-2.3-.537-2.311-2.266-.007-1.618,0-3.236,0-4.96-1.816,0-3.513-.01-5.21,0-1.547.012-2.172.638-2.177,2.208q-.017,5.7,0,11.4.014,8.086.044,16.172c-.153,2.32.348,2.876,2.6,2.88q2.2,0,4.41,0h4.545l-.493-2.88m4.071,55.185c.326-1.349,1.255-1.647,2.533-1.646q35.739.034,71.477.016h1.316v-3.694H3.552v3.694H4.864c9.507,0,19.014.014,28.521-.017,1.257,0,2.1.378,2.416,1.647-.245,2.086-1.888,1.874-3.3,1.89v3.639h18.05v-3.664c-2.638,0-5.194,0-7.751,0-1.639,0-2.05-.321-2.438-1.865m75.357-56.112V33.121c-2.908,0-5.695,0-8.482,0-1.791,0-2.337-.555-2.348-2.376-.009-1.579,0-3.159,0-4.851-1.764,0-3.422-.006-5.08,0s-2.236.585-2.238,2.234q-.009,6.8,0,13.606.012,6.976.045,13.951c-.152,2.414.274,2.867,2.711,2.868q5.7,0,11.4,0h3.992ZM7.187,91.785c-.209,2.419.274,2.967,2.627,2.968q13.678,0,27.357,0c2.112,0,2.634-.512,2.634-2.588,0-8.031-.109-16.064.072-24.091.05-2.214-1-3.821-1.776-5.632a.714.714,0,0,0-.512-.371c-1.694-.028-3.388-.017-5.178-.017,0,1.115.038,2.079-.01,3.04-.058,1.187-.188,2.371-.286,3.555a6.8,6.8,0,0,1-1.924.627c-4.5.055-9,.043-13.507.021-1.645-.008-2.218-.629-2.227-2.279-.008-1.619,0-3.238,0-4.966-1.663,0-3.206,0-4.75,0-2.13,0-2.581.456-2.581,2.614q0,12.457,0,24.914c0,.735.04,1.47.061,2.205M97.6,101.907h18.077V98.318H97.6Zm-94.069.007H21.613v-3.6H3.532ZM68.619,116.4H86.763v-3.61H68.66c-.016.245-.039.433-.04.621,0,.969,0,1.938,0,2.989M90.367,65.725h10.841V62.14H90.367Zm-72.361.03H28.866V62.108H18.006Zm36.165,36.154H65.039V98.317H54.171ZM72.253,29.551H83.1V25.969H72.253ZM14.411,112.785H3.55v3.623h10.86Zm90.46,3.6h10.8v-3.621h-10.8ZM86.775,98.3H75.92v3.63H86.775Zm-54.3,3.628H43.325V98.336H32.471Zm14.522-75.97H36.133v3.61H46.993Zm3.6-.06v5.3c2.244-.468,4.461-.928,6.676-1.4.176-.037.483-.14.485-.217a7.578,7.578,0,0,0-.1-2.611,2.154,2.154,0,0,0-1.605-1.028c-1.767-.133-3.55-.048-5.451-.048m18.082,0c-1.906,0-3.689-.084-5.456.048A2.164,2.164,0,0,0,61.6,26.958a7.78,7.78,0,0,0-.12,2.613c0,.073.231.183.368.212,2.28.479,4.563.947,6.824,1.413Zm47.048.074h-7.255v3.584h7.255ZM3.528,29.549h7.254V25.966H3.528Zm43.427,72.365h3.613V98.3H46.955Zm21.737-.017h3.635V98.3H68.692Zm-39.83-3.6H25.244v3.639h3.618Zm65.12.021h-3.57v3.616h3.57Z" transform="translate(0.559 -0.508)" fill="#030201"/>
      <path id="Trazado_148325" data-name="Trazado 148325" d="M137.319,141.878a18.82,18.82,0,0,1-9.479-14.389c-1.341-10.961,5.586-20.266,16.415-22.291a18.145,18.145,0,0,1,11,1.306l.3.159-.016-.02a6.065,6.065,0,0,0,.45,1.027,21.48,21.48,0,0,1,3.712,15.633,20.49,20.49,0,0,1-6.731,12.743q-.018-.289-.036-.579a5.369,5.369,0,0,0-10.628-.789c-.489,2.3.56,4.353,3.051,5.975a20.243,20.243,0,0,1-8.043,1.226m4.909-24.228c0,1.28-.039,2.561.008,3.839a5.35,5.35,0,0,0,10.684.045c.075-2.6.069-5.2,0-7.793a5.348,5.348,0,0,0-10.689.07c-.039,1.278-.007,2.559-.005,3.839" transform="translate(-87.4 -72.247)" fill="#fcdd2f"/>
      <path id="Trazado_148326" data-name="Trazado 148326" d="M255.534,227.3V201.916l.409-1.375,0,0,.19-.321c.007-.038.011-.077.021-.114.547-2.036,1.761-2.965,3.945-2.549a15.737,15.737,0,0,0,2.779.026c0,1.775-.009,3.429,0,5.084.011,1.539.561,2.151,2.078,2.159,4.577.026,9.155.03,13.732-.016a6.138,6.138,0,0,0,1.72-.55,6.212,6.212,0,0,1,.2,1.1c.014,3.474.006,6.949,0,10.423-1.586.007-3.172,0-4.757.026-1.566.027-2.151.624-2.163,2.209-.016,2.089-.032,4.178.015,6.265a8,8,0,0,0,.392,1.66c-1.433.457-2.855,1.256-4.3,1.307-4.75.166-9.509.059-14.264.058" transform="translate(-175.487 -136.034)" fill="#fca75b"/>
      <path id="Trazado_148327" data-name="Trazado 148327" d="M22.963,227.583c-.021-.735-.061-1.47-.061-2.205q-.007-12.457,0-24.914c0-2.158.451-2.611,2.581-2.614,1.544,0,3.087,0,4.75,0,0,1.729-.007,3.348,0,4.966.008,1.651.582,2.272,2.227,2.279,4.5.022,9.005.034,13.507-.021a6.812,6.812,0,0,0,1.924-.627q.01,5.8.021,11.6c-1.474.007-2.947.01-4.42.022-1.859.015-2.369.512-2.375,2.325-.007,2.055-.042,4.111.023,6.164a7.908,7.908,0,0,0,.513,1.843,16.105,16.105,0,0,1-7.1,1.2c-3.861-.078-7.725-.019-11.588-.018" transform="translate(-15.216 -136.306)" fill="#fca75b"/>
      <path id="Trazado_148328" data-name="Trazado 148328" d="M313.678,111.4q-.023-6.976-.045-13.951-.012-6.8,0-13.606c0-1.649.586-2.226,2.238-2.234s3.315,0,5.08,0c0,1.692-.007,3.271,0,4.851.01,1.821.556,2.373,2.347,2.376,2.787,0,5.574,0,8.482,0v21.631a18,18,0,0,1-6.369.955c-3.911-.071-7.824-.021-11.736-.022" transform="translate(-215.51 -56.218)" fill="#fda85b"/>
      <path id="Trazado_148329" data-name="Trazado 148329" d="M43.669,342.986c-.315-1.269-1.159-1.651-2.416-1.647-9.507.03-19.014.017-28.521.017H11.42v-3.694H123.551v3.694h-1.316q-35.738,0-71.477-.017c-1.278,0-2.207.3-2.533,1.646H43.669" transform="translate(-7.308 -232.627)" fill="#fcd9bc"/>
      <path id="Trazado_148330" data-name="Trazado 148330" d="M80.991,111.387q-.022-8.086-.044-16.172-.01-5.7,0-11.4c0-1.569.63-2.2,2.177-2.208,1.7-.013,3.395,0,5.211,0,0,1.724-.006,3.342,0,4.96.007,1.73.551,2.264,2.311,2.266q5.47.008,10.941,0H103c-.939.708-1.662,1.2-2.324,1.759a23.1,23.1,0,0,0-8.619,20.336c.011.154,0,.309-.006.464H80.991" transform="translate(-55.204 -56.215)" fill="#fca75b"/>
      <path id="Trazado_148331" data-name="Trazado 148331" d="M158.679,145.809a20.241,20.241,0,0,0,8.043-1.227c4.339,1.452,7.3-1.42,7.613-4.606a20.493,20.493,0,0,0,6.731-12.743,21.478,21.478,0,0,0-3.712-15.633,6.093,6.093,0,0,1-.45-1.027c.955.486,1.951.906,2.853,1.475a2.055,2.055,0,0,0,2.9-.217l3.478,3.5c-1.02,1.152-1.051,1.581-.214,2.982a19.911,19.911,0,0,1-12.635,29.923,18.735,18.735,0,0,1-14.606-2.423" transform="translate(-108.76 -76.178)" fill="#fbd202"/>
      <path id="Trazado_148332" data-name="Trazado 148332" d="M17.221,23.421V18.83a1.906,1.906,0,0,0,1.768-2.172c-.01-1.5,0-3,0-4.576h25.02q0,1.82,0,3.639-2.323.02-4.646.04c-1.571.016-2.144.59-2.153,2.187-.011,2.13-.02,4.261.01,6.391a8.468,8.468,0,0,0,.274,1.46c-.414.3-.791.775-1.247.87a26.056,26.056,0,0,1-4.654.706c-4.175.095-8.354.032-12.531.031-.024-.612-.068-1.224-.068-1.837a1.9,1.9,0,0,0-1.77-2.15" transform="translate(-11.305 -8.324)" fill="#fca85b"/>
      <path id="Trazado_148333" data-name="Trazado 148333" d="M255.529,27.326q0-7.57-.007-15.14l.154-.166q8.292-.024,16.584-.045c2.783,0,5.566.022,8.349.035q0,1.818,0,3.636c-1.581.013-3.162.024-4.743.041-1.556.018-2.165.612-2.178,2.181-.018,2.121-.034,4.244.016,6.365a7.4,7.4,0,0,0,.421,1.648,3.645,3.645,0,0,1-.98.544,33,33,0,0,1-5.2.868c-4.134.124-8.274.036-12.412.033" transform="translate(-175.479 -8.249)" fill="#fda85b"/>
      <path id="Trazado_148334" data-name="Trazado 148334" d="M139.353,27.373V12.162c.085-.052.148-.125.212-.125q12.453,0,24.906.017,0,1.817,0,3.634c-1.621.014-3.242.024-4.863.044-1.486.018-2.1.626-2.11,2.119-.013,2.124-.037,4.248.018,6.37a7.84,7.84,0,0,0,.45,1.746,11.261,11.261,0,0,1-6.095,1.381c-4.171.1-8.346.026-12.519.025" transform="translate(-95.446 -8.293)" fill="#fda85b"/>
      <path id="Trazado_148335" data-name="Trazado 148335" d="M280.561,216.109c0-3.474.01-6.949,0-10.423a6.208,6.208,0,0,0-.2-1.1,21.167,21.167,0,0,0,.4-2.472c.068-1.35.018-2.707.018-4.161,2,0,3.927-.055,5.85.025a1.531,1.531,0,0,1,1.46,1.551c.037.385.043.774.043,1.162q0,13.557,0,27.113c0,2.373-.43,2.806-2.763,2.806H258.255c-2.423,0-2.926-.54-2.775-2.977,4.755,0,9.514.108,14.264-.058,1.448-.05,2.869-.85,4.3-1.307a4.186,4.186,0,0,0,1.36.563c2.4.057,4.808.065,7.211.009a1.641,1.641,0,0,0,1.739-1.785c.018-2.365.032-4.73,0-7.094-.018-1.181-.621-1.744-1.815-1.816-.657-.039-1.317-.027-1.976-.039" transform="translate(-175.433 -136.366)" fill="#f89437"/>
      <path id="Trazado_148336" data-name="Trazado 148336" d="M23.009,227.584c3.863,0,7.727-.059,11.588.018a16.1,16.1,0,0,0,7.1-1.2,3.759,3.759,0,0,0,1.086.367c2.478.035,4.958.068,7.434,0a1.646,1.646,0,0,0,1.652-1.766q.065-3.542,0-7.086a1.709,1.709,0,0,0-1.826-1.829c-.695-.043-1.393-.029-2.09-.041q-.011-5.8-.021-11.6c.1-1.185.228-2.369.286-3.556.047-.96.01-1.924.01-3.039,1.79,0,3.484-.011,5.178.017a.713.713,0,0,1,.512.371c.78,1.811,1.827,3.417,1.776,5.632-.182,8.027-.071,16.06-.072,24.09,0,2.076-.522,2.588-2.634,2.588q-13.679,0-27.357,0c-2.353,0-2.836-.548-2.627-2.967" transform="translate(-15.262 -136.307)" fill="#f89437"/>
      <path id="Trazado_148337" data-name="Trazado 148337" d="M139.282,226.158V224.17c10.813,8.487,21.618,8.541,32.525.009a6.673,6.673,0,0,1,.076.753q.007,10.705,0,21.41c0,1.789-.56,2.339-2.384,2.34q-13.734.006-27.467,0c-2.449,0-2.9-.491-2.752-2.972,4.249,0,8.5-.036,12.746.019a13.61,13.61,0,0,0,5.934-1.214,3.619,3.619,0,0,0,1.08.381c2.514.031,5.031.067,7.543-.017a1.606,1.606,0,0,0,1.561-1.821c.006-2.322.021-4.644-.006-6.965-.014-1.221-.631-1.81-1.878-1.876-.618-.033-1.238-.025-1.857-.035v-2.519c-.786.242-1.332.4-1.873.579a21.559,21.559,0,0,1-16.723-1.166,26.909,26.909,0,0,1-6.528-4.918" transform="translate(-95.379 -154.439)" fill="#f99437"/>
      <path id="Trazado_148338" data-name="Trazado 148338" d="M139.34,230.56a26.909,26.909,0,0,0,6.528,4.918,21.559,21.559,0,0,0,16.723,1.166c.541-.177,1.087-.337,1.873-.579v2.519c-1.58.007-3.162,0-4.742.024-1.651.022-2.229.6-2.236,2.228-.008,2.082-.042,4.165.023,6.245a7.851,7.851,0,0,0,.511,1.838,13.612,13.612,0,0,1-5.935,1.214c-4.248-.055-8.5-.018-12.746-.019q0-9.777,0-19.554" transform="translate(-95.436 -158.841)" fill="#fda85b"/>
      <path id="Trazado_148339" data-name="Trazado 148339" d="M22,87.971c.095-2.082.19-4.164.291-6.369,1.868,0,3.76-.072,5.644.028,1.086.058,1.583.84,1.577,1.935-.011,2.133,0,4.266,0,6.4q0,10.937,0,21.875c0,1.9-.5,2.405-2.408,2.408q-7.332.009-14.664,0c-.338,0-.676-.028-1.078-.046v-2.828l4.151-1.362a5.672,5.672,0,0,0,1.508.472c2.284.052,4.57.043,6.856.015a1.683,1.683,0,0,0,1.893-1.852q.041-3.485,0-6.971a1.742,1.742,0,0,0-1.886-1.892c-.617-.035-1.236-.039-1.854-.057Q22.017,93.849,22,87.971" transform="translate(-7.269 -56.201)" fill="#fc9638"/>
      <path id="Trazado_148340" data-name="Trazado 148340" d="M268.97,88.346a8.426,8.426,0,0,0,.444-1.753c.062-1.618.021-3.24.021-4.984,1.985,0,3.874-.039,5.76.017a1.644,1.644,0,0,1,1.585,1.459,5.11,5.11,0,0,1,.046,1.043q0,13.789,0,27.579c0,2.044-.5,2.551-2.525,2.554-2.981,0-5.962,0-9.021,0,.15-1.118.234-2.148.46-3.145a1.129,1.129,0,0,1,.872-.57c1.433-.061,2.87-.014,4.305-.031,1.566-.018,2.157-.616,2.168-2.206q.022-3.142,0-6.284c-.012-1.61-.645-2.209-2.29-2.234-.542-.008-1.083-.032-1.625-.049,0-3.394.007-6.788-.008-10.183a7.774,7.774,0,0,0-.194-1.216" transform="translate(-182.203 -56.214)" fill="#fa9537"/>
      <path id="Trazado_148341" data-name="Trazado 148341" d="M47.984,15.721q0-1.82,0-3.639h7.661v1.64q0,7.033,0,14.065c0,1.87-.555,2.425-2.416,2.426q-13.836,0-27.672,0c-2.221,0-2.726-.564-2.52-2.806,4.177,0,8.356.063,12.531-.032a26.056,26.056,0,0,0,4.654-.706c.456-.095.834-.569,1.247-.87a4.814,4.814,0,0,0,1.548.649c2.325.072,4.653.051,6.98.024a1.737,1.737,0,0,0,1.9-1.885q.057-3.489,0-6.979a1.746,1.746,0,0,0-1.936-1.845c-.658-.023-1.317-.029-1.975-.043" transform="translate(-15.282 -8.324)" fill="#fc9638"/>
      <path id="Trazado_148342" data-name="Trazado 148342" d="M164.42,15.726q0-1.816,0-3.633h7.413c.023.339.064.671.065,1q.006,7.389,0,14.777c0,1.807-.545,2.347-2.357,2.347q-13.85,0-27.7,0c-2.21,0-2.686-.528-2.542-2.81,4.173,0,8.348.072,12.519-.025a11.256,11.256,0,0,0,6.094-1.381,4.311,4.311,0,0,0,1.281.458q3.6.068,7.194.011a1.655,1.655,0,0,0,1.762-1.752q.052-3.6,0-7.193a1.677,1.677,0,0,0-1.761-1.753c-.655-.037-1.313-.035-1.969-.05" transform="translate(-95.394 -8.331)" fill="#fc9638"/>
      <path id="Trazado_148343" data-name="Trazado 148343" d="M255.5,27.4c4.138,0,8.278.091,12.412-.033a33,33,0,0,0,5.2-.868,3.645,3.645,0,0,0,.98-.544,4.629,4.629,0,0,0,1.382.5c2.359.052,4.721.044,7.081.014a1.638,1.638,0,0,0,1.8-1.7q.066-3.654,0-7.311c-.021-1.078-.69-1.641-1.809-1.692-.656-.03-1.314-.032-1.97-.046q0-1.818,0-3.636h7.551v1.522q0,7.092,0,14.184c0,1.9-.524,2.424-2.4,2.424q-13.838,0-27.676,0c-2.181,0-2.7-.574-2.556-2.814" transform="translate(-175.445 -8.327)" fill="#fb9538"/>
      <path id="Trazado_148344" data-name="Trazado 148344" d="M15.514,124.173l-4.151,1.362V102.977c2.847,0,5.663.057,8.475-.039A7.351,7.351,0,0,0,22,102.133q.013,5.878.026,11.756c-1.59.018-3.18.031-4.769.054-1.573.023-2.194.631-2.2,2.185-.012,2.1-.036,4.192.018,6.286a8.169,8.169,0,0,0,.438,1.76" transform="translate(-7.269 -70.363)" fill="#fca85b"/>
      <path id="Trazado_148345" data-name="Trazado 148345" d="M245.681,103.295a7.779,7.779,0,0,1,.194,1.216c.015,3.394.008,6.789.008,10.183-1.5.016-3.006.07-4.506.019a1.381,1.381,0,0,1-.9-.641c-.548-.879-.975-1.834-1.511-2.721-.764-1.265-1.255-1.43-2.682-1.038l-3.478-3.5c.627-1.308-.027-2.177-1.332-3.04,4.059,0,7.8.03,11.532-.022a16.78,16.78,0,0,0,2.672-.46" transform="translate(-158.913 -71.164)" fill="#fca75b"/>
      <path id="Trazado_148346" data-name="Trazado 148346" d="M107.773,354.775h4.556c.389,1.544.8,1.862,2.438,1.865,2.556,0,5.112,0,7.751,0V360.3h-18.05v-3.638c1.416-.016,3.06.2,3.3-1.89" transform="translate(-71.413 -244.416)" fill="#fcc99b"/>
      <rect id="Rectángulo_34218" data-name="Rectángulo 34218" width="18.078" height="3.589" transform="translate(98.16 97.81)" fill="#f9c699"/>
      <rect id="Rectángulo_34219" data-name="Rectángulo 34219" width="18.082" height="3.605" transform="translate(4.091 97.802)" fill="#f9c699"/>
      <path id="Trazado_148347" data-name="Trazado 148347" d="M220.594,364.575c0-1.051,0-2.02,0-2.989,0-.188.023-.375.039-.62h18.1v3.609Z" transform="translate(-151.415 -248.682)" fill="#fcc99b"/>
      <path id="Trazado_148348" data-name="Trazado 148348" d="M313.729,175.319c3.912,0,7.825-.049,11.736.022a18,18,0,0,0,6.369-.955v3.8h-3.992q-5.7,0-11.4,0c-2.437,0-2.863-.453-2.711-2.868" transform="translate(-215.561 -120.141)" fill="#fc9638"/>
      <rect id="Rectángulo_34220" data-name="Rectángulo 34220" width="10.841" height="3.585" transform="translate(90.926 61.632)" fill="#f6d4b7"/>
      <rect id="Rectángulo_34221" data-name="Rectángulo 34221" width="10.861" height="3.647" transform="translate(18.565 61.601)" fill="#f6d4b7"/>
      <rect id="Rectángulo_34222" data-name="Rectángulo 34222" width="10.868" height="3.592" transform="translate(54.731 97.81)" fill="#f7c598"/>
      <rect id="Rectángulo_34223" data-name="Rectángulo 34223" width="10.845" height="3.582" transform="translate(72.813 25.462)" fill="#fcd9bc"/>
      <rect id="Rectángulo_34224" data-name="Rectángulo 34224" width="10.86" height="3.623" transform="translate(4.11 112.278)" fill="#fcc99b"/>
      <rect id="Rectángulo_34225" data-name="Rectángulo 34225" width="10.804" height="3.621" transform="translate(105.431 112.259)" fill="#fcc99b"/>
      <rect id="Rectángulo_34226" data-name="Rectángulo 34226" width="10.855" height="3.63" transform="translate(76.479 97.789)" fill="#f7c598"/>
      <rect id="Rectángulo_34227" data-name="Rectángulo 34227" width="10.855" height="3.588" transform="translate(33.03 97.829)" fill="#f7c598"/>
      <rect id="Rectángulo_34228" data-name="Rectángulo 34228" width="10.859" height="3.61" transform="translate(36.693 25.447)" fill="#fcd9bc"/>
      <path id="Trazado_148349" data-name="Trazado 148349" d="M162.64,81.555c1.9,0,3.684-.085,5.451.048a2.153,2.153,0,0,1,1.605,1.028,7.578,7.578,0,0,1,.1,2.611c0,.077-.308.18-.485.217-2.215.47-4.432.929-6.676,1.4Z" transform="translate(-111.489 -56.168)" fill="#fa9537"/>
      <path id="Trazado_148350" data-name="Trazado 148350" d="M204.731,81.558v5.3c-2.261-.466-4.544-.935-6.824-1.413-.137-.029-.367-.139-.368-.212a7.782,7.782,0,0,1,.12-2.613,2.164,2.164,0,0,1,1.616-1.015c1.767-.132,3.55-.048,5.456-.048" transform="translate(-135.498 -56.17)" fill="#fca75b"/>
      <path id="Trazado_148351" data-name="Trazado 148351" d="M81.043,177.365H92.1l.493,2.879H88.049q-2.2,0-4.409,0c-2.249,0-2.75-.56-2.6-2.88" transform="translate(-55.256 -122.193)" fill="#f2933b"/>
      <rect id="Rectángulo_34229" data-name="Rectángulo 34229" width="7.255" height="3.584" transform="translate(109.025 25.462)" fill="#f9d6b9"/>
      <rect id="Rectángulo_34230" data-name="Rectángulo 34230" width="7.254" height="3.583" transform="translate(4.087 25.459)" fill="#f9d6b9"/>
      <path id="Trazado_148352" data-name="Trazado 148352" d="M271.914,151.363l1.074-.05v3.693h-2.7l1.626-3.643" transform="translate(-185.652 -104.245)" fill="#deeced"/>
      <path id="Trazado_148353" data-name="Trazado 148353" d="M269.857,151.475l-1.627,3.643H267.3v-3.643Z" transform="translate(-183.594 -104.356)" fill="#fdfdfd"/>
      <path id="Trazado_148354" data-name="Trazado 148354" d="M255.943,207.377l-.409,1.375.409-1.375" transform="translate(-175.487 -142.869)" fill="#f89437"/>
      <path id="Trazado_148355" data-name="Trazado 148355" d="M216.654,110.286l-.3-.158.3.158" transform="translate(-148.494 -75.871)" fill="#fbd202"/>
      <path id="Trazado_148356" data-name="Trazado 148356" d="M255.676,12.12l-.154.166.154-.166" transform="translate(-175.479 -8.35)" fill="#fb9538"/>
      <path id="Trazado_148357" data-name="Trazado 148357" d="M257.047,206.33l-.19.321.19-.321" transform="translate(-176.398 -142.148)" fill="#f89437"/>
      <path id="Trazado_148358" data-name="Trazado 148358" d="M174.428,125.975c0-1.28-.033-2.56.006-3.839a5.348,5.348,0,0,1,10.689-.07c.067,2.6.073,5.2,0,7.793a5.35,5.35,0,0,1-10.684-.046c-.047-1.278-.008-2.559-.009-3.839m7.219-.026c0-1.16.022-2.321-.006-3.481a1.93,1.93,0,0,0-1.82-2.019,1.9,1.9,0,0,0-1.889,1.943q-.048,3.539,0,7.08a1.775,1.775,0,0,0,1.873,1.912,1.8,1.8,0,0,0,1.837-1.952c.03-1.16.006-2.321.007-3.482" transform="translate(-119.6 -80.571)" fill="#020201"/>
      <path id="Trazado_148359" data-name="Trazado 148359" d="M185.133,192.5c-.31,3.186-3.275,6.059-7.613,4.606-2.491-1.621-3.54-3.675-3.051-5.975a5.369,5.369,0,0,1,10.628.789q.018.29.036.579m-5.428-2.166a1.816,1.816,0,0,0-1.822,1.859,1.859,1.859,0,1,0,3.717-.071,1.822,1.822,0,0,0-1.894-1.789" transform="translate(-119.558 -128.705)" fill="#030201"/>
      <path id="Trazado_148360" data-name="Trazado 148360" d="M320.8,256.356c.659.011,1.319,0,1.976.039,1.194.072,1.8.635,1.815,1.816.036,2.364.023,4.729,0,7.094a1.641,1.641,0,0,1-1.739,1.785c-2.4.056-4.808.048-7.211-.009a4.2,4.2,0,0,1-1.36-.564,7.98,7.98,0,0,1-.392-1.66c-.047-2.088-.031-4.177-.015-6.265.013-1.586.6-2.183,2.163-2.21,1.586-.027,3.172-.019,4.758-.026m-2.348,7.184h2.605v-3.685l-.961.078h-2.716v3.673l1.072-.066" transform="translate(-215.672 -176.613)" fill="#050402"/>
      <path id="Trazado_148361" data-name="Trazado 148361" d="M88.225,256.356c.7.012,1.4,0,2.09.041a1.709,1.709,0,0,1,1.826,1.829q.062,3.542,0,7.086a1.647,1.647,0,0,1-1.653,1.766c-2.477.068-4.956.034-7.434,0a3.767,3.767,0,0,1-1.086-.368,7.892,7.892,0,0,1-.513-1.843c-.065-2.053-.03-4.109-.023-6.164.006-1.812.517-2.31,2.375-2.325,1.473-.012,2.947-.015,4.42-.022m-2.333,7.186h2.717V259.85l-1.071.08H84.978v3.663l.913-.052" transform="translate(-55.529 -176.613)" fill="#050402"/>
      <path id="Trazado_148362" data-name="Trazado 148362" d="M88.25,23.782c.658.014,1.317.02,1.975.043a1.746,1.746,0,0,1,1.936,1.845q.064,3.488,0,6.979a1.737,1.737,0,0,1-1.9,1.885c-2.326.027-4.655.048-6.979-.024a4.812,4.812,0,0,1-1.549-.649,8.436,8.436,0,0,1-.273-1.46c-.031-2.13-.021-4.26-.011-6.391.008-1.6.581-2.171,2.153-2.187q2.323-.024,4.646-.04m-2.335,7.23h2.718V27.35H84.988v3.662Z" transform="translate(-55.548 -16.384)" fill="#020201"/>
      <path id="Trazado_148363" data-name="Trazado 148363" d="M320.8,23.776c.657.015,1.314.016,1.971.046,1.119.051,1.789.614,1.809,1.692q.069,3.654,0,7.311a1.638,1.638,0,0,1-1.8,1.7c-2.36.03-4.722.037-7.081-.014a4.63,4.63,0,0,1-1.382-.5,7.409,7.409,0,0,1-.421-1.648c-.05-2.121-.034-4.243-.016-6.365.013-1.569.622-2.163,2.178-2.18,1.581-.018,3.162-.028,4.743-.042m.248,3.6h-3.611v3.636h3.611Z" transform="translate(-215.673 -16.38)" fill="#030302"/>
      <path id="Trazado_148364" data-name="Trazado 148364" d="M204.624,23.772c.656.016,1.314.013,1.969.05a1.677,1.677,0,0,1,1.761,1.753q.053,3.6,0,7.193a1.655,1.655,0,0,1-1.762,1.752q-3.6.055-7.194-.011a4.31,4.31,0,0,1-1.281-.458,7.868,7.868,0,0,1-.45-1.746c-.055-2.122-.031-4.247-.018-6.37.009-1.492.625-2.1,2.111-2.119,1.621-.021,3.242-.03,4.863-.045m-.693,3.578h-2.725v3.7l.864-.044h2.763V27.35Z" transform="translate(-135.597 -16.377)" fill="#010101"/>
      <path id="Trazado_148365" data-name="Trazado 148365" d="M198.175,266.69a7.865,7.865,0,0,1-.511-1.838c-.065-2.08-.031-4.163-.022-6.244.006-1.627.585-2.206,2.236-2.228,1.581-.021,3.161-.017,4.742-.024.619.011,1.239,0,1.857.035,1.247.066,1.864.656,1.878,1.876.026,2.322.012,4.644.006,6.965a1.606,1.606,0,0,1-1.561,1.821c-2.512.084-5.029.048-7.543.017a3.616,3.616,0,0,1-1.081-.381m5.743-6.757H201.2v3.685l.852-.071h2.779v-3.68l-.911.067" transform="translate(-135.591 -176.613)" fill="#030302"/>
      <path id="Trazado_148366" data-name="Trazado 148366" d="M23.662,150.209a8.169,8.169,0,0,1-.438-1.76c-.054-2.094-.03-4.19-.018-6.285.009-1.553.631-2.162,2.2-2.185,1.59-.023,3.179-.036,4.769-.054.618.018,1.237.022,1.854.057a1.742,1.742,0,0,1,1.886,1.892q.04,3.485,0,6.971a1.682,1.682,0,0,1-1.893,1.852c-2.285.028-4.571.037-6.856-.014a5.676,5.676,0,0,1-1.508-.472m3.071-3.286.189.236.7,0h2.772v-3.64H26.733Z" transform="translate(-15.418 -96.399)" fill="#030302"/>
      <path id="Trazado_148367" data-name="Trazado 148367" d="M189.383,133.7c0,1.161.023,2.322-.007,3.482a1.8,1.8,0,0,1-1.837,1.952,1.775,1.775,0,0,1-1.873-1.912q-.047-3.539,0-7.08a1.9,1.9,0,0,1,1.889-1.943,1.931,1.931,0,0,1,1.82,2.019c.028,1.16.006,2.321.006,3.481" transform="translate(-127.336 -88.318)" fill="#0572cc"/>
      <path id="Trazado_148368" data-name="Trazado 148368" d="M187.524,198.134a1.823,1.823,0,0,1,1.894,1.789,1.859,1.859,0,1,1-3.717.071,1.816,1.816,0,0,1,1.822-1.859" transform="translate(-127.377 -136.502)" fill="#0572cc"/>
      <path id="Trazado_148369" data-name="Trazado 148369" d="M330.26,267.684l.961-.078v3.685h-2.605l1.644-3.607" transform="translate(-225.836 -184.363)" fill="#deeced"/>
      <path id="Trazado_148370" data-name="Trazado 148370" d="M327.887,267.856l-1.644,3.607-1.072.066v-3.673Z" transform="translate(-223.462 -184.535)" fill="#fdfdfd"/>
      <path id="Trazado_148371" data-name="Trazado 148371" d="M97.455,267.669l1.071-.08v3.692H95.809l1.646-3.612" transform="translate(-65.447 -184.352)" fill="#deeced"/>
      <path id="Trazado_148372" data-name="Trazado 148372" d="M95.433,267.847l-1.646,3.611-.913.052v-3.663Z" transform="translate(-63.425 -184.529)" fill="#fdfdfd"/>
      <path id="Trazado_148373" data-name="Trazado 148373" d="M93.771,38.915h-.927V35.253H95.4a6.289,6.289,0,0,1-.322,1.3c-.392.811-.869,1.58-1.312,2.367" transform="translate(-63.404 -24.287)" fill="#fdfdfd"/>
      <path id="Trazado_148374" data-name="Trazado 148374" d="M95.823,38.915c.442-.787.92-1.556,1.312-2.367a6.288,6.288,0,0,0,.322-1.3h1.085v3.662H95.823" transform="translate(-65.456 -24.287)" fill="#deeced"/>
      <rect id="Rectángulo_34235" data-name="Rectángulo 34235" width="3.611" height="3.636" transform="translate(101.767 10.997)" fill="#f6f6f6"/>
      <path id="Trazado_148375" data-name="Trazado 148375" d="M209.983,38.928l-.864.044v-3.7h2.724l-1.861,3.652" transform="translate(-143.51 -24.303)" fill="#fdfdfd"/>
      <path id="Trazado_148376" data-name="Trazado 148376" d="M211.9,38.928l1.861-3.652h.9v3.652Z" transform="translate(-145.423 -24.303)" fill="#f6f6f6"/>
      <path id="Trazado_148377" data-name="Trazado 148377" d="M209.961,271.47l-.853.071v-3.684h2.721l-1.868,3.613" transform="translate(-143.503 -184.536)" fill="#fdfdfd"/>
      <path id="Trazado_148378" data-name="Trazado 148378" d="M211.849,271.322l1.868-3.613.911-.067v3.681Z" transform="translate(-145.391 -184.387)" fill="#deeced"/>
      <path id="Trazado_148379" data-name="Trazado 148379" d="M35.467,155.125l-.7,0-.189-.235v-3.4h2.743l-1.854,3.64" transform="translate(-23.263 -104.363)" fill="#fdfdfd"/>
      <path id="Trazado_148380" data-name="Trazado 148380" d="M37.436,155.125l1.854-3.64h.918v3.64Z" transform="translate(-25.232 -104.363)" fill="#deeced"/>
      <path id="Trazado_148381" data-name="Trazado 148381" d="M34.578,162.423l.189.235-.189-.235" transform="translate(-23.263 -111.899)" fill="#deeced"/>
    </g>
  </g>
</svg>
